M48
; DRILL file {KiCad 8.0.1} date 2025-05-08T07:15:36+0200
; FORMAT={-:-/ absolute / metric / decimal}
; #@! TF.CreationDate,2025-05-08T07:15:36+02:00
; #@! TF.GenerationSoftware,Kicad,Pcbnew,8.0.1
; #@! TF.FileFunction,Plated,1,2,PTH
FMAT,2
METRIC
; #@! TA.AperFunction,Plated,PTH,ViaDrill
T1C0.400
; #@! TA.AperFunction,Plated,PTH,ViaDrill
T2C0.500
; #@! TA.AperFunction,Plated,PTH,ComponentDrill
T3C0.500
; #@! TA.AperFunction,Plated,PTH,ComponentDrill
T4C0.800
; #@! TA.AperFunction,Plated,PTH,ComponentDrill
T5C0.900
; #@! TA.AperFunction,Plated,PTH,ComponentDrill
T6C1.000
; #@! TA.AperFunction,Plated,PTH,ComponentDrill
T7C1.100
; #@! TA.AperFunction,Plated,PTH,ComponentDrill
T8C1.200
; #@! TA.AperFunction,Plated,PTH,ComponentDrill
T9C1.500
%
G90
G05
T1
X-5.6Y51.8
X-5.1Y24.7
X-4.9Y38.8
X-3.3Y49.7
X-2.6Y53.4
X-2.2Y22.5
X1.5Y33.5
X2.1Y38.8
X3.2Y9.0
X3.5Y27.6
X6.5Y33.4
X8.4Y63.0
X8.8Y37.4
X9.7Y6.3
X10.8Y32.7
X10.8Y1.9
X11.7Y49.0
X12.0Y68.5
X12.1Y46.5
X13.5Y63.4
X13.9Y1.9
X18.2Y27.2
X18.6Y66.4
X19.8Y19.2
X19.9Y50.2
X20.1Y45.3
X21.3Y7.7
X21.5Y58.0
X21.6Y1.1
X23.5Y52.9
X24.7Y68.6
X24.8Y9.6
X25.4Y47.0
X26.2Y60.3
X27.0Y56.0
X28.1Y3.5
X30.6Y67.8
X31.6Y1.1
X31.9Y57.7
X32.4Y53.7
X32.6Y49.3
X34.7Y20.3
X34.9Y28.1
X35.0Y38.3
X35.3Y4.9
X35.5Y24.9
X35.5Y22.6
X35.6Y32.6
X35.6Y30.2
X35.8Y68.7
X35.8Y36.9
X35.8Y14.5
X35.9Y45.8
X36.0Y10.4
X36.5Y18.0
X36.5Y4.9
X38.1Y35.2
X38.1Y15.4
X38.2Y26.2
X38.2Y3.1
X38.4Y33.8
X38.7Y23.0
X39.1Y14.5
X39.2Y32.8
X39.4Y26.3
X40.9Y5.1
X41.3Y58.5
X41.5Y48.2
X41.5Y9.0
X41.6Y1.1
X41.7Y7.1
X42.7Y27.5
X43.0Y6.7
X43.2Y5.4
X43.6Y10.3
X43.9Y57.3
X44.3Y11.2
X44.4Y53.8
X44.5Y29.2
X45.7Y22.7
X45.9Y21.5
X46.25Y19.45
X46.7Y48.2
X46.8Y56.9
X47.2Y26.4
X47.35Y25.25
X47.4Y23.9
X47.4Y21.2
X47.9Y8.5
X48.0Y56.8
X48.0Y11.5
X48.0Y10.3
X48.2Y36.8
X48.4Y43.0
X48.5Y14.2
X49.3Y53.1
X49.7Y1.9
X50.2Y5.8
X50.4Y12.1
X50.7Y59.6
X51.1Y27.2
X51.3Y18.2
X51.9Y10.0
X52.0Y8.0
X52.3Y29.9
X52.4Y27.2
X52.4Y24.8
X52.5Y12.0
X52.8Y53.4
X53.0Y9.0
X53.1Y2.3
X53.3Y14.6
X53.3Y7.4
X53.4Y11.2
X54.5Y30.9
X55.1Y58.7
X55.2Y28.7
X55.4Y26.0
X55.6Y59.9
X56.6Y47.7
X57.1Y68.4
X57.2Y45.2
X57.9Y36.8
X58.1Y43.0
X58.4Y52.2
X58.6Y33.9
X58.7Y2.5
X58.8Y14.6
X59.3Y51.3
X59.5Y12.4
X59.5Y11.1
X59.5Y8.5
X59.5Y7.1
X59.6Y13.7
X59.9Y14.8
X60.0Y45.2
X60.2Y26.0
X61.7Y2.5
X62.1Y30.3
X63.2Y4.0
X63.3Y47.8
X64.0Y5.2
X64.1Y68.4
X64.1Y31.0
X64.7Y58.5
X64.7Y2.5
X65.4Y28.0
X67.4Y23.5
X67.7Y2.5
X68.1Y11.6
X68.3Y7.8
X68.9Y13.1
X69.6Y68.4
X69.9Y53.1
X70.0Y10.8
X70.1Y7.8
X70.6Y28.7
X70.6Y4.7
X70.8Y16.9
X71.2Y50.1
X71.4Y12.5
X72.5Y10.1
X72.6Y1.6
X72.7Y14.9
X72.8Y45.0
X73.3Y4.3
X73.35Y20.75
X73.5Y57.7
X73.7Y31.9
X74.3Y10.1
X74.4Y62.8
X74.6Y20.0
X74.65Y18.65
X74.7Y68.1
X74.7Y13.0
X74.8Y46.8
X76.2Y22.5
X76.8Y10.1
X77.3Y54.1
X77.6Y1.6
X78.5Y20.8
X79.3Y66.0
X79.4Y18.8
X79.7Y15.0
X79.7Y9.4
X79.8Y60.3
X80.4Y48.3
X80.6Y20.5
X81.0Y12.4
X81.4Y33.2
X81.9Y23.1
X82.2Y9.3
X82.9Y12.4
X83.4Y20.7
X84.1Y55.4
X84.1Y43.5
X84.4Y59.5
X84.4Y56.9
X84.5Y65.3
X84.8Y20.5
X84.8Y11.1
X85.2Y61.6
X85.2Y56.0
X85.6Y62.8
X85.7Y35.6
X85.7Y14.1
X85.9Y49.4
X86.065Y10.235
X86.3Y32.9
X86.3Y11.5
X86.5Y55.9
X87.3Y43.2
X87.4Y13.3
X88.1Y68.4
X88.3Y14.1
X89.1Y20.4
X90.7Y18.8
X90.8Y64.4
X91.7Y20.8
X93.7Y4.8
X97.0Y2.9
X97.8Y7.1
X98.2Y15.8
X99.0Y12.9
X99.3Y69.0
X100.9Y58.2
X101.2Y2.9
X101.8Y14.3
X105.4Y15.8
X105.9Y2.9
X106.2Y59.4
X108.3Y58.2
X108.6Y69.0
X109.0Y14.6
X112.6Y15.9
X112.6Y2.9
X114.7Y59.4
X116.8Y58.1
X118.3Y69.0
X121.0Y58.1
X125.5Y9.8
X127.6Y12.5
T2
X38.5Y59.5
X39.8Y59.5
X47.9Y12.9
X49.1Y12.9
X51.2Y53.4
X51.5Y52.4
X52.7Y59.6
X54.2Y59.6
X57.6Y58.7
X58.9Y58.7
X66.6Y48.3
X66.6Y47.1
X69.1Y14.3
X69.6Y18.2
X70.1Y13.0
X71.0Y18.2
X76.4Y11.3
X77.4Y12.3
X78.8Y5.5
X79.6Y38.8
X79.6Y37.6
X80.3Y5.5
X81.6Y30.8
X90.9Y6.4
X92.1Y6.4
X96.8Y9.4
X98.0Y9.4
X99.1Y9.4
T3
X15.1Y41.8
X17.0Y41.8
T4
X75.72Y24.15
X80.6Y24.15
T5
X40.1Y67.8
X40.1Y45.956
X42.64Y67.8
X42.64Y45.956
X45.18Y67.8
X45.18Y45.956
X47.72Y67.8
X47.72Y45.956
X50.26Y67.8
X50.26Y45.956
X52.8Y67.8
X52.8Y45.956
T6
X93.1Y34.13
X93.1Y31.59
X93.1Y29.05
X93.1Y26.51
X93.1Y23.97
X99.3Y34.5
X99.3Y29.4
X99.3Y4.0
X117.0Y9.1
X117.0Y4.0
T7
X-1.906Y42.731
X5.0Y51.5
X5.0Y46.5
X9.527Y26.996
X21.45Y21.0
X21.45Y14.5
X21.45Y11.3
X21.45Y4.8
X21.5Y40.4
X21.5Y33.9
X21.5Y30.7
X21.5Y24.2
X25.95Y21.0
X25.95Y14.5
X25.95Y11.3
X25.95Y4.8
X26.0Y40.4
X26.0Y33.9
X26.0Y30.7
X26.0Y24.2
X45.2Y40.4
X45.2Y35.9
X51.7Y40.4
X51.7Y35.9
X54.9Y40.4
X54.9Y35.9
X61.4Y40.4
X61.4Y35.9
X64.6Y40.4
X64.6Y35.9
X71.1Y40.4
X71.1Y35.9
X74.3Y40.4
X74.3Y35.9
X80.8Y40.4
X80.8Y35.9
X85.05Y51.95
X85.05Y45.45
X89.55Y51.95
X89.55Y45.45
T8
X95.8Y60.3
X95.8Y48.8
X95.8Y41.8
X100.5Y60.3
X104.3Y60.3
X104.3Y48.8
X104.3Y41.8
X109.0Y60.3
X112.8Y60.3
X112.8Y48.8
X112.8Y41.8
X117.5Y60.3
X121.3Y60.3
X121.3Y48.8
X121.3Y41.8
X124.85Y23.1
X126.0Y60.3
X127.2Y33.1
T9
X134.5Y58.09
X134.5Y53.01
X134.5Y47.93
X134.5Y42.85
X134.5Y34.53
X134.5Y29.45
X134.5Y22.5
X134.5Y18.7
M30
