%TF.GenerationSoftware,KiCad,Pcbnew,8.0.1*%
%TF.CreationDate,2025-05-08T07:15:41+02:00*%
%TF.ProjectId,prj-gardmer-mb-v2,70726a2d-6761-4726-946d-65722d6d622d,rev?*%
%TF.SameCoordinates,PX4fa1be0PY7872f60*%
%TF.FileFunction,Drillmap*%
%TF.FilePolarity,Positive*%
%FSLAX45Y45*%
G04 Gerber Fmt 4.5, Leading zero omitted, Abs format (unit mm)*
G04 Created by KiCad (PCBNEW 8.0.1) date 2025-05-08 07:15:41*
%MOMM*%
%LPD*%
G01*
G04 APERTURE LIST*
%ADD10C,0.050000*%
%ADD11C,0.200000*%
%ADD12C,0.180000*%
%ADD13C,0.420000*%
G04 APERTURE END LIST*
D10*
X0Y7100000D02*
X13000000Y7100000D01*
X13000000Y6350000D02*
X13850000Y6350000D01*
X0Y0D02*
X13000000Y0D01*
X13850000Y6350000D02*
X13850000Y1450000D01*
X13850000Y1450000D02*
X13000000Y1450000D01*
X-850000Y5650000D02*
X-850000Y750000D01*
X13000000Y7100000D02*
X13000000Y6350000D01*
X0Y7100000D02*
X0Y5650000D01*
X-850000Y750000D02*
X0Y750000D01*
X13000000Y1450000D02*
X13000000Y0D01*
X0Y5650000D02*
X-850000Y5650000D01*
X0Y750000D02*
X0Y0D01*
D11*
D12*
X-230250Y2737177D02*
X-50250Y2557177D01*
X-50250Y2737177D02*
X-230250Y2557177D01*
X414858Y4188550D02*
X594859Y4008550D01*
X594859Y4188550D02*
X414858Y4008550D01*
X1349437Y2902213D02*
X1529437Y2722213D01*
X1529437Y2902213D02*
X1349437Y2722213D01*
D13*
X610000Y6750000D02*
G75*
G02*
X190000Y6750000I-210000J0D01*
G01*
X190000Y6750000D02*
G75*
G02*
X610000Y6750000I210000J0D01*
G01*
X610000Y350000D02*
G75*
G02*
X190000Y350000I-210000J0D01*
G01*
X190000Y350000D02*
G75*
G02*
X610000Y350000I210000J0D01*
G01*
X12800000Y6750000D02*
G75*
G02*
X12380000Y6750000I-210000J0D01*
G01*
X12380000Y6750000D02*
G75*
G02*
X12800000Y6750000I210000J0D01*
G01*
X12800000Y350000D02*
G75*
G02*
X12380000Y350000I-210000J0D01*
G01*
X12380000Y350000D02*
G75*
G02*
X12800000Y350000I210000J0D01*
G01*
D11*
X-591723Y-313984D02*
X-591723Y-113984D01*
X-591723Y-113984D02*
X-544104Y-113984D01*
X-544104Y-113984D02*
X-515533Y-123508D01*
X-515533Y-123508D02*
X-496485Y-142555D01*
X-496485Y-142555D02*
X-486961Y-161603D01*
X-486961Y-161603D02*
X-477437Y-199698D01*
X-477437Y-199698D02*
X-477437Y-228269D01*
X-477437Y-228269D02*
X-486961Y-266365D01*
X-486961Y-266365D02*
X-496485Y-285412D01*
X-496485Y-285412D02*
X-515533Y-304460D01*
X-515533Y-304460D02*
X-544104Y-313984D01*
X-544104Y-313984D02*
X-591723Y-313984D01*
X-391723Y-313984D02*
X-391723Y-180650D01*
X-391723Y-218746D02*
X-382199Y-199698D01*
X-382199Y-199698D02*
X-372676Y-190174D01*
X-372676Y-190174D02*
X-353628Y-180650D01*
X-353628Y-180650D02*
X-334580Y-180650D01*
X-267914Y-313984D02*
X-267914Y-180650D01*
X-267914Y-113984D02*
X-277438Y-123508D01*
X-277438Y-123508D02*
X-267914Y-133031D01*
X-267914Y-133031D02*
X-258390Y-123508D01*
X-258390Y-123508D02*
X-267914Y-113984D01*
X-267914Y-113984D02*
X-267914Y-133031D01*
X-144104Y-313984D02*
X-163152Y-304460D01*
X-163152Y-304460D02*
X-172676Y-285412D01*
X-172676Y-285412D02*
X-172676Y-113984D01*
X-39342Y-313984D02*
X-58390Y-304460D01*
X-58390Y-304460D02*
X-67914Y-285412D01*
X-67914Y-285412D02*
X-67914Y-113984D01*
X189229Y-313984D02*
X189229Y-113984D01*
X189229Y-113984D02*
X255896Y-256841D01*
X255896Y-256841D02*
X322563Y-113984D01*
X322563Y-113984D02*
X322563Y-313984D01*
X503515Y-313984D02*
X503515Y-209222D01*
X503515Y-209222D02*
X493991Y-190174D01*
X493991Y-190174D02*
X474943Y-180650D01*
X474943Y-180650D02*
X436848Y-180650D01*
X436848Y-180650D02*
X417801Y-190174D01*
X503515Y-304460D02*
X484467Y-313984D01*
X484467Y-313984D02*
X436848Y-313984D01*
X436848Y-313984D02*
X417801Y-304460D01*
X417801Y-304460D02*
X408277Y-285412D01*
X408277Y-285412D02*
X408277Y-266365D01*
X408277Y-266365D02*
X417801Y-247317D01*
X417801Y-247317D02*
X436848Y-237793D01*
X436848Y-237793D02*
X484467Y-237793D01*
X484467Y-237793D02*
X503515Y-228269D01*
X598753Y-180650D02*
X598753Y-380650D01*
X598753Y-190174D02*
X617801Y-180650D01*
X617801Y-180650D02*
X655896Y-180650D01*
X655896Y-180650D02*
X674944Y-190174D01*
X674944Y-190174D02*
X684467Y-199698D01*
X684467Y-199698D02*
X693991Y-218746D01*
X693991Y-218746D02*
X693991Y-275889D01*
X693991Y-275889D02*
X684467Y-294936D01*
X684467Y-294936D02*
X674944Y-304460D01*
X674944Y-304460D02*
X655896Y-313984D01*
X655896Y-313984D02*
X617801Y-313984D01*
X617801Y-313984D02*
X598753Y-304460D01*
X779705Y-294936D02*
X789229Y-304460D01*
X789229Y-304460D02*
X779705Y-313984D01*
X779705Y-313984D02*
X770182Y-304460D01*
X770182Y-304460D02*
X779705Y-294936D01*
X779705Y-294936D02*
X779705Y-313984D01*
X779705Y-190174D02*
X789229Y-199698D01*
X789229Y-199698D02*
X779705Y-209222D01*
X779705Y-209222D02*
X770182Y-199698D01*
X770182Y-199698D02*
X779705Y-190174D01*
X779705Y-190174D02*
X779705Y-209222D01*
D12*
X-1032500Y-552500D02*
X-852500Y-732500D01*
X-852500Y-552500D02*
X-1032500Y-732500D01*
D11*
X-486961Y-733984D02*
X-601247Y-733984D01*
X-544104Y-733984D02*
X-544104Y-533984D01*
X-544104Y-533984D02*
X-563152Y-562555D01*
X-563152Y-562555D02*
X-582199Y-581603D01*
X-582199Y-581603D02*
X-601247Y-591127D01*
X-401247Y-714936D02*
X-391723Y-724460D01*
X-391723Y-724460D02*
X-401247Y-733984D01*
X-401247Y-733984D02*
X-410771Y-724460D01*
X-410771Y-724460D02*
X-401247Y-714936D01*
X-401247Y-714936D02*
X-401247Y-733984D01*
X-277438Y-619698D02*
X-296485Y-610174D01*
X-296485Y-610174D02*
X-306009Y-600650D01*
X-306009Y-600650D02*
X-315533Y-581603D01*
X-315533Y-581603D02*
X-315533Y-572079D01*
X-315533Y-572079D02*
X-306009Y-553031D01*
X-306009Y-553031D02*
X-296485Y-543508D01*
X-296485Y-543508D02*
X-277438Y-533984D01*
X-277438Y-533984D02*
X-239342Y-533984D01*
X-239342Y-533984D02*
X-220295Y-543508D01*
X-220295Y-543508D02*
X-210771Y-553031D01*
X-210771Y-553031D02*
X-201247Y-572079D01*
X-201247Y-572079D02*
X-201247Y-581603D01*
X-201247Y-581603D02*
X-210771Y-600650D01*
X-210771Y-600650D02*
X-220295Y-610174D01*
X-220295Y-610174D02*
X-239342Y-619698D01*
X-239342Y-619698D02*
X-277438Y-619698D01*
X-277438Y-619698D02*
X-296485Y-629222D01*
X-296485Y-629222D02*
X-306009Y-638746D01*
X-306009Y-638746D02*
X-315533Y-657793D01*
X-315533Y-657793D02*
X-315533Y-695889D01*
X-315533Y-695889D02*
X-306009Y-714936D01*
X-306009Y-714936D02*
X-296485Y-724460D01*
X-296485Y-724460D02*
X-277438Y-733984D01*
X-277438Y-733984D02*
X-239342Y-733984D01*
X-239342Y-733984D02*
X-220295Y-724460D01*
X-220295Y-724460D02*
X-210771Y-714936D01*
X-210771Y-714936D02*
X-201247Y-695889D01*
X-201247Y-695889D02*
X-201247Y-657793D01*
X-201247Y-657793D02*
X-210771Y-638746D01*
X-210771Y-638746D02*
X-220295Y-629222D01*
X-220295Y-629222D02*
X-239342Y-619698D01*
X-77438Y-533984D02*
X-58390Y-533984D01*
X-58390Y-533984D02*
X-39342Y-543508D01*
X-39342Y-543508D02*
X-29818Y-553031D01*
X-29818Y-553031D02*
X-20295Y-572079D01*
X-20295Y-572079D02*
X-10771Y-610174D01*
X-10771Y-610174D02*
X-10771Y-657793D01*
X-10771Y-657793D02*
X-20295Y-695889D01*
X-20295Y-695889D02*
X-29818Y-714936D01*
X-29818Y-714936D02*
X-39342Y-724460D01*
X-39342Y-724460D02*
X-58390Y-733984D01*
X-58390Y-733984D02*
X-77438Y-733984D01*
X-77438Y-733984D02*
X-96485Y-724460D01*
X-96485Y-724460D02*
X-106009Y-714936D01*
X-106009Y-714936D02*
X-115533Y-695889D01*
X-115533Y-695889D02*
X-125056Y-657793D01*
X-125056Y-657793D02*
X-125056Y-610174D01*
X-125056Y-610174D02*
X-115533Y-572079D01*
X-115533Y-572079D02*
X-106009Y-553031D01*
X-106009Y-553031D02*
X-96485Y-543508D01*
X-96485Y-543508D02*
X-77438Y-533984D01*
X113039Y-533984D02*
X132086Y-533984D01*
X132086Y-533984D02*
X151134Y-543508D01*
X151134Y-543508D02*
X160658Y-553031D01*
X160658Y-553031D02*
X170182Y-572079D01*
X170182Y-572079D02*
X179705Y-610174D01*
X179705Y-610174D02*
X179705Y-657793D01*
X179705Y-657793D02*
X170182Y-695889D01*
X170182Y-695889D02*
X160658Y-714936D01*
X160658Y-714936D02*
X151134Y-724460D01*
X151134Y-724460D02*
X132086Y-733984D01*
X132086Y-733984D02*
X113039Y-733984D01*
X113039Y-733984D02*
X93991Y-724460D01*
X93991Y-724460D02*
X84467Y-714936D01*
X84467Y-714936D02*
X74944Y-695889D01*
X74944Y-695889D02*
X65420Y-657793D01*
X65420Y-657793D02*
X65420Y-610174D01*
X65420Y-610174D02*
X74944Y-572079D01*
X74944Y-572079D02*
X84467Y-553031D01*
X84467Y-553031D02*
X93991Y-543508D01*
X93991Y-543508D02*
X113039Y-533984D01*
X265420Y-733984D02*
X265420Y-600650D01*
X265420Y-619698D02*
X274944Y-610174D01*
X274944Y-610174D02*
X293991Y-600650D01*
X293991Y-600650D02*
X322563Y-600650D01*
X322563Y-600650D02*
X341610Y-610174D01*
X341610Y-610174D02*
X351134Y-629222D01*
X351134Y-629222D02*
X351134Y-733984D01*
X351134Y-629222D02*
X360658Y-610174D01*
X360658Y-610174D02*
X379705Y-600650D01*
X379705Y-600650D02*
X408277Y-600650D01*
X408277Y-600650D02*
X427324Y-610174D01*
X427324Y-610174D02*
X436848Y-629222D01*
X436848Y-629222D02*
X436848Y-733984D01*
X532086Y-733984D02*
X532086Y-600650D01*
X532086Y-619698D02*
X541610Y-610174D01*
X541610Y-610174D02*
X560658Y-600650D01*
X560658Y-600650D02*
X589229Y-600650D01*
X589229Y-600650D02*
X608277Y-610174D01*
X608277Y-610174D02*
X617801Y-629222D01*
X617801Y-629222D02*
X617801Y-733984D01*
X617801Y-629222D02*
X627325Y-610174D01*
X627325Y-610174D02*
X646372Y-600650D01*
X646372Y-600650D02*
X674944Y-600650D01*
X674944Y-600650D02*
X693991Y-610174D01*
X693991Y-610174D02*
X703515Y-629222D01*
X703515Y-629222D02*
X703515Y-733984D01*
X1093991Y-524460D02*
X922563Y-781603D01*
X1351134Y-533984D02*
X1370182Y-533984D01*
X1370182Y-533984D02*
X1389229Y-543508D01*
X1389229Y-543508D02*
X1398753Y-553031D01*
X1398753Y-553031D02*
X1408277Y-572079D01*
X1408277Y-572079D02*
X1417801Y-610174D01*
X1417801Y-610174D02*
X1417801Y-657793D01*
X1417801Y-657793D02*
X1408277Y-695889D01*
X1408277Y-695889D02*
X1398753Y-714936D01*
X1398753Y-714936D02*
X1389229Y-724460D01*
X1389229Y-724460D02*
X1370182Y-733984D01*
X1370182Y-733984D02*
X1351134Y-733984D01*
X1351134Y-733984D02*
X1332087Y-724460D01*
X1332087Y-724460D02*
X1322563Y-714936D01*
X1322563Y-714936D02*
X1313039Y-695889D01*
X1313039Y-695889D02*
X1303515Y-657793D01*
X1303515Y-657793D02*
X1303515Y-610174D01*
X1303515Y-610174D02*
X1313039Y-572079D01*
X1313039Y-572079D02*
X1322563Y-553031D01*
X1322563Y-553031D02*
X1332087Y-543508D01*
X1332087Y-543508D02*
X1351134Y-533984D01*
X1503515Y-714936D02*
X1513039Y-724460D01*
X1513039Y-724460D02*
X1503515Y-733984D01*
X1503515Y-733984D02*
X1493991Y-724460D01*
X1493991Y-724460D02*
X1503515Y-714936D01*
X1503515Y-714936D02*
X1503515Y-733984D01*
X1636848Y-533984D02*
X1655896Y-533984D01*
X1655896Y-533984D02*
X1674944Y-543508D01*
X1674944Y-543508D02*
X1684467Y-553031D01*
X1684467Y-553031D02*
X1693991Y-572079D01*
X1693991Y-572079D02*
X1703515Y-610174D01*
X1703515Y-610174D02*
X1703515Y-657793D01*
X1703515Y-657793D02*
X1693991Y-695889D01*
X1693991Y-695889D02*
X1684467Y-714936D01*
X1684467Y-714936D02*
X1674944Y-724460D01*
X1674944Y-724460D02*
X1655896Y-733984D01*
X1655896Y-733984D02*
X1636848Y-733984D01*
X1636848Y-733984D02*
X1617801Y-724460D01*
X1617801Y-724460D02*
X1608277Y-714936D01*
X1608277Y-714936D02*
X1598753Y-695889D01*
X1598753Y-695889D02*
X1589229Y-657793D01*
X1589229Y-657793D02*
X1589229Y-610174D01*
X1589229Y-610174D02*
X1598753Y-572079D01*
X1598753Y-572079D02*
X1608277Y-553031D01*
X1608277Y-553031D02*
X1617801Y-543508D01*
X1617801Y-543508D02*
X1636848Y-533984D01*
X1770182Y-533984D02*
X1903515Y-533984D01*
X1903515Y-533984D02*
X1817801Y-733984D01*
X2017801Y-533984D02*
X2036848Y-533984D01*
X2036848Y-533984D02*
X2055896Y-543508D01*
X2055896Y-543508D02*
X2065420Y-553031D01*
X2065420Y-553031D02*
X2074944Y-572079D01*
X2074944Y-572079D02*
X2084467Y-610174D01*
X2084467Y-610174D02*
X2084467Y-657793D01*
X2084467Y-657793D02*
X2074944Y-695889D01*
X2074944Y-695889D02*
X2065420Y-714936D01*
X2065420Y-714936D02*
X2055896Y-724460D01*
X2055896Y-724460D02*
X2036848Y-733984D01*
X2036848Y-733984D02*
X2017801Y-733984D01*
X2017801Y-733984D02*
X1998753Y-724460D01*
X1998753Y-724460D02*
X1989229Y-714936D01*
X1989229Y-714936D02*
X1979706Y-695889D01*
X1979706Y-695889D02*
X1970182Y-657793D01*
X1970182Y-657793D02*
X1970182Y-610174D01*
X1970182Y-610174D02*
X1979706Y-572079D01*
X1979706Y-572079D02*
X1989229Y-553031D01*
X1989229Y-553031D02*
X1998753Y-543508D01*
X1998753Y-543508D02*
X2017801Y-533984D01*
X2179706Y-733984D02*
X2217801Y-733984D01*
X2217801Y-733984D02*
X2236849Y-724460D01*
X2236849Y-724460D02*
X2246372Y-714936D01*
X2246372Y-714936D02*
X2265420Y-686365D01*
X2265420Y-686365D02*
X2274944Y-648270D01*
X2274944Y-648270D02*
X2274944Y-572079D01*
X2274944Y-572079D02*
X2265420Y-553031D01*
X2265420Y-553031D02*
X2255896Y-543508D01*
X2255896Y-543508D02*
X2236849Y-533984D01*
X2236849Y-533984D02*
X2198753Y-533984D01*
X2198753Y-533984D02*
X2179706Y-543508D01*
X2179706Y-543508D02*
X2170182Y-553031D01*
X2170182Y-553031D02*
X2160658Y-572079D01*
X2160658Y-572079D02*
X2160658Y-619698D01*
X2160658Y-619698D02*
X2170182Y-638746D01*
X2170182Y-638746D02*
X2179706Y-648270D01*
X2179706Y-648270D02*
X2198753Y-657793D01*
X2198753Y-657793D02*
X2236849Y-657793D01*
X2236849Y-657793D02*
X2255896Y-648270D01*
X2255896Y-648270D02*
X2265420Y-638746D01*
X2265420Y-638746D02*
X2274944Y-619698D01*
X2351134Y-533984D02*
X2351134Y-572079D01*
X2427325Y-533984D02*
X2427325Y-572079D01*
X2722563Y-810174D02*
X2713039Y-800650D01*
X2713039Y-800650D02*
X2693991Y-772079D01*
X2693991Y-772079D02*
X2684468Y-753031D01*
X2684468Y-753031D02*
X2674944Y-724460D01*
X2674944Y-724460D02*
X2665420Y-676841D01*
X2665420Y-676841D02*
X2665420Y-638746D01*
X2665420Y-638746D02*
X2674944Y-591127D01*
X2674944Y-591127D02*
X2684468Y-562555D01*
X2684468Y-562555D02*
X2693991Y-543508D01*
X2693991Y-543508D02*
X2713039Y-514936D01*
X2713039Y-514936D02*
X2722563Y-505412D01*
X2779706Y-533984D02*
X2903515Y-533984D01*
X2903515Y-533984D02*
X2836848Y-610174D01*
X2836848Y-610174D02*
X2865420Y-610174D01*
X2865420Y-610174D02*
X2884468Y-619698D01*
X2884468Y-619698D02*
X2893991Y-629222D01*
X2893991Y-629222D02*
X2903515Y-648270D01*
X2903515Y-648270D02*
X2903515Y-695889D01*
X2903515Y-695889D02*
X2893991Y-714936D01*
X2893991Y-714936D02*
X2884468Y-724460D01*
X2884468Y-724460D02*
X2865420Y-733984D01*
X2865420Y-733984D02*
X2808277Y-733984D01*
X2808277Y-733984D02*
X2789230Y-724460D01*
X2789230Y-724460D02*
X2779706Y-714936D01*
X3141610Y-733984D02*
X3141610Y-533984D01*
X3227325Y-733984D02*
X3227325Y-629222D01*
X3227325Y-629222D02*
X3217801Y-610174D01*
X3217801Y-610174D02*
X3198753Y-600650D01*
X3198753Y-600650D02*
X3170182Y-600650D01*
X3170182Y-600650D02*
X3151134Y-610174D01*
X3151134Y-610174D02*
X3141610Y-619698D01*
X3351134Y-733984D02*
X3332087Y-724460D01*
X3332087Y-724460D02*
X3322563Y-714936D01*
X3322563Y-714936D02*
X3313039Y-695889D01*
X3313039Y-695889D02*
X3313039Y-638746D01*
X3313039Y-638746D02*
X3322563Y-619698D01*
X3322563Y-619698D02*
X3332087Y-610174D01*
X3332087Y-610174D02*
X3351134Y-600650D01*
X3351134Y-600650D02*
X3379706Y-600650D01*
X3379706Y-600650D02*
X3398753Y-610174D01*
X3398753Y-610174D02*
X3408277Y-619698D01*
X3408277Y-619698D02*
X3417801Y-638746D01*
X3417801Y-638746D02*
X3417801Y-695889D01*
X3417801Y-695889D02*
X3408277Y-714936D01*
X3408277Y-714936D02*
X3398753Y-724460D01*
X3398753Y-724460D02*
X3379706Y-733984D01*
X3379706Y-733984D02*
X3351134Y-733984D01*
X3532087Y-733984D02*
X3513039Y-724460D01*
X3513039Y-724460D02*
X3503515Y-705412D01*
X3503515Y-705412D02*
X3503515Y-533984D01*
X3684468Y-724460D02*
X3665420Y-733984D01*
X3665420Y-733984D02*
X3627325Y-733984D01*
X3627325Y-733984D02*
X3608277Y-724460D01*
X3608277Y-724460D02*
X3598753Y-705412D01*
X3598753Y-705412D02*
X3598753Y-629222D01*
X3598753Y-629222D02*
X3608277Y-610174D01*
X3608277Y-610174D02*
X3627325Y-600650D01*
X3627325Y-600650D02*
X3665420Y-600650D01*
X3665420Y-600650D02*
X3684468Y-610174D01*
X3684468Y-610174D02*
X3693991Y-629222D01*
X3693991Y-629222D02*
X3693991Y-648270D01*
X3693991Y-648270D02*
X3598753Y-667317D01*
X3770182Y-724460D02*
X3789230Y-733984D01*
X3789230Y-733984D02*
X3827325Y-733984D01*
X3827325Y-733984D02*
X3846372Y-724460D01*
X3846372Y-724460D02*
X3855896Y-705412D01*
X3855896Y-705412D02*
X3855896Y-695889D01*
X3855896Y-695889D02*
X3846372Y-676841D01*
X3846372Y-676841D02*
X3827325Y-667317D01*
X3827325Y-667317D02*
X3798753Y-667317D01*
X3798753Y-667317D02*
X3779706Y-657793D01*
X3779706Y-657793D02*
X3770182Y-638746D01*
X3770182Y-638746D02*
X3770182Y-629222D01*
X3770182Y-629222D02*
X3779706Y-610174D01*
X3779706Y-610174D02*
X3798753Y-600650D01*
X3798753Y-600650D02*
X3827325Y-600650D01*
X3827325Y-600650D02*
X3846372Y-610174D01*
X3922563Y-810174D02*
X3932087Y-800650D01*
X3932087Y-800650D02*
X3951134Y-772079D01*
X3951134Y-772079D02*
X3960658Y-753031D01*
X3960658Y-753031D02*
X3970182Y-724460D01*
X3970182Y-724460D02*
X3979706Y-676841D01*
X3979706Y-676841D02*
X3979706Y-638746D01*
X3979706Y-638746D02*
X3970182Y-591127D01*
X3970182Y-591127D02*
X3960658Y-562555D01*
X3960658Y-562555D02*
X3951134Y-543508D01*
X3951134Y-543508D02*
X3932087Y-514936D01*
X3932087Y-514936D02*
X3922563Y-505412D01*
X4284468Y-810174D02*
X4274944Y-800650D01*
X4274944Y-800650D02*
X4255896Y-772079D01*
X4255896Y-772079D02*
X4246373Y-753031D01*
X4246373Y-753031D02*
X4236849Y-724460D01*
X4236849Y-724460D02*
X4227325Y-676841D01*
X4227325Y-676841D02*
X4227325Y-638746D01*
X4227325Y-638746D02*
X4236849Y-591127D01*
X4236849Y-591127D02*
X4246373Y-562555D01*
X4246373Y-562555D02*
X4255896Y-543508D01*
X4255896Y-543508D02*
X4274944Y-514936D01*
X4274944Y-514936D02*
X4284468Y-505412D01*
X4360658Y-600650D02*
X4360658Y-733984D01*
X4360658Y-619698D02*
X4370182Y-610174D01*
X4370182Y-610174D02*
X4389230Y-600650D01*
X4389230Y-600650D02*
X4417801Y-600650D01*
X4417801Y-600650D02*
X4436849Y-610174D01*
X4436849Y-610174D02*
X4446373Y-629222D01*
X4446373Y-629222D02*
X4446373Y-733984D01*
X4570182Y-733984D02*
X4551134Y-724460D01*
X4551134Y-724460D02*
X4541611Y-714936D01*
X4541611Y-714936D02*
X4532087Y-695889D01*
X4532087Y-695889D02*
X4532087Y-638746D01*
X4532087Y-638746D02*
X4541611Y-619698D01*
X4541611Y-619698D02*
X4551134Y-610174D01*
X4551134Y-610174D02*
X4570182Y-600650D01*
X4570182Y-600650D02*
X4598754Y-600650D01*
X4598754Y-600650D02*
X4617801Y-610174D01*
X4617801Y-610174D02*
X4627325Y-619698D01*
X4627325Y-619698D02*
X4636849Y-638746D01*
X4636849Y-638746D02*
X4636849Y-695889D01*
X4636849Y-695889D02*
X4627325Y-714936D01*
X4627325Y-714936D02*
X4617801Y-724460D01*
X4617801Y-724460D02*
X4598754Y-733984D01*
X4598754Y-733984D02*
X4570182Y-733984D01*
X4693992Y-600650D02*
X4770182Y-600650D01*
X4722563Y-533984D02*
X4722563Y-705412D01*
X4722563Y-705412D02*
X4732087Y-724460D01*
X4732087Y-724460D02*
X4751134Y-733984D01*
X4751134Y-733984D02*
X4770182Y-733984D01*
X4989230Y-600650D02*
X4989230Y-800650D01*
X4989230Y-610174D02*
X5008277Y-600650D01*
X5008277Y-600650D02*
X5046373Y-600650D01*
X5046373Y-600650D02*
X5065420Y-610174D01*
X5065420Y-610174D02*
X5074944Y-619698D01*
X5074944Y-619698D02*
X5084468Y-638746D01*
X5084468Y-638746D02*
X5084468Y-695889D01*
X5084468Y-695889D02*
X5074944Y-714936D01*
X5074944Y-714936D02*
X5065420Y-724460D01*
X5065420Y-724460D02*
X5046373Y-733984D01*
X5046373Y-733984D02*
X5008277Y-733984D01*
X5008277Y-733984D02*
X4989230Y-724460D01*
X5198754Y-733984D02*
X5179706Y-724460D01*
X5179706Y-724460D02*
X5170182Y-705412D01*
X5170182Y-705412D02*
X5170182Y-533984D01*
X5360658Y-733984D02*
X5360658Y-629222D01*
X5360658Y-629222D02*
X5351135Y-610174D01*
X5351135Y-610174D02*
X5332087Y-600650D01*
X5332087Y-600650D02*
X5293992Y-600650D01*
X5293992Y-600650D02*
X5274944Y-610174D01*
X5360658Y-724460D02*
X5341611Y-733984D01*
X5341611Y-733984D02*
X5293992Y-733984D01*
X5293992Y-733984D02*
X5274944Y-724460D01*
X5274944Y-724460D02*
X5265420Y-705412D01*
X5265420Y-705412D02*
X5265420Y-686365D01*
X5265420Y-686365D02*
X5274944Y-667317D01*
X5274944Y-667317D02*
X5293992Y-657793D01*
X5293992Y-657793D02*
X5341611Y-657793D01*
X5341611Y-657793D02*
X5360658Y-648270D01*
X5427325Y-600650D02*
X5503515Y-600650D01*
X5455896Y-533984D02*
X5455896Y-705412D01*
X5455896Y-705412D02*
X5465420Y-724460D01*
X5465420Y-724460D02*
X5484468Y-733984D01*
X5484468Y-733984D02*
X5503515Y-733984D01*
X5646373Y-724460D02*
X5627325Y-733984D01*
X5627325Y-733984D02*
X5589230Y-733984D01*
X5589230Y-733984D02*
X5570182Y-724460D01*
X5570182Y-724460D02*
X5560658Y-705412D01*
X5560658Y-705412D02*
X5560658Y-629222D01*
X5560658Y-629222D02*
X5570182Y-610174D01*
X5570182Y-610174D02*
X5589230Y-600650D01*
X5589230Y-600650D02*
X5627325Y-600650D01*
X5627325Y-600650D02*
X5646373Y-610174D01*
X5646373Y-610174D02*
X5655896Y-629222D01*
X5655896Y-629222D02*
X5655896Y-648270D01*
X5655896Y-648270D02*
X5560658Y-667317D01*
X5827325Y-733984D02*
X5827325Y-533984D01*
X5827325Y-724460D02*
X5808277Y-733984D01*
X5808277Y-733984D02*
X5770182Y-733984D01*
X5770182Y-733984D02*
X5751134Y-724460D01*
X5751134Y-724460D02*
X5741611Y-714936D01*
X5741611Y-714936D02*
X5732087Y-695889D01*
X5732087Y-695889D02*
X5732087Y-638746D01*
X5732087Y-638746D02*
X5741611Y-619698D01*
X5741611Y-619698D02*
X5751134Y-610174D01*
X5751134Y-610174D02*
X5770182Y-600650D01*
X5770182Y-600650D02*
X5808277Y-600650D01*
X5808277Y-600650D02*
X5827325Y-610174D01*
X5903515Y-810174D02*
X5913039Y-800650D01*
X5913039Y-800650D02*
X5932087Y-772079D01*
X5932087Y-772079D02*
X5941611Y-753031D01*
X5941611Y-753031D02*
X5951134Y-724460D01*
X5951134Y-724460D02*
X5960658Y-676841D01*
X5960658Y-676841D02*
X5960658Y-638746D01*
X5960658Y-638746D02*
X5951134Y-591127D01*
X5951134Y-591127D02*
X5941611Y-562555D01*
X5941611Y-562555D02*
X5932087Y-543508D01*
X5932087Y-543508D02*
X5913039Y-514936D01*
X5913039Y-514936D02*
X5903515Y-505412D01*
X-852500Y-942500D02*
G75*
G02*
X-1052500Y-942500I-100000J0D01*
G01*
X-1052500Y-942500D02*
G75*
G02*
X-852500Y-942500I100000J0D01*
G01*
X-506009Y-900650D02*
X-506009Y-1033984D01*
X-553628Y-824460D02*
X-601247Y-967317D01*
X-601247Y-967317D02*
X-477437Y-967317D01*
X-401247Y-1014936D02*
X-391723Y-1024460D01*
X-391723Y-1024460D02*
X-401247Y-1033984D01*
X-401247Y-1033984D02*
X-410771Y-1024460D01*
X-410771Y-1024460D02*
X-401247Y-1014936D01*
X-401247Y-1014936D02*
X-401247Y-1033984D01*
X-315533Y-853031D02*
X-306009Y-843508D01*
X-306009Y-843508D02*
X-286961Y-833984D01*
X-286961Y-833984D02*
X-239342Y-833984D01*
X-239342Y-833984D02*
X-220295Y-843508D01*
X-220295Y-843508D02*
X-210771Y-853031D01*
X-210771Y-853031D02*
X-201247Y-872079D01*
X-201247Y-872079D02*
X-201247Y-891127D01*
X-201247Y-891127D02*
X-210771Y-919698D01*
X-210771Y-919698D02*
X-325057Y-1033984D01*
X-325057Y-1033984D02*
X-201247Y-1033984D01*
X-77438Y-833984D02*
X-58390Y-833984D01*
X-58390Y-833984D02*
X-39342Y-843508D01*
X-39342Y-843508D02*
X-29818Y-853031D01*
X-29818Y-853031D02*
X-20295Y-872079D01*
X-20295Y-872079D02*
X-10771Y-910174D01*
X-10771Y-910174D02*
X-10771Y-957793D01*
X-10771Y-957793D02*
X-20295Y-995888D01*
X-20295Y-995888D02*
X-29818Y-1014936D01*
X-29818Y-1014936D02*
X-39342Y-1024460D01*
X-39342Y-1024460D02*
X-58390Y-1033984D01*
X-58390Y-1033984D02*
X-77438Y-1033984D01*
X-77438Y-1033984D02*
X-96485Y-1024460D01*
X-96485Y-1024460D02*
X-106009Y-1014936D01*
X-106009Y-1014936D02*
X-115533Y-995888D01*
X-115533Y-995888D02*
X-125056Y-957793D01*
X-125056Y-957793D02*
X-125056Y-910174D01*
X-125056Y-910174D02*
X-115533Y-872079D01*
X-115533Y-872079D02*
X-106009Y-853031D01*
X-106009Y-853031D02*
X-96485Y-843508D01*
X-96485Y-843508D02*
X-77438Y-833984D01*
X113039Y-833984D02*
X132086Y-833984D01*
X132086Y-833984D02*
X151134Y-843508D01*
X151134Y-843508D02*
X160658Y-853031D01*
X160658Y-853031D02*
X170182Y-872079D01*
X170182Y-872079D02*
X179705Y-910174D01*
X179705Y-910174D02*
X179705Y-957793D01*
X179705Y-957793D02*
X170182Y-995888D01*
X170182Y-995888D02*
X160658Y-1014936D01*
X160658Y-1014936D02*
X151134Y-1024460D01*
X151134Y-1024460D02*
X132086Y-1033984D01*
X132086Y-1033984D02*
X113039Y-1033984D01*
X113039Y-1033984D02*
X93991Y-1024460D01*
X93991Y-1024460D02*
X84467Y-1014936D01*
X84467Y-1014936D02*
X74944Y-995888D01*
X74944Y-995888D02*
X65420Y-957793D01*
X65420Y-957793D02*
X65420Y-910174D01*
X65420Y-910174D02*
X74944Y-872079D01*
X74944Y-872079D02*
X84467Y-853031D01*
X84467Y-853031D02*
X93991Y-843508D01*
X93991Y-843508D02*
X113039Y-833984D01*
X265420Y-1033984D02*
X265420Y-900650D01*
X265420Y-919698D02*
X274944Y-910174D01*
X274944Y-910174D02*
X293991Y-900650D01*
X293991Y-900650D02*
X322563Y-900650D01*
X322563Y-900650D02*
X341610Y-910174D01*
X341610Y-910174D02*
X351134Y-929222D01*
X351134Y-929222D02*
X351134Y-1033984D01*
X351134Y-929222D02*
X360658Y-910174D01*
X360658Y-910174D02*
X379705Y-900650D01*
X379705Y-900650D02*
X408277Y-900650D01*
X408277Y-900650D02*
X427324Y-910174D01*
X427324Y-910174D02*
X436848Y-929222D01*
X436848Y-929222D02*
X436848Y-1033984D01*
X532086Y-1033984D02*
X532086Y-900650D01*
X532086Y-919698D02*
X541610Y-910174D01*
X541610Y-910174D02*
X560658Y-900650D01*
X560658Y-900650D02*
X589229Y-900650D01*
X589229Y-900650D02*
X608277Y-910174D01*
X608277Y-910174D02*
X617801Y-929222D01*
X617801Y-929222D02*
X617801Y-1033984D01*
X617801Y-929222D02*
X627325Y-910174D01*
X627325Y-910174D02*
X646372Y-900650D01*
X646372Y-900650D02*
X674944Y-900650D01*
X674944Y-900650D02*
X693991Y-910174D01*
X693991Y-910174D02*
X703515Y-929222D01*
X703515Y-929222D02*
X703515Y-1033984D01*
X1093991Y-824460D02*
X922563Y-1081603D01*
X1351134Y-833984D02*
X1370182Y-833984D01*
X1370182Y-833984D02*
X1389229Y-843508D01*
X1389229Y-843508D02*
X1398753Y-853031D01*
X1398753Y-853031D02*
X1408277Y-872079D01*
X1408277Y-872079D02*
X1417801Y-910174D01*
X1417801Y-910174D02*
X1417801Y-957793D01*
X1417801Y-957793D02*
X1408277Y-995888D01*
X1408277Y-995888D02*
X1398753Y-1014936D01*
X1398753Y-1014936D02*
X1389229Y-1024460D01*
X1389229Y-1024460D02*
X1370182Y-1033984D01*
X1370182Y-1033984D02*
X1351134Y-1033984D01*
X1351134Y-1033984D02*
X1332087Y-1024460D01*
X1332087Y-1024460D02*
X1322563Y-1014936D01*
X1322563Y-1014936D02*
X1313039Y-995888D01*
X1313039Y-995888D02*
X1303515Y-957793D01*
X1303515Y-957793D02*
X1303515Y-910174D01*
X1303515Y-910174D02*
X1313039Y-872079D01*
X1313039Y-872079D02*
X1322563Y-853031D01*
X1322563Y-853031D02*
X1332087Y-843508D01*
X1332087Y-843508D02*
X1351134Y-833984D01*
X1503515Y-1014936D02*
X1513039Y-1024460D01*
X1513039Y-1024460D02*
X1503515Y-1033984D01*
X1503515Y-1033984D02*
X1493991Y-1024460D01*
X1493991Y-1024460D02*
X1503515Y-1014936D01*
X1503515Y-1014936D02*
X1503515Y-1033984D01*
X1703515Y-1033984D02*
X1589229Y-1033984D01*
X1646372Y-1033984D02*
X1646372Y-833984D01*
X1646372Y-833984D02*
X1627325Y-862555D01*
X1627325Y-862555D02*
X1608277Y-881603D01*
X1608277Y-881603D02*
X1589229Y-891127D01*
X1874944Y-833984D02*
X1836848Y-833984D01*
X1836848Y-833984D02*
X1817801Y-843508D01*
X1817801Y-843508D02*
X1808277Y-853031D01*
X1808277Y-853031D02*
X1789229Y-881603D01*
X1789229Y-881603D02*
X1779706Y-919698D01*
X1779706Y-919698D02*
X1779706Y-995888D01*
X1779706Y-995888D02*
X1789229Y-1014936D01*
X1789229Y-1014936D02*
X1798753Y-1024460D01*
X1798753Y-1024460D02*
X1817801Y-1033984D01*
X1817801Y-1033984D02*
X1855896Y-1033984D01*
X1855896Y-1033984D02*
X1874944Y-1024460D01*
X1874944Y-1024460D02*
X1884467Y-1014936D01*
X1884467Y-1014936D02*
X1893991Y-995888D01*
X1893991Y-995888D02*
X1893991Y-948269D01*
X1893991Y-948269D02*
X1884467Y-929222D01*
X1884467Y-929222D02*
X1874944Y-919698D01*
X1874944Y-919698D02*
X1855896Y-910174D01*
X1855896Y-910174D02*
X1817801Y-910174D01*
X1817801Y-910174D02*
X1798753Y-919698D01*
X1798753Y-919698D02*
X1789229Y-929222D01*
X1789229Y-929222D02*
X1779706Y-948269D01*
X2074944Y-833984D02*
X1979706Y-833984D01*
X1979706Y-833984D02*
X1970182Y-929222D01*
X1970182Y-929222D02*
X1979706Y-919698D01*
X1979706Y-919698D02*
X1998753Y-910174D01*
X1998753Y-910174D02*
X2046372Y-910174D01*
X2046372Y-910174D02*
X2065420Y-919698D01*
X2065420Y-919698D02*
X2074944Y-929222D01*
X2074944Y-929222D02*
X2084467Y-948269D01*
X2084467Y-948269D02*
X2084467Y-995888D01*
X2084467Y-995888D02*
X2074944Y-1014936D01*
X2074944Y-1014936D02*
X2065420Y-1024460D01*
X2065420Y-1024460D02*
X2046372Y-1033984D01*
X2046372Y-1033984D02*
X1998753Y-1033984D01*
X1998753Y-1033984D02*
X1979706Y-1024460D01*
X1979706Y-1024460D02*
X1970182Y-1014936D01*
X2255896Y-900650D02*
X2255896Y-1033984D01*
X2208277Y-824460D02*
X2160658Y-967317D01*
X2160658Y-967317D02*
X2284468Y-967317D01*
X2351134Y-833984D02*
X2351134Y-872079D01*
X2427325Y-833984D02*
X2427325Y-872079D01*
X2722563Y-1110174D02*
X2713039Y-1100650D01*
X2713039Y-1100650D02*
X2693991Y-1072079D01*
X2693991Y-1072079D02*
X2684468Y-1053031D01*
X2684468Y-1053031D02*
X2674944Y-1024460D01*
X2674944Y-1024460D02*
X2665420Y-976841D01*
X2665420Y-976841D02*
X2665420Y-938746D01*
X2665420Y-938746D02*
X2674944Y-891127D01*
X2674944Y-891127D02*
X2684468Y-862555D01*
X2684468Y-862555D02*
X2693991Y-843508D01*
X2693991Y-843508D02*
X2713039Y-814936D01*
X2713039Y-814936D02*
X2722563Y-805412D01*
X2884468Y-900650D02*
X2884468Y-1033984D01*
X2836848Y-824460D02*
X2789230Y-967317D01*
X2789230Y-967317D02*
X2913039Y-967317D01*
X3141610Y-1033984D02*
X3141610Y-833984D01*
X3227325Y-1033984D02*
X3227325Y-929222D01*
X3227325Y-929222D02*
X3217801Y-910174D01*
X3217801Y-910174D02*
X3198753Y-900650D01*
X3198753Y-900650D02*
X3170182Y-900650D01*
X3170182Y-900650D02*
X3151134Y-910174D01*
X3151134Y-910174D02*
X3141610Y-919698D01*
X3351134Y-1033984D02*
X3332087Y-1024460D01*
X3332087Y-1024460D02*
X3322563Y-1014936D01*
X3322563Y-1014936D02*
X3313039Y-995888D01*
X3313039Y-995888D02*
X3313039Y-938746D01*
X3313039Y-938746D02*
X3322563Y-919698D01*
X3322563Y-919698D02*
X3332087Y-910174D01*
X3332087Y-910174D02*
X3351134Y-900650D01*
X3351134Y-900650D02*
X3379706Y-900650D01*
X3379706Y-900650D02*
X3398753Y-910174D01*
X3398753Y-910174D02*
X3408277Y-919698D01*
X3408277Y-919698D02*
X3417801Y-938746D01*
X3417801Y-938746D02*
X3417801Y-995888D01*
X3417801Y-995888D02*
X3408277Y-1014936D01*
X3408277Y-1014936D02*
X3398753Y-1024460D01*
X3398753Y-1024460D02*
X3379706Y-1033984D01*
X3379706Y-1033984D02*
X3351134Y-1033984D01*
X3532087Y-1033984D02*
X3513039Y-1024460D01*
X3513039Y-1024460D02*
X3503515Y-1005412D01*
X3503515Y-1005412D02*
X3503515Y-833984D01*
X3684468Y-1024460D02*
X3665420Y-1033984D01*
X3665420Y-1033984D02*
X3627325Y-1033984D01*
X3627325Y-1033984D02*
X3608277Y-1024460D01*
X3608277Y-1024460D02*
X3598753Y-1005412D01*
X3598753Y-1005412D02*
X3598753Y-929222D01*
X3598753Y-929222D02*
X3608277Y-910174D01*
X3608277Y-910174D02*
X3627325Y-900650D01*
X3627325Y-900650D02*
X3665420Y-900650D01*
X3665420Y-900650D02*
X3684468Y-910174D01*
X3684468Y-910174D02*
X3693991Y-929222D01*
X3693991Y-929222D02*
X3693991Y-948269D01*
X3693991Y-948269D02*
X3598753Y-967317D01*
X3770182Y-1024460D02*
X3789230Y-1033984D01*
X3789230Y-1033984D02*
X3827325Y-1033984D01*
X3827325Y-1033984D02*
X3846372Y-1024460D01*
X3846372Y-1024460D02*
X3855896Y-1005412D01*
X3855896Y-1005412D02*
X3855896Y-995888D01*
X3855896Y-995888D02*
X3846372Y-976841D01*
X3846372Y-976841D02*
X3827325Y-967317D01*
X3827325Y-967317D02*
X3798753Y-967317D01*
X3798753Y-967317D02*
X3779706Y-957793D01*
X3779706Y-957793D02*
X3770182Y-938746D01*
X3770182Y-938746D02*
X3770182Y-929222D01*
X3770182Y-929222D02*
X3779706Y-910174D01*
X3779706Y-910174D02*
X3798753Y-900650D01*
X3798753Y-900650D02*
X3827325Y-900650D01*
X3827325Y-900650D02*
X3846372Y-910174D01*
X3922563Y-1110174D02*
X3932087Y-1100650D01*
X3932087Y-1100650D02*
X3951134Y-1072079D01*
X3951134Y-1072079D02*
X3960658Y-1053031D01*
X3960658Y-1053031D02*
X3970182Y-1024460D01*
X3970182Y-1024460D02*
X3979706Y-976841D01*
X3979706Y-976841D02*
X3979706Y-938746D01*
X3979706Y-938746D02*
X3970182Y-891127D01*
X3970182Y-891127D02*
X3960658Y-862555D01*
X3960658Y-862555D02*
X3951134Y-843508D01*
X3951134Y-843508D02*
X3932087Y-814936D01*
X3932087Y-814936D02*
X3922563Y-805412D01*
X4284468Y-1110174D02*
X4274944Y-1100650D01*
X4274944Y-1100650D02*
X4255896Y-1072079D01*
X4255896Y-1072079D02*
X4246373Y-1053031D01*
X4246373Y-1053031D02*
X4236849Y-1024460D01*
X4236849Y-1024460D02*
X4227325Y-976841D01*
X4227325Y-976841D02*
X4227325Y-938746D01*
X4227325Y-938746D02*
X4236849Y-891127D01*
X4236849Y-891127D02*
X4246373Y-862555D01*
X4246373Y-862555D02*
X4255896Y-843508D01*
X4255896Y-843508D02*
X4274944Y-814936D01*
X4274944Y-814936D02*
X4284468Y-805412D01*
X4360658Y-900650D02*
X4360658Y-1033984D01*
X4360658Y-919698D02*
X4370182Y-910174D01*
X4370182Y-910174D02*
X4389230Y-900650D01*
X4389230Y-900650D02*
X4417801Y-900650D01*
X4417801Y-900650D02*
X4436849Y-910174D01*
X4436849Y-910174D02*
X4446373Y-929222D01*
X4446373Y-929222D02*
X4446373Y-1033984D01*
X4570182Y-1033984D02*
X4551134Y-1024460D01*
X4551134Y-1024460D02*
X4541611Y-1014936D01*
X4541611Y-1014936D02*
X4532087Y-995888D01*
X4532087Y-995888D02*
X4532087Y-938746D01*
X4532087Y-938746D02*
X4541611Y-919698D01*
X4541611Y-919698D02*
X4551134Y-910174D01*
X4551134Y-910174D02*
X4570182Y-900650D01*
X4570182Y-900650D02*
X4598754Y-900650D01*
X4598754Y-900650D02*
X4617801Y-910174D01*
X4617801Y-910174D02*
X4627325Y-919698D01*
X4627325Y-919698D02*
X4636849Y-938746D01*
X4636849Y-938746D02*
X4636849Y-995888D01*
X4636849Y-995888D02*
X4627325Y-1014936D01*
X4627325Y-1014936D02*
X4617801Y-1024460D01*
X4617801Y-1024460D02*
X4598754Y-1033984D01*
X4598754Y-1033984D02*
X4570182Y-1033984D01*
X4693992Y-900650D02*
X4770182Y-900650D01*
X4722563Y-833984D02*
X4722563Y-1005412D01*
X4722563Y-1005412D02*
X4732087Y-1024460D01*
X4732087Y-1024460D02*
X4751134Y-1033984D01*
X4751134Y-1033984D02*
X4770182Y-1033984D01*
X4989230Y-900650D02*
X4989230Y-1100650D01*
X4989230Y-910174D02*
X5008277Y-900650D01*
X5008277Y-900650D02*
X5046373Y-900650D01*
X5046373Y-900650D02*
X5065420Y-910174D01*
X5065420Y-910174D02*
X5074944Y-919698D01*
X5074944Y-919698D02*
X5084468Y-938746D01*
X5084468Y-938746D02*
X5084468Y-995888D01*
X5084468Y-995888D02*
X5074944Y-1014936D01*
X5074944Y-1014936D02*
X5065420Y-1024460D01*
X5065420Y-1024460D02*
X5046373Y-1033984D01*
X5046373Y-1033984D02*
X5008277Y-1033984D01*
X5008277Y-1033984D02*
X4989230Y-1024460D01*
X5198754Y-1033984D02*
X5179706Y-1024460D01*
X5179706Y-1024460D02*
X5170182Y-1005412D01*
X5170182Y-1005412D02*
X5170182Y-833984D01*
X5360658Y-1033984D02*
X5360658Y-929222D01*
X5360658Y-929222D02*
X5351135Y-910174D01*
X5351135Y-910174D02*
X5332087Y-900650D01*
X5332087Y-900650D02*
X5293992Y-900650D01*
X5293992Y-900650D02*
X5274944Y-910174D01*
X5360658Y-1024460D02*
X5341611Y-1033984D01*
X5341611Y-1033984D02*
X5293992Y-1033984D01*
X5293992Y-1033984D02*
X5274944Y-1024460D01*
X5274944Y-1024460D02*
X5265420Y-1005412D01*
X5265420Y-1005412D02*
X5265420Y-986365D01*
X5265420Y-986365D02*
X5274944Y-967317D01*
X5274944Y-967317D02*
X5293992Y-957793D01*
X5293992Y-957793D02*
X5341611Y-957793D01*
X5341611Y-957793D02*
X5360658Y-948269D01*
X5427325Y-900650D02*
X5503515Y-900650D01*
X5455896Y-833984D02*
X5455896Y-1005412D01*
X5455896Y-1005412D02*
X5465420Y-1024460D01*
X5465420Y-1024460D02*
X5484468Y-1033984D01*
X5484468Y-1033984D02*
X5503515Y-1033984D01*
X5646373Y-1024460D02*
X5627325Y-1033984D01*
X5627325Y-1033984D02*
X5589230Y-1033984D01*
X5589230Y-1033984D02*
X5570182Y-1024460D01*
X5570182Y-1024460D02*
X5560658Y-1005412D01*
X5560658Y-1005412D02*
X5560658Y-929222D01*
X5560658Y-929222D02*
X5570182Y-910174D01*
X5570182Y-910174D02*
X5589230Y-900650D01*
X5589230Y-900650D02*
X5627325Y-900650D01*
X5627325Y-900650D02*
X5646373Y-910174D01*
X5646373Y-910174D02*
X5655896Y-929222D01*
X5655896Y-929222D02*
X5655896Y-948269D01*
X5655896Y-948269D02*
X5560658Y-967317D01*
X5827325Y-1033984D02*
X5827325Y-833984D01*
X5827325Y-1024460D02*
X5808277Y-1033984D01*
X5808277Y-1033984D02*
X5770182Y-1033984D01*
X5770182Y-1033984D02*
X5751134Y-1024460D01*
X5751134Y-1024460D02*
X5741611Y-1014936D01*
X5741611Y-1014936D02*
X5732087Y-995888D01*
X5732087Y-995888D02*
X5732087Y-938746D01*
X5732087Y-938746D02*
X5741611Y-919698D01*
X5741611Y-919698D02*
X5751134Y-910174D01*
X5751134Y-910174D02*
X5770182Y-900650D01*
X5770182Y-900650D02*
X5808277Y-900650D01*
X5808277Y-900650D02*
X5827325Y-910174D01*
X5903515Y-1110174D02*
X5913039Y-1100650D01*
X5913039Y-1100650D02*
X5932087Y-1072079D01*
X5932087Y-1072079D02*
X5941611Y-1053031D01*
X5941611Y-1053031D02*
X5951134Y-1024460D01*
X5951134Y-1024460D02*
X5960658Y-976841D01*
X5960658Y-976841D02*
X5960658Y-938746D01*
X5960658Y-938746D02*
X5951134Y-891127D01*
X5951134Y-891127D02*
X5941611Y-862555D01*
X5941611Y-862555D02*
X5932087Y-843508D01*
X5932087Y-843508D02*
X5913039Y-814936D01*
X5913039Y-814936D02*
X5903515Y-805412D01*
M02*
