%TF.GenerationSoftware,KiCad,Pcbnew,8.0.1*%
%TF.CreationDate,2025-05-08T07:16:34+02:00*%
%TF.ProjectId,prj-gardmer-mb-v2,70726a2d-6761-4726-946d-65722d6d622d,rev?*%
%TF.SameCoordinates,PX4fa1be0PY7872f60*%
%TF.FileFunction,Soldermask,Top*%
%TF.FilePolarity,Negative*%
%FSLAX46Y46*%
G04 Gerber Fmt 4.6, Leading zero omitted, Abs format (unit mm)*
G04 Created by KiCad (PCBNEW 8.0.1) date 2025-05-08 07:16:34*
%MOMM*%
%LPD*%
G01*
G04 APERTURE LIST*
G04 Aperture macros list*
%AMRoundRect*
0 Rectangle with rounded corners*
0 $1 Rounding radius*
0 $2 $3 $4 $5 $6 $7 $8 $9 X,Y pos of 4 corners*
0 Add a 4 corners polygon primitive as box body*
4,1,4,$2,$3,$4,$5,$6,$7,$8,$9,$2,$3,0*
0 Add four circle primitives for the rounded corners*
1,1,$1+$1,$2,$3*
1,1,$1+$1,$4,$5*
1,1,$1+$1,$6,$7*
1,1,$1+$1,$8,$9*
0 Add four rect primitives between the rounded corners*
20,1,$1+$1,$2,$3,$4,$5,0*
20,1,$1+$1,$4,$5,$6,$7,0*
20,1,$1+$1,$6,$7,$8,$9,0*
20,1,$1+$1,$8,$9,$2,$3,0*%
G04 Aperture macros list end*
%ADD10RoundRect,0.200000X0.562500X0.200000X-0.562500X0.200000X-0.562500X-0.200000X0.562500X-0.200000X0*%
%ADD11RoundRect,0.292553X-0.394947X-0.532447X0.394947X-0.532447X0.394947X0.532447X-0.394947X0.532447X0*%
%ADD12RoundRect,0.100000X1.500000X0.400000X-1.500000X0.400000X-1.500000X-0.400000X1.500000X-0.400000X0*%
%ADD13RoundRect,0.292553X0.394947X0.532447X-0.394947X0.532447X-0.394947X-0.532447X0.394947X-0.532447X0*%
%ADD14C,2.200000*%
%ADD15RoundRect,0.292553X-0.532447X0.394947X-0.532447X-0.394947X0.532447X-0.394947X0.532447X0.394947X0*%
%ADD16RoundRect,0.274038X1.625962X-0.865962X1.625962X0.865962X-1.625962X0.865962X-1.625962X-0.865962X0*%
%ADD17O,3.800000X2.280000*%
%ADD18C,2.400000*%
%ADD19RoundRect,0.200000X-0.200000X0.562500X-0.200000X-0.562500X0.200000X-0.562500X0.200000X0.562500X0*%
%ADD20RoundRect,0.292553X0.532447X-0.394947X0.532447X0.394947X-0.532447X0.394947X-0.532447X-0.394947X0*%
%ADD21C,1.800000*%
%ADD22RoundRect,0.100000X-0.850000X-0.850000X0.850000X-0.850000X0.850000X0.850000X-0.850000X0.850000X0*%
%ADD23O,1.900000X1.900000*%
%ADD24C,1.700000*%
%ADD25RoundRect,0.287735X0.712265X-0.474765X0.712265X0.474765X-0.712265X0.474765X-0.712265X-0.474765X0*%
%ADD26RoundRect,0.200000X-0.562500X-0.200000X0.562500X-0.200000X0.562500X0.200000X-0.562500X0.200000X0*%
%ADD27RoundRect,0.200000X-0.200000X0.775000X-0.200000X-0.775000X0.200000X-0.775000X0.200000X0.775000X0*%
%ADD28C,4.400000*%
%ADD29RoundRect,0.200000X-0.200000X0.925000X-0.200000X-0.925000X0.200000X-0.925000X0.200000X0.925000X0*%
%ADD30C,2.100000*%
%ADD31RoundRect,0.293478X-0.381522X-0.506522X0.381522X-0.506522X0.381522X0.506522X-0.381522X0.506522X0*%
%ADD32C,1.900000*%
%ADD33RoundRect,0.293478X0.381522X0.506522X-0.381522X0.506522X-0.381522X-0.506522X0.381522X-0.506522X0*%
%ADD34C,2.700000*%
%ADD35RoundRect,0.200000X-0.775000X-0.200000X0.775000X-0.200000X0.775000X0.200000X-0.775000X0.200000X0*%
%ADD36RoundRect,0.200000X0.775000X0.200000X-0.775000X0.200000X-0.775000X-0.200000X0.775000X-0.200000X0*%
%ADD37C,2.000000*%
%ADD38C,1.200000*%
G04 APERTURE END LIST*
D10*
%TO.C,Q14*%
X14275000Y17550000D03*
X12000000Y18500000D03*
X14275000Y19450000D03*
%TD*%
D11*
%TO.C,R52*%
X16250000Y17200000D03*
X18325000Y17200000D03*
%TD*%
D12*
%TO.C,SW10*%
X1300000Y12900000D03*
X1300000Y15400000D03*
X1300000Y17900000D03*
X-4200000Y17900000D03*
X-4200000Y15400000D03*
X-4200000Y12900000D03*
%TD*%
D11*
%TO.C,R27*%
X37925000Y11500000D03*
X40000000Y11500000D03*
%TD*%
D13*
%TO.C,R21*%
X96475000Y63500000D03*
X94400000Y63500000D03*
%TD*%
D11*
%TO.C,R60*%
X87800000Y31550000D03*
X89875000Y31550000D03*
%TD*%
D14*
%TO.C,SW5*%
X64600000Y40400000D03*
X71100000Y40400000D03*
X64600000Y35900000D03*
X71100000Y35900000D03*
%TD*%
D15*
%TO.C,C10*%
X30037500Y35637500D03*
X30037500Y33562500D03*
%TD*%
D13*
%TO.C,R74*%
X33825000Y3900000D03*
X31750000Y3900000D03*
%TD*%
%TO.C,R62*%
X89887500Y33750000D03*
X87812500Y33750000D03*
%TD*%
D15*
%TO.C,R56*%
X7300000Y58112500D03*
X7300000Y56037500D03*
%TD*%
D11*
%TO.C,C17*%
X43362500Y15700000D03*
X45437500Y15700000D03*
%TD*%
D14*
%TO.C,SW7*%
X21500000Y24200000D03*
X21500000Y30700000D03*
X26000000Y24200000D03*
X26000000Y30700000D03*
%TD*%
D16*
%TO.C,J2*%
X134500000Y29450000D03*
D17*
X134500000Y34530000D03*
%TD*%
D15*
%TO.C,C7*%
X60550000Y32050000D03*
X60550000Y29975000D03*
%TD*%
D11*
%TO.C,C1*%
X86950000Y37200000D03*
X89025000Y37200000D03*
%TD*%
D18*
%TO.C,K4*%
X100500000Y60300000D03*
X95800000Y60300000D03*
X95800000Y48800000D03*
X95800000Y41800000D03*
%TD*%
D13*
%TO.C,R31*%
X33287500Y11500000D03*
X31212500Y11500000D03*
%TD*%
D19*
%TO.C,Q9*%
X5100000Y58375000D03*
X4150000Y56100000D03*
X3200000Y58375000D03*
%TD*%
D20*
%TO.C,R8*%
X67871962Y29975000D03*
X67871962Y32050000D03*
%TD*%
D21*
%TO.C,BT1*%
X14394371Y28122127D03*
X-1402505Y26471765D03*
X5048585Y40985497D03*
D14*
X-1905712Y42731279D03*
X9526712Y26995898D03*
%TD*%
D20*
%TO.C,R59*%
X91300000Y15162500D03*
X91300000Y17237500D03*
%TD*%
D22*
%TO.C,J1*%
X93100000Y34130000D03*
D23*
X93100000Y31590000D03*
X93100000Y29050000D03*
X93100000Y26510000D03*
X93100000Y23970000D03*
%TD*%
D13*
%TO.C,R71*%
X34175000Y33500000D03*
X32100000Y33500000D03*
%TD*%
D24*
%TO.C,Y1*%
X80600000Y24150000D03*
X75720000Y24150000D03*
%TD*%
D25*
%TO.C,C18*%
X94000000Y7137500D03*
X94000000Y10262500D03*
%TD*%
D18*
%TO.C,K3*%
X109000000Y60300000D03*
X104300000Y60300000D03*
X104300000Y48800000D03*
X104300000Y41800000D03*
%TD*%
D13*
%TO.C,R50*%
X10037500Y13000000D03*
X7962500Y13000000D03*
%TD*%
D15*
%TO.C,C12*%
X29800000Y15737500D03*
X29800000Y13662500D03*
%TD*%
D13*
%TO.C,R28*%
X33512500Y41200000D03*
X31437500Y41200000D03*
%TD*%
D14*
%TO.C,SW4*%
X45200000Y40400000D03*
X51700000Y40400000D03*
X45200000Y35900000D03*
X51700000Y35900000D03*
%TD*%
D26*
%TO.C,Q1*%
X116400000Y65150000D03*
X118675000Y64200000D03*
X116400000Y63250000D03*
%TD*%
D27*
%TO.C,U4*%
X64310000Y23950000D03*
X63040000Y23950000D03*
X61770000Y23950000D03*
X60500000Y23950000D03*
X59230000Y23950000D03*
X57960000Y23950000D03*
X56690000Y23950000D03*
X55420000Y23950000D03*
X55420000Y18800000D03*
X56690000Y18800000D03*
X57960000Y18800000D03*
X59230000Y18800000D03*
X60500000Y18800000D03*
X61770000Y18800000D03*
X63040000Y18800000D03*
X64310000Y18800000D03*
%TD*%
D18*
%TO.C,RV1*%
X127200000Y33100000D03*
X124850000Y23100000D03*
%TD*%
D13*
%TO.C,R12*%
X33800000Y6000000D03*
X31725000Y6000000D03*
%TD*%
%TO.C,R19*%
X105500000Y63500000D03*
X103425000Y63500000D03*
%TD*%
D28*
%TO.C,MH3*%
X4000000Y3500000D03*
%TD*%
D13*
%TO.C,R29*%
X33512500Y31300000D03*
X31437500Y31300000D03*
%TD*%
D11*
%TO.C,R51*%
X16300000Y19300000D03*
X18375000Y19300000D03*
%TD*%
D15*
%TO.C,C13*%
X29787500Y6037500D03*
X29787500Y3962500D03*
%TD*%
D29*
%TO.C,U1*%
X88605000Y16750000D03*
X87335000Y16750000D03*
X86065000Y16750000D03*
X84795000Y16750000D03*
X83525000Y16750000D03*
X82255000Y16750000D03*
X80985000Y16750000D03*
X79715000Y16750000D03*
X78445000Y16750000D03*
X77175000Y16750000D03*
X75905000Y16750000D03*
X74635000Y16750000D03*
X73365000Y16750000D03*
X72095000Y16750000D03*
X72095000Y7450000D03*
X73365000Y7450000D03*
X74635000Y7450000D03*
X75905000Y7450000D03*
X77175000Y7450000D03*
X78445000Y7450000D03*
X79715000Y7450000D03*
X80985000Y7450000D03*
X82255000Y7450000D03*
X83525000Y7450000D03*
X84795000Y7450000D03*
X86065000Y7450000D03*
X87335000Y7450000D03*
X88605000Y7450000D03*
%TD*%
D20*
%TO.C,R7*%
X48250000Y29975000D03*
X48250000Y32050000D03*
%TD*%
D13*
%TO.C,R11*%
X33900000Y15800000D03*
X31825000Y15800000D03*
%TD*%
D26*
%TO.C,Q2*%
X107425000Y65150000D03*
X109700000Y64200000D03*
X107425000Y63250000D03*
%TD*%
D11*
%TO.C,R22*%
X86800000Y59600000D03*
X88875000Y59600000D03*
%TD*%
%TO.C,R63*%
X87762500Y27250000D03*
X89837500Y27250000D03*
%TD*%
D30*
%TO.C,BZ1*%
X5000000Y46500000D03*
X5000000Y51500000D03*
%TD*%
D13*
%TO.C,R1*%
X88987500Y39350000D03*
X86912500Y39350000D03*
%TD*%
%TO.C,R10*%
X34037500Y25700000D03*
X31962500Y25700000D03*
%TD*%
D15*
%TO.C,R13*%
X42900000Y31037500D03*
X42900000Y28962500D03*
%TD*%
D11*
%TO.C,R20*%
X94400000Y65600000D03*
X96475000Y65600000D03*
%TD*%
D14*
%TO.C,SW9*%
X21450000Y4800000D03*
X21450000Y11300000D03*
X25950000Y4800000D03*
X25950000Y11300000D03*
%TD*%
D20*
%TO.C,R6*%
X58350000Y29975000D03*
X58350000Y32050000D03*
%TD*%
D11*
%TO.C,R24*%
X38137500Y41200000D03*
X40212500Y41200000D03*
%TD*%
%TO.C,R48*%
X16262500Y10500000D03*
X18337500Y10500000D03*
%TD*%
D13*
%TO.C,R66*%
X14037500Y7807500D03*
X11962500Y7807500D03*
%TD*%
D15*
%TO.C,C9*%
X69950000Y32050898D03*
X69950000Y29975898D03*
%TD*%
D18*
%TO.C,K2*%
X117500000Y60300000D03*
X112800000Y60300000D03*
X112800000Y48800000D03*
X112800000Y41800000D03*
%TD*%
D13*
%TO.C,R57*%
X5187500Y60537500D03*
X3112500Y60537500D03*
%TD*%
%TO.C,R73*%
X33900000Y13700000D03*
X31825000Y13700000D03*
%TD*%
D15*
%TO.C,C8*%
X50450000Y32050000D03*
X50450000Y29975000D03*
%TD*%
D26*
%TO.C,Q3*%
X98400000Y65150000D03*
X100675000Y64200000D03*
X98400000Y63250000D03*
%TD*%
D13*
%TO.C,R58*%
X77137500Y4300000D03*
X75062500Y4300000D03*
%TD*%
D26*
%TO.C,Q4*%
X90800000Y59200000D03*
X93075000Y58250000D03*
X90800000Y57300000D03*
%TD*%
D28*
%TO.C,MH2*%
X125900000Y67500000D03*
%TD*%
D31*
%TO.C,D5*%
X38150000Y39100000D03*
X40200000Y39100000D03*
%TD*%
D11*
%TO.C,R26*%
X37962500Y21400000D03*
X40037500Y21400000D03*
%TD*%
D20*
%TO.C,C15*%
X67200000Y14662500D03*
X67200000Y16737500D03*
%TD*%
D18*
%TO.C,K1*%
X126000000Y60300000D03*
X121300000Y60300000D03*
X121300000Y48800000D03*
X121300000Y41800000D03*
%TD*%
D32*
%TO.C,U7*%
X40100000Y45956000D03*
X42640000Y45956000D03*
X45180000Y45956000D03*
X47720000Y45956000D03*
X50260000Y45956000D03*
X52800000Y45956000D03*
X52800000Y67800000D03*
X50260000Y67800000D03*
X47720000Y67800000D03*
X45180000Y67800000D03*
X42640000Y67800000D03*
X40100000Y67800000D03*
%TD*%
D33*
%TO.C,D9*%
X33500000Y39100000D03*
X31450000Y39100000D03*
%TD*%
D13*
%TO.C,R23*%
X88875000Y57500000D03*
X86800000Y57500000D03*
%TD*%
D33*
%TO.C,D12*%
X33275000Y9400000D03*
X31225000Y9400000D03*
%TD*%
D31*
%TO.C,D7*%
X37975000Y19300000D03*
X40025000Y19300000D03*
%TD*%
D16*
%TO.C,J3*%
X134500000Y42850000D03*
D17*
X134500000Y47930000D03*
X134500000Y53010000D03*
X134500000Y58090000D03*
%TD*%
D13*
%TO.C,R9*%
X34175000Y35600000D03*
X32100000Y35600000D03*
%TD*%
D34*
%TO.C,J4*%
X134500000Y18700000D03*
X134500000Y22500000D03*
%TD*%
D14*
%TO.C,SW2*%
X74300000Y40400000D03*
X80800000Y40400000D03*
X74300000Y35900000D03*
X80800000Y35900000D03*
%TD*%
D13*
%TO.C,R72*%
X34037500Y23600000D03*
X31962500Y23600000D03*
%TD*%
D31*
%TO.C,D8*%
X37912500Y9400000D03*
X39962500Y9400000D03*
%TD*%
D13*
%TO.C,R15*%
X14037500Y3700000D03*
X11962500Y3700000D03*
%TD*%
D33*
%TO.C,D14*%
X10125000Y17000000D03*
X8075000Y17000000D03*
%TD*%
D35*
%TO.C,U5*%
X61100000Y12870000D03*
X61100000Y11600000D03*
X61100000Y10330000D03*
X61100000Y9060000D03*
X61100000Y7790000D03*
X61100000Y6520000D03*
X61100000Y5250000D03*
X61100000Y3980000D03*
X66250000Y3980000D03*
X66250000Y5250000D03*
X66250000Y6520000D03*
X66250000Y7790000D03*
X66250000Y9060000D03*
X66250000Y10330000D03*
X66250000Y11600000D03*
X66250000Y12870000D03*
%TD*%
D11*
%TO.C,R49*%
X16262500Y12600000D03*
X18337500Y12600000D03*
%TD*%
D13*
%TO.C,R2*%
X88987500Y41450000D03*
X86912500Y41450000D03*
%TD*%
D33*
%TO.C,D10*%
X33500000Y29200000D03*
X31450000Y29200000D03*
%TD*%
D20*
%TO.C,R68*%
X56250000Y29975000D03*
X56250000Y32050000D03*
%TD*%
D14*
%TO.C,SW8*%
X21450000Y14500000D03*
X21450000Y21000000D03*
X25950000Y14500000D03*
X25950000Y21000000D03*
%TD*%
D20*
%TO.C,R69*%
X46050000Y29975000D03*
X46050000Y32050000D03*
%TD*%
D10*
%TO.C,Q13*%
X14237500Y13150000D03*
X11962500Y14100000D03*
X14237500Y15050000D03*
%TD*%
D20*
%TO.C,R5*%
X77450000Y29950000D03*
X77450000Y32025000D03*
%TD*%
D15*
%TO.C,C14*%
X42800000Y13775000D03*
X42800000Y11700000D03*
%TD*%
D14*
%TO.C,SW3*%
X54900000Y40400000D03*
X61400000Y40400000D03*
X54900000Y35900000D03*
X61400000Y35900000D03*
%TD*%
D28*
%TO.C,MH4*%
X125900000Y3500000D03*
%TD*%
D20*
%TO.C,C16*%
X66600000Y19862500D03*
X66600000Y21937500D03*
%TD*%
D36*
%TO.C,U6*%
X55350000Y2320000D03*
X55350000Y3590000D03*
X55350000Y4860000D03*
X55350000Y6130000D03*
X55350000Y7400000D03*
X55350000Y8670000D03*
X55350000Y9940000D03*
X55350000Y11210000D03*
X55350000Y12480000D03*
X45800000Y12480000D03*
X45800000Y11210000D03*
X45800000Y9940000D03*
X45800000Y8670000D03*
X45800000Y7400000D03*
X45800000Y6130000D03*
X45800000Y4860000D03*
X45800000Y3590000D03*
X45800000Y2320000D03*
%TD*%
D14*
%TO.C,SW1*%
X85050000Y45450000D03*
X85050000Y51950000D03*
X89550000Y45450000D03*
X89550000Y51950000D03*
%TD*%
D33*
%TO.C,D13*%
X10025000Y10900000D03*
X7975000Y10900000D03*
%TD*%
D13*
%TO.C,R14*%
X49437500Y15700000D03*
X47362500Y15700000D03*
%TD*%
D37*
%TO.C,PS1*%
X99300000Y34500000D03*
X99300000Y29400000D03*
X117000000Y9100000D03*
X117000000Y4000000D03*
X99300000Y4000000D03*
%TD*%
D15*
%TO.C,C11*%
X29900000Y25737500D03*
X29900000Y23662500D03*
%TD*%
D20*
%TO.C,C5*%
X91450000Y8012500D03*
X91450000Y10087500D03*
%TD*%
D14*
%TO.C,SW6*%
X21500000Y33900000D03*
X21500000Y40400000D03*
X26000000Y33900000D03*
X26000000Y40400000D03*
%TD*%
D33*
%TO.C,D11*%
X33425000Y19300000D03*
X31375000Y19300000D03*
%TD*%
D11*
%TO.C,R18*%
X103425000Y65600000D03*
X105500000Y65600000D03*
%TD*%
D20*
%TO.C,R67*%
X75350000Y29950000D03*
X75350000Y32025000D03*
%TD*%
D13*
%TO.C,R53*%
X10137500Y19100000D03*
X8062500Y19100000D03*
%TD*%
D11*
%TO.C,C22*%
X11962500Y5762500D03*
X14037500Y5762500D03*
%TD*%
D20*
%TO.C,R70*%
X65771962Y29975000D03*
X65771962Y32050000D03*
%TD*%
D13*
%TO.C,R16*%
X114475000Y63500000D03*
X112400000Y63500000D03*
%TD*%
D28*
%TO.C,MH1*%
X4000000Y67500000D03*
%TD*%
D11*
%TO.C,R25*%
X38187500Y31300000D03*
X40262500Y31300000D03*
%TD*%
%TO.C,R17*%
X112400000Y65600000D03*
X114475000Y65600000D03*
%TD*%
D13*
%TO.C,C3*%
X87337500Y22700000D03*
X85262500Y22700000D03*
%TD*%
D15*
%TO.C,C6*%
X79550000Y32025000D03*
X79550000Y29950000D03*
%TD*%
D36*
%TO.C,U3*%
X49100000Y17660000D03*
X49100000Y18930000D03*
X49100000Y20200000D03*
X49100000Y21470000D03*
X49100000Y22740000D03*
X49100000Y24010000D03*
X49100000Y25280000D03*
X49100000Y26550000D03*
X43950000Y26550000D03*
X43950000Y25280000D03*
X43950000Y24010000D03*
X43950000Y22740000D03*
X43950000Y21470000D03*
X43950000Y20200000D03*
X43950000Y18930000D03*
X43950000Y17660000D03*
%TD*%
D31*
%TO.C,D6*%
X38150000Y29200000D03*
X40200000Y29200000D03*
%TD*%
D13*
%TO.C,R30*%
X33400000Y21400000D03*
X31325000Y21400000D03*
%TD*%
D11*
%TO.C,R61*%
X87762500Y29450000D03*
X89837500Y29450000D03*
%TD*%
%TO.C,C2*%
X68962500Y21850000D03*
X71037500Y21850000D03*
%TD*%
D38*
%TO.C,Y2*%
X17000000Y41800000D03*
X15100000Y41800000D03*
%TD*%
M02*
