%TF.GenerationSoftware,KiCad,Pcbnew,8.0.1*%
%TF.CreationDate,2025-05-08T07:16:34+02:00*%
%TF.ProjectId,prj-gardmer-mb-v2,70726a2d-6761-4726-946d-65722d6d622d,rev?*%
%TF.SameCoordinates,PX4fa1be0PY7872f60*%
%TF.FileFunction,Soldermask,Bot*%
%TF.FilePolarity,Negative*%
%FSLAX46Y46*%
G04 Gerber Fmt 4.6, Leading zero omitted, Abs format (unit mm)*
G04 Created by KiCad (PCBNEW 8.0.1) date 2025-05-08 07:16:34*
%MOMM*%
%LPD*%
G01*
G04 APERTURE LIST*
G04 Aperture macros list*
%AMRoundRect*
0 Rectangle with rounded corners*
0 $1 Rounding radius*
0 $2 $3 $4 $5 $6 $7 $8 $9 X,Y pos of 4 corners*
0 Add a 4 corners polygon primitive as box body*
4,1,4,$2,$3,$4,$5,$6,$7,$8,$9,$2,$3,0*
0 Add four circle primitives for the rounded corners*
1,1,$1+$1,$2,$3*
1,1,$1+$1,$4,$5*
1,1,$1+$1,$6,$7*
1,1,$1+$1,$8,$9*
0 Add four rect primitives between the rounded corners*
20,1,$1+$1,$2,$3,$4,$5,0*
20,1,$1+$1,$4,$5,$6,$7,0*
20,1,$1+$1,$6,$7,$8,$9,0*
20,1,$1+$1,$8,$9,$2,$3,0*%
%AMFreePoly0*
4,1,38,0.608779,0.830902,0.645106,0.780902,0.650000,0.750000,0.650000,-0.750000,0.630902,-0.808779,0.580902,-0.845106,0.550000,-0.850000,0.000000,-0.850000,-0.015663,-0.844911,-0.071157,-0.844911,-0.099330,-0.840860,-0.235881,-0.800765,-0.261772,-0.788941,-0.381494,-0.712000,-0.403005,-0.693361,-0.496202,-0.585806,-0.511590,-0.561861,-0.570709,-0.432407,-0.578728,-0.405098,-0.598982,-0.264232,
-0.600000,-0.250000,-0.600000,0.250000,-0.598982,0.264232,-0.578728,0.405098,-0.570709,0.432407,-0.511590,0.561861,-0.496202,0.585806,-0.403005,0.693361,-0.381494,0.712000,-0.261772,0.788941,-0.235881,0.800765,-0.099330,0.840860,-0.071157,0.844911,-0.031170,0.844911,-0.030902,0.845106,0.000000,0.850000,0.550000,0.850000,0.608779,0.830902,0.608779,0.830902,$1*%
%AMFreePoly1*
4,1,38,0.015663,0.844911,0.071157,0.844911,0.099330,0.840860,0.235881,0.800765,0.261772,0.788941,0.381494,0.712000,0.403005,0.693361,0.496202,0.585806,0.511590,0.561861,0.570709,0.432407,0.578728,0.405098,0.598982,0.264232,0.600000,0.250000,0.600000,-0.250000,0.598982,-0.264232,0.578728,-0.405098,0.570709,-0.432407,0.511590,-0.561861,0.496202,-0.585806,0.403005,-0.693361,
0.381494,-0.712000,0.261772,-0.788941,0.235881,-0.800765,0.099330,-0.840860,0.071157,-0.844911,0.031170,-0.844911,0.030902,-0.845106,0.000000,-0.850000,-0.550000,-0.850000,-0.608779,-0.830902,-0.645106,-0.780902,-0.650000,-0.750000,-0.650000,0.750000,-0.630902,0.808779,-0.580902,0.845106,-0.550000,0.850000,0.000000,0.850000,0.015663,0.844911,0.015663,0.844911,$1*%
G04 Aperture macros list end*
%ADD10C,2.200000*%
%ADD11RoundRect,0.274038X1.625962X-0.865962X1.625962X0.865962X-1.625962X0.865962X-1.625962X-0.865962X0*%
%ADD12O,3.800000X2.280000*%
%ADD13C,2.400000*%
%ADD14C,1.800000*%
%ADD15RoundRect,0.100000X-0.850000X-0.850000X0.850000X-0.850000X0.850000X0.850000X-0.850000X0.850000X0*%
%ADD16O,1.900000X1.900000*%
%ADD17C,1.700000*%
%ADD18C,4.400000*%
%ADD19C,2.100000*%
%ADD20C,1.900000*%
%ADD21C,2.700000*%
%ADD22C,2.000000*%
%ADD23RoundRect,0.270000X1.080000X1.080000X-1.080000X1.080000X-1.080000X-1.080000X1.080000X-1.080000X0*%
%ADD24RoundRect,0.292553X0.532447X-0.394947X0.532447X0.394947X-0.532447X0.394947X-0.532447X-0.394947X0*%
%ADD25RoundRect,0.200000X0.200000X-0.562500X0.200000X0.562500X-0.200000X0.562500X-0.200000X-0.562500X0*%
%ADD26RoundRect,0.292553X-0.394947X-0.532447X0.394947X-0.532447X0.394947X0.532447X-0.394947X0.532447X0*%
%ADD27FreePoly0,270.000000*%
%ADD28RoundRect,0.100000X-0.750000X0.425000X-0.750000X-0.425000X0.750000X-0.425000X0.750000X0.425000X0*%
%ADD29FreePoly1,270.000000*%
%ADD30RoundRect,0.292553X-0.532447X0.394947X-0.532447X-0.394947X0.532447X-0.394947X0.532447X0.394947X0*%
%ADD31RoundRect,0.200000X0.200000X-0.775000X0.200000X0.775000X-0.200000X0.775000X-0.200000X-0.775000X0*%
%ADD32RoundRect,0.277778X0.722222X-1.322222X0.722222X1.322222X-0.722222X1.322222X-0.722222X-1.322222X0*%
%ADD33RoundRect,0.200000X-0.200000X0.562500X-0.200000X-0.562500X0.200000X-0.562500X0.200000X0.562500X0*%
%ADD34RoundRect,0.287735X0.474765X0.712265X-0.474765X0.712265X-0.474765X-0.712265X0.474765X-0.712265X0*%
%ADD35RoundRect,0.277778X-1.322222X-0.722222X1.322222X-0.722222X1.322222X0.722222X-1.322222X0.722222X0*%
%ADD36RoundRect,0.272222X-1.002778X0.952778X-1.002778X-0.952778X1.002778X-0.952778X1.002778X0.952778X0*%
%ADD37RoundRect,0.277778X-0.722222X1.322222X-0.722222X-1.322222X0.722222X-1.322222X0.722222X1.322222X0*%
%ADD38C,1.200000*%
%ADD39RoundRect,0.362500X-0.737500X0.362500X-0.737500X-0.362500X0.737500X-0.362500X0.737500X0.362500X0*%
%ADD40RoundRect,0.200000X-0.775000X-0.200000X0.775000X-0.200000X0.775000X0.200000X-0.775000X0.200000X0*%
G04 APERTURE END LIST*
D10*
%TO.C,SW5*%
X64600000Y40400000D03*
X71100000Y40400000D03*
X64600000Y35900000D03*
X71100000Y35900000D03*
%TD*%
%TO.C,SW7*%
X21500000Y24200000D03*
X21500000Y30700000D03*
X26000000Y24200000D03*
X26000000Y30700000D03*
%TD*%
D11*
%TO.C,J2*%
X134500000Y29450000D03*
D12*
X134500000Y34530000D03*
%TD*%
D13*
%TO.C,K4*%
X100500000Y60300000D03*
X95800000Y60300000D03*
X95800000Y48800000D03*
X95800000Y41800000D03*
%TD*%
D14*
%TO.C,BT1*%
X14394371Y28122127D03*
X-1402505Y26471765D03*
X5048585Y40985497D03*
D10*
X-1905712Y42731279D03*
X9526712Y26995898D03*
%TD*%
D15*
%TO.C,J1*%
X93100000Y34130000D03*
D16*
X93100000Y31590000D03*
X93100000Y29050000D03*
X93100000Y26510000D03*
X93100000Y23970000D03*
%TD*%
D17*
%TO.C,Y1*%
X80600000Y24150000D03*
X75720000Y24150000D03*
%TD*%
D13*
%TO.C,K3*%
X109000000Y60300000D03*
X104300000Y60300000D03*
X104300000Y48800000D03*
X104300000Y41800000D03*
%TD*%
D10*
%TO.C,SW4*%
X45200000Y40400000D03*
X51700000Y40400000D03*
X45200000Y35900000D03*
X51700000Y35900000D03*
%TD*%
D13*
%TO.C,RV1*%
X127200000Y33100000D03*
X124850000Y23100000D03*
%TD*%
D18*
%TO.C,MH3*%
X4000000Y3500000D03*
%TD*%
D19*
%TO.C,BZ1*%
X5000000Y46500000D03*
X5000000Y51500000D03*
%TD*%
D10*
%TO.C,SW9*%
X21450000Y4800000D03*
X21450000Y11300000D03*
X25950000Y4800000D03*
X25950000Y11300000D03*
%TD*%
D13*
%TO.C,K2*%
X117500000Y60300000D03*
X112800000Y60300000D03*
X112800000Y48800000D03*
X112800000Y41800000D03*
%TD*%
D18*
%TO.C,MH2*%
X125900000Y67500000D03*
%TD*%
D13*
%TO.C,K1*%
X126000000Y60300000D03*
X121300000Y60300000D03*
X121300000Y48800000D03*
X121300000Y41800000D03*
%TD*%
D20*
%TO.C,U7*%
X40100000Y45956000D03*
X42640000Y45956000D03*
X45180000Y45956000D03*
X47720000Y45956000D03*
X50260000Y45956000D03*
X52800000Y45956000D03*
X52800000Y67800000D03*
X50260000Y67800000D03*
X47720000Y67800000D03*
X45180000Y67800000D03*
X42640000Y67800000D03*
X40100000Y67800000D03*
%TD*%
D11*
%TO.C,J3*%
X134500000Y42850000D03*
D12*
X134500000Y47930000D03*
X134500000Y53010000D03*
X134500000Y58090000D03*
%TD*%
D21*
%TO.C,J4*%
X134500000Y18700000D03*
X134500000Y22500000D03*
%TD*%
D10*
%TO.C,SW2*%
X74300000Y40400000D03*
X80800000Y40400000D03*
X74300000Y35900000D03*
X80800000Y35900000D03*
%TD*%
%TO.C,SW8*%
X21450000Y14500000D03*
X21450000Y21000000D03*
X25950000Y14500000D03*
X25950000Y21000000D03*
%TD*%
%TO.C,SW3*%
X54900000Y40400000D03*
X61400000Y40400000D03*
X54900000Y35900000D03*
X61400000Y35900000D03*
%TD*%
D18*
%TO.C,MH4*%
X125900000Y3500000D03*
%TD*%
D10*
%TO.C,SW1*%
X85050000Y45450000D03*
X85050000Y51950000D03*
X89550000Y45450000D03*
X89550000Y51950000D03*
%TD*%
D22*
%TO.C,PS1*%
X99300000Y34500000D03*
X99300000Y29400000D03*
X117000000Y9100000D03*
X117000000Y4000000D03*
X99300000Y4000000D03*
%TD*%
D10*
%TO.C,SW6*%
X21500000Y33900000D03*
X21500000Y40400000D03*
X26000000Y33900000D03*
X26000000Y40400000D03*
%TD*%
D18*
%TO.C,MH1*%
X4000000Y67500000D03*
%TD*%
D23*
%TO.C,TP17*%
X131400000Y47900000D03*
%TD*%
D24*
%TO.C,R40*%
X39900000Y61462500D03*
X39900000Y63537500D03*
%TD*%
D23*
%TO.C,TP3*%
X129300000Y36900000D03*
%TD*%
D24*
%TO.C,R36*%
X30000000Y61500000D03*
X30000000Y63575000D03*
%TD*%
D25*
%TO.C,Q8*%
X51350000Y49962500D03*
X50400000Y52237500D03*
X49450000Y49962500D03*
%TD*%
D24*
%TO.C,R45*%
X42100000Y61462500D03*
X42100000Y63537500D03*
%TD*%
D26*
%TO.C,C19*%
X68262500Y47600000D03*
X70337500Y47600000D03*
%TD*%
D23*
%TO.C,TP5*%
X123700000Y41800000D03*
%TD*%
D27*
%TO.C,JP1*%
X117000000Y14000000D03*
D28*
X117000000Y12700000D03*
D29*
X117000000Y11400000D03*
%TD*%
D23*
%TO.C,TP18*%
X131400000Y42800000D03*
%TD*%
%TO.C,TP7*%
X106700000Y41800000D03*
%TD*%
D30*
%TO.C,R39*%
X55600000Y51975000D03*
X55600000Y49900000D03*
%TD*%
D24*
%TO.C,R55*%
X17200000Y55962500D03*
X17200000Y58037500D03*
%TD*%
%TO.C,R32*%
X32100000Y61500000D03*
X32100000Y63575000D03*
%TD*%
D23*
%TO.C,TP14*%
X98200000Y48800000D03*
%TD*%
D30*
%TO.C,R35*%
X53500000Y51975000D03*
X53500000Y49900000D03*
%TD*%
D31*
%TO.C,U2*%
X17505000Y46625000D03*
X16235000Y46625000D03*
X14965000Y46625000D03*
X13695000Y46625000D03*
X13695000Y51775000D03*
X14965000Y51775000D03*
X16235000Y51775000D03*
X17505000Y51775000D03*
%TD*%
D32*
%TO.C,D15*%
X1500000Y46800000D03*
X1500000Y51400000D03*
%TD*%
D33*
%TO.C,Q5*%
X34400000Y63537500D03*
X35350000Y61262500D03*
X36300000Y63537500D03*
%TD*%
D30*
%TO.C,R3*%
X12900000Y58037500D03*
X12900000Y55962500D03*
%TD*%
D23*
%TO.C,TP4*%
X126700000Y36900000D03*
%TD*%
%TO.C,TP8*%
X98200000Y41800000D03*
%TD*%
%TO.C,TP6*%
X115200000Y41800000D03*
%TD*%
D34*
%TO.C,F1*%
X114562500Y12700000D03*
X111437500Y12700000D03*
%TD*%
D23*
%TO.C,TP12*%
X115200000Y48800000D03*
%TD*%
D30*
%TO.C,R44*%
X36000000Y52075000D03*
X36000000Y50000000D03*
%TD*%
D35*
%TO.C,D1*%
X114500000Y64900000D03*
X119100000Y64900000D03*
%TD*%
D33*
%TO.C,Q7*%
X60350000Y63475000D03*
X61300000Y61200000D03*
X62250000Y63475000D03*
%TD*%
D24*
%TO.C,R41*%
X64300000Y61400000D03*
X64300000Y63475000D03*
%TD*%
D23*
%TO.C,TP15*%
X131400000Y58100000D03*
%TD*%
D35*
%TO.C,D2*%
X104700000Y64900000D03*
X109300000Y64900000D03*
%TD*%
D33*
%TO.C,Q6*%
X50350000Y63500000D03*
X51300000Y61225000D03*
X52250000Y63500000D03*
%TD*%
D24*
%TO.C,R34*%
X58100000Y61500000D03*
X58100000Y63575000D03*
%TD*%
%TO.C,R38*%
X56000000Y61500000D03*
X56000000Y63575000D03*
%TD*%
D30*
%TO.C,C21*%
X100700000Y9437500D03*
X100700000Y7362500D03*
%TD*%
D23*
%TO.C,TP2*%
X131900000Y36900000D03*
%TD*%
D30*
%TO.C,R47*%
X40400000Y52075000D03*
X40400000Y50000000D03*
%TD*%
D35*
%TO.C,D3*%
X94900000Y64900000D03*
X99500000Y64900000D03*
%TD*%
D23*
%TO.C,TP1*%
X134500000Y36900000D03*
%TD*%
D36*
%TO.C,C23*%
X103900000Y9950000D03*
X103900000Y4850000D03*
%TD*%
D24*
%TO.C,R37*%
X46200000Y61462500D03*
X46200000Y63537500D03*
%TD*%
D37*
%TO.C,D4*%
X92100000Y59900000D03*
X92100000Y55300000D03*
%TD*%
D30*
%TO.C,R46*%
X46700000Y52037500D03*
X46700000Y49962500D03*
%TD*%
%TO.C,R43*%
X38200000Y52075000D03*
X38200000Y50000000D03*
%TD*%
D38*
%TO.C,Y2*%
X17000000Y41800000D03*
X15100000Y41800000D03*
%TD*%
D23*
%TO.C,TP13*%
X106700000Y48800000D03*
%TD*%
%TO.C,TP11*%
X123700000Y48800000D03*
%TD*%
%TO.C,TP16*%
X131400000Y52900000D03*
%TD*%
D30*
%TO.C,R42*%
X44600000Y52037500D03*
X44600000Y49962500D03*
%TD*%
D39*
%TO.C,D16*%
X111300000Y10350000D03*
X111300000Y6600000D03*
%TD*%
D24*
%TO.C,C4*%
X19400000Y55962500D03*
X19400000Y58037500D03*
%TD*%
%TO.C,R33*%
X48300000Y61462500D03*
X48300000Y63537500D03*
%TD*%
D30*
%TO.C,R54*%
X15000000Y58037500D03*
X15000000Y55962500D03*
%TD*%
%TO.C,R4*%
X10800000Y58037500D03*
X10800000Y55962500D03*
%TD*%
D40*
%TO.C,U8*%
X63025000Y49655000D03*
X63025000Y50925000D03*
X63025000Y52195000D03*
X63025000Y53465000D03*
X63025000Y54735000D03*
X63025000Y56005000D03*
X63025000Y57275000D03*
X63025000Y58545000D03*
X68175000Y58545000D03*
X68175000Y57275000D03*
X68175000Y56005000D03*
X68175000Y54735000D03*
X68175000Y53465000D03*
X68175000Y52195000D03*
X68175000Y50925000D03*
X68175000Y49655000D03*
%TD*%
D36*
%TO.C,C20*%
X107900000Y9950000D03*
X107900000Y4850000D03*
%TD*%
M02*
