%TF.GenerationSoftware,KiCad,Pcbnew,8.0.1*%
%TF.CreationDate,2025-05-08T07:16:34+02:00*%
%TF.ProjectId,prj-gardmer-mb-v2,70726a2d-6761-4726-946d-65722d6d622d,rev?*%
%TF.SameCoordinates,PX4fa1be0PY7872f60*%
%TF.FileFunction,Legend,Bot*%
%TF.FilePolarity,Positive*%
%FSLAX46Y46*%
G04 Gerber Fmt 4.6, Leading zero omitted, Abs format (unit mm)*
G04 Created by KiCad (PCBNEW 8.0.1) date 2025-05-08 07:16:34*
%MOMM*%
%LPD*%
G01*
G04 APERTURE LIST*
G04 Aperture macros list*
%AMRoundRect*
0 Rectangle with rounded corners*
0 $1 Rounding radius*
0 $2 $3 $4 $5 $6 $7 $8 $9 X,Y pos of 4 corners*
0 Add a 4 corners polygon primitive as box body*
4,1,4,$2,$3,$4,$5,$6,$7,$8,$9,$2,$3,0*
0 Add four circle primitives for the rounded corners*
1,1,$1+$1,$2,$3*
1,1,$1+$1,$4,$5*
1,1,$1+$1,$6,$7*
1,1,$1+$1,$8,$9*
0 Add four rect primitives between the rounded corners*
20,1,$1+$1,$2,$3,$4,$5,0*
20,1,$1+$1,$4,$5,$6,$7,0*
20,1,$1+$1,$6,$7,$8,$9,0*
20,1,$1+$1,$8,$9,$2,$3,0*%
%AMFreePoly0*
4,1,38,0.608779,0.830902,0.645106,0.780902,0.650000,0.750000,0.650000,-0.750000,0.630902,-0.808779,0.580902,-0.845106,0.550000,-0.850000,0.000000,-0.850000,-0.015663,-0.844911,-0.071157,-0.844911,-0.099330,-0.840860,-0.235881,-0.800765,-0.261772,-0.788941,-0.381494,-0.712000,-0.403005,-0.693361,-0.496202,-0.585806,-0.511590,-0.561861,-0.570709,-0.432407,-0.578728,-0.405098,-0.598982,-0.264232,
-0.600000,-0.250000,-0.600000,0.250000,-0.598982,0.264232,-0.578728,0.405098,-0.570709,0.432407,-0.511590,0.561861,-0.496202,0.585806,-0.403005,0.693361,-0.381494,0.712000,-0.261772,0.788941,-0.235881,0.800765,-0.099330,0.840860,-0.071157,0.844911,-0.031170,0.844911,-0.030902,0.845106,0.000000,0.850000,0.550000,0.850000,0.608779,0.830902,0.608779,0.830902,$1*%
%AMFreePoly1*
4,1,38,0.015663,0.844911,0.071157,0.844911,0.099330,0.840860,0.235881,0.800765,0.261772,0.788941,0.381494,0.712000,0.403005,0.693361,0.496202,0.585806,0.511590,0.561861,0.570709,0.432407,0.578728,0.405098,0.598982,0.264232,0.600000,0.250000,0.600000,-0.250000,0.598982,-0.264232,0.578728,-0.405098,0.570709,-0.432407,0.511590,-0.561861,0.496202,-0.585806,0.403005,-0.693361,
0.381494,-0.712000,0.261772,-0.788941,0.235881,-0.800765,0.099330,-0.840860,0.071157,-0.844911,0.031170,-0.844911,0.030902,-0.845106,0.000000,-0.850000,-0.550000,-0.850000,-0.608779,-0.830902,-0.645106,-0.780902,-0.650000,-0.750000,-0.650000,0.750000,-0.630902,0.808779,-0.580902,0.845106,-0.550000,0.850000,0.000000,0.850000,0.015663,0.844911,0.015663,0.844911,$1*%
G04 Aperture macros list end*
%ADD10C,0.250000*%
%ADD11C,0.150000*%
%ADD12C,0.120000*%
%ADD13C,2.200000*%
%ADD14RoundRect,0.274038X1.625962X-0.865962X1.625962X0.865962X-1.625962X0.865962X-1.625962X-0.865962X0*%
%ADD15O,3.800000X2.280000*%
%ADD16C,2.400000*%
%ADD17C,1.800000*%
%ADD18RoundRect,0.100000X-0.850000X-0.850000X0.850000X-0.850000X0.850000X0.850000X-0.850000X0.850000X0*%
%ADD19O,1.900000X1.900000*%
%ADD20C,1.700000*%
%ADD21C,4.400000*%
%ADD22C,2.100000*%
%ADD23C,1.900000*%
%ADD24C,2.700000*%
%ADD25C,2.000000*%
%ADD26RoundRect,0.270000X1.080000X1.080000X-1.080000X1.080000X-1.080000X-1.080000X1.080000X-1.080000X0*%
%ADD27RoundRect,0.292553X0.532447X-0.394947X0.532447X0.394947X-0.532447X0.394947X-0.532447X-0.394947X0*%
%ADD28RoundRect,0.200000X0.200000X-0.562500X0.200000X0.562500X-0.200000X0.562500X-0.200000X-0.562500X0*%
%ADD29RoundRect,0.292553X-0.394947X-0.532447X0.394947X-0.532447X0.394947X0.532447X-0.394947X0.532447X0*%
%ADD30FreePoly0,270.000000*%
%ADD31RoundRect,0.100000X-0.750000X0.425000X-0.750000X-0.425000X0.750000X-0.425000X0.750000X0.425000X0*%
%ADD32FreePoly1,270.000000*%
%ADD33RoundRect,0.292553X-0.532447X0.394947X-0.532447X-0.394947X0.532447X-0.394947X0.532447X0.394947X0*%
%ADD34RoundRect,0.200000X0.200000X-0.775000X0.200000X0.775000X-0.200000X0.775000X-0.200000X-0.775000X0*%
%ADD35RoundRect,0.277778X0.722222X-1.322222X0.722222X1.322222X-0.722222X1.322222X-0.722222X-1.322222X0*%
%ADD36RoundRect,0.200000X-0.200000X0.562500X-0.200000X-0.562500X0.200000X-0.562500X0.200000X0.562500X0*%
%ADD37RoundRect,0.287735X0.474765X0.712265X-0.474765X0.712265X-0.474765X-0.712265X0.474765X-0.712265X0*%
%ADD38RoundRect,0.277778X-1.322222X-0.722222X1.322222X-0.722222X1.322222X0.722222X-1.322222X0.722222X0*%
%ADD39RoundRect,0.272222X-1.002778X0.952778X-1.002778X-0.952778X1.002778X-0.952778X1.002778X0.952778X0*%
%ADD40RoundRect,0.277778X-0.722222X1.322222X-0.722222X-1.322222X0.722222X-1.322222X0.722222X1.322222X0*%
%ADD41C,1.200000*%
%ADD42RoundRect,0.362500X-0.737500X0.362500X-0.737500X-0.362500X0.737500X-0.362500X0.737500X0.362500X0*%
%ADD43RoundRect,0.200000X-0.775000X-0.200000X0.775000X-0.200000X0.775000X0.200000X-0.775000X0.200000X0*%
G04 APERTURE END LIST*
D10*
X95356955Y959858D02*
X95256955Y1759858D01*
X95285527Y1531286D02*
X95214098Y1645572D01*
X95214098Y1645572D02*
X95149812Y1702715D01*
X95149812Y1702715D02*
X95028384Y1759858D01*
X95028384Y1759858D02*
X94914098Y1759858D01*
X94149812Y1017000D02*
X94271241Y959858D01*
X94271241Y959858D02*
X94499812Y959858D01*
X94499812Y959858D02*
X94606955Y1017000D01*
X94606955Y1017000D02*
X94649812Y1131286D01*
X94649812Y1131286D02*
X94592670Y1588429D01*
X94592670Y1588429D02*
X94521241Y1702715D01*
X94521241Y1702715D02*
X94399812Y1759858D01*
X94399812Y1759858D02*
X94171241Y1759858D01*
X94171241Y1759858D02*
X94064098Y1702715D01*
X94064098Y1702715D02*
X94021241Y1588429D01*
X94021241Y1588429D02*
X94035527Y1474143D01*
X94035527Y1474143D02*
X94621241Y1359858D01*
X93599813Y1759858D02*
X93414099Y959858D01*
X93414099Y959858D02*
X93028384Y1759858D01*
X92656955Y1074143D02*
X92606955Y1017000D01*
X92606955Y1017000D02*
X92671241Y959858D01*
X92671241Y959858D02*
X92721241Y1017000D01*
X92721241Y1017000D02*
X92656955Y1074143D01*
X92656955Y1074143D02*
X92671241Y959858D01*
X91721241Y2159858D02*
X91606955Y2159858D01*
X91606955Y2159858D02*
X91499812Y2102715D01*
X91499812Y2102715D02*
X91449812Y2045572D01*
X91449812Y2045572D02*
X91406955Y1931286D01*
X91406955Y1931286D02*
X91378384Y1702715D01*
X91378384Y1702715D02*
X91414098Y1417000D01*
X91414098Y1417000D02*
X91499812Y1188429D01*
X91499812Y1188429D02*
X91571241Y1074143D01*
X91571241Y1074143D02*
X91635526Y1017000D01*
X91635526Y1017000D02*
X91756955Y959858D01*
X91756955Y959858D02*
X91871241Y959858D01*
X91871241Y959858D02*
X91978384Y1017000D01*
X91978384Y1017000D02*
X92028384Y1074143D01*
X92028384Y1074143D02*
X92071241Y1188429D01*
X92071241Y1188429D02*
X92099812Y1417000D01*
X92099812Y1417000D02*
X92064098Y1702715D01*
X92064098Y1702715D02*
X91978384Y1931286D01*
X91978384Y1931286D02*
X91906955Y2045572D01*
X91906955Y2045572D02*
X91842669Y2102715D01*
X91842669Y2102715D02*
X91721241Y2159858D01*
X90578384Y2159858D02*
X90464098Y2159858D01*
X90464098Y2159858D02*
X90356955Y2102715D01*
X90356955Y2102715D02*
X90306955Y2045572D01*
X90306955Y2045572D02*
X90264098Y1931286D01*
X90264098Y1931286D02*
X90235527Y1702715D01*
X90235527Y1702715D02*
X90271241Y1417000D01*
X90271241Y1417000D02*
X90356955Y1188429D01*
X90356955Y1188429D02*
X90428384Y1074143D01*
X90428384Y1074143D02*
X90492669Y1017000D01*
X90492669Y1017000D02*
X90614098Y959858D01*
X90614098Y959858D02*
X90728384Y959858D01*
X90728384Y959858D02*
X90835527Y1017000D01*
X90835527Y1017000D02*
X90885527Y1074143D01*
X90885527Y1074143D02*
X90928384Y1188429D01*
X90928384Y1188429D02*
X90956955Y1417000D01*
X90956955Y1417000D02*
X90921241Y1702715D01*
X90921241Y1702715D02*
X90835527Y1931286D01*
X90835527Y1931286D02*
X90764098Y2045572D01*
X90764098Y2045572D02*
X90699812Y2102715D01*
X90699812Y2102715D02*
X90578384Y2159858D01*
X89185527Y959858D02*
X89871241Y959858D01*
X89528384Y959858D02*
X89378384Y2159858D01*
X89378384Y2159858D02*
X89514098Y1988429D01*
X89514098Y1988429D02*
X89642670Y1874143D01*
X89642670Y1874143D02*
X89764098Y1817000D01*
X94685527Y3902715D02*
X94792669Y3959858D01*
X94792669Y3959858D02*
X94964098Y3959858D01*
X94964098Y3959858D02*
X95142669Y3902715D01*
X95142669Y3902715D02*
X95271241Y3788429D01*
X95271241Y3788429D02*
X95342669Y3674143D01*
X95342669Y3674143D02*
X95428384Y3445572D01*
X95428384Y3445572D02*
X95449812Y3274143D01*
X95449812Y3274143D02*
X95421241Y3045572D01*
X95421241Y3045572D02*
X95378384Y2931286D01*
X95378384Y2931286D02*
X95278384Y2817000D01*
X95278384Y2817000D02*
X95114098Y2759858D01*
X95114098Y2759858D02*
X94999812Y2759858D01*
X94999812Y2759858D02*
X94821241Y2817000D01*
X94821241Y2817000D02*
X94756955Y2874143D01*
X94756955Y2874143D02*
X94706955Y3274143D01*
X94706955Y3274143D02*
X94935527Y3274143D01*
X93571241Y2759858D02*
X93899812Y3331286D01*
X94256955Y2759858D02*
X94106955Y3959858D01*
X94106955Y3959858D02*
X93649812Y3959858D01*
X93649812Y3959858D02*
X93542669Y3902715D01*
X93542669Y3902715D02*
X93492669Y3845572D01*
X93492669Y3845572D02*
X93449812Y3731286D01*
X93449812Y3731286D02*
X93471241Y3559858D01*
X93471241Y3559858D02*
X93542669Y3445572D01*
X93542669Y3445572D02*
X93606955Y3388429D01*
X93606955Y3388429D02*
X93728384Y3331286D01*
X93728384Y3331286D02*
X94185527Y3331286D01*
X93056955Y2759858D02*
X92906955Y3959858D01*
X92906955Y3959858D02*
X92621241Y3959858D01*
X92621241Y3959858D02*
X92456955Y3902715D01*
X92456955Y3902715D02*
X92356955Y3788429D01*
X92356955Y3788429D02*
X92314098Y3674143D01*
X92314098Y3674143D02*
X92285527Y3445572D01*
X92285527Y3445572D02*
X92306955Y3274143D01*
X92306955Y3274143D02*
X92392669Y3045572D01*
X92392669Y3045572D02*
X92464098Y2931286D01*
X92464098Y2931286D02*
X92592669Y2817000D01*
X92592669Y2817000D02*
X92771241Y2759858D01*
X92771241Y2759858D02*
X93056955Y2759858D01*
X91856955Y2759858D02*
X91706955Y3959858D01*
X91706955Y3959858D02*
X91414098Y3102715D01*
X91414098Y3102715D02*
X90906955Y3959858D01*
X90906955Y3959858D02*
X91056955Y2759858D01*
X89799812Y2759858D02*
X90128383Y3331286D01*
X90485526Y2759858D02*
X90335526Y3959858D01*
X90335526Y3959858D02*
X89878383Y3959858D01*
X89878383Y3959858D02*
X89771240Y3902715D01*
X89771240Y3902715D02*
X89721240Y3845572D01*
X89721240Y3845572D02*
X89678383Y3731286D01*
X89678383Y3731286D02*
X89699812Y3559858D01*
X89699812Y3559858D02*
X89771240Y3445572D01*
X89771240Y3445572D02*
X89835526Y3388429D01*
X89835526Y3388429D02*
X89956955Y3331286D01*
X89956955Y3331286D02*
X90414098Y3331286D01*
X89228383Y3217000D02*
X88314098Y3217000D01*
X87799812Y2759858D02*
X87649812Y3959858D01*
X87649812Y3959858D02*
X87356955Y3102715D01*
X87356955Y3102715D02*
X86849812Y3959858D01*
X86849812Y3959858D02*
X86999812Y2759858D01*
X85949812Y3388429D02*
X85785526Y3331286D01*
X85785526Y3331286D02*
X85735526Y3274143D01*
X85735526Y3274143D02*
X85692669Y3159858D01*
X85692669Y3159858D02*
X85714097Y2988429D01*
X85714097Y2988429D02*
X85785526Y2874143D01*
X85785526Y2874143D02*
X85849812Y2817000D01*
X85849812Y2817000D02*
X85971240Y2759858D01*
X85971240Y2759858D02*
X86428383Y2759858D01*
X86428383Y2759858D02*
X86278383Y3959858D01*
X86278383Y3959858D02*
X85878383Y3959858D01*
X85878383Y3959858D02*
X85771240Y3902715D01*
X85771240Y3902715D02*
X85721240Y3845572D01*
X85721240Y3845572D02*
X85678383Y3731286D01*
X85678383Y3731286D02*
X85692669Y3617000D01*
X85692669Y3617000D02*
X85764097Y3502715D01*
X85764097Y3502715D02*
X85828383Y3445572D01*
X85828383Y3445572D02*
X85949812Y3388429D01*
X85949812Y3388429D02*
X86349812Y3388429D01*
X85171240Y3217000D02*
X84256955Y3217000D01*
X83764098Y3959858D02*
X83514098Y2759858D01*
X83514098Y2759858D02*
X82964098Y3959858D01*
X82635527Y3845572D02*
X82571241Y3902715D01*
X82571241Y3902715D02*
X82449812Y3959858D01*
X82449812Y3959858D02*
X82164098Y3959858D01*
X82164098Y3959858D02*
X82056955Y3902715D01*
X82056955Y3902715D02*
X82006955Y3845572D01*
X82006955Y3845572D02*
X81964098Y3731286D01*
X81964098Y3731286D02*
X81978384Y3617000D01*
X81978384Y3617000D02*
X82056955Y3445572D01*
X82056955Y3445572D02*
X82828384Y2759858D01*
X82828384Y2759858D02*
X82085527Y2759858D01*
D11*
X132642856Y50545181D02*
X132547618Y50545181D01*
X132547618Y50545181D02*
X132452380Y50497562D01*
X132452380Y50497562D02*
X132404761Y50449943D01*
X132404761Y50449943D02*
X132357142Y50354705D01*
X132357142Y50354705D02*
X132309523Y50164229D01*
X132309523Y50164229D02*
X132309523Y49926134D01*
X132309523Y49926134D02*
X132357142Y49735658D01*
X132357142Y49735658D02*
X132404761Y49640420D01*
X132404761Y49640420D02*
X132452380Y49592800D01*
X132452380Y49592800D02*
X132547618Y49545181D01*
X132547618Y49545181D02*
X132642856Y49545181D01*
X132642856Y49545181D02*
X132738094Y49592800D01*
X132738094Y49592800D02*
X132785713Y49640420D01*
X132785713Y49640420D02*
X132833332Y49735658D01*
X132833332Y49735658D02*
X132880951Y49926134D01*
X132880951Y49926134D02*
X132880951Y50164229D01*
X132880951Y50164229D02*
X132833332Y50354705D01*
X132833332Y50354705D02*
X132785713Y50449943D01*
X132785713Y50449943D02*
X132738094Y50497562D01*
X132738094Y50497562D02*
X132642856Y50545181D01*
X131880951Y49926134D02*
X131119047Y49926134D01*
X130690475Y50449943D02*
X130642856Y50497562D01*
X130642856Y50497562D02*
X130547618Y50545181D01*
X130547618Y50545181D02*
X130309523Y50545181D01*
X130309523Y50545181D02*
X130214285Y50497562D01*
X130214285Y50497562D02*
X130166666Y50449943D01*
X130166666Y50449943D02*
X130119047Y50354705D01*
X130119047Y50354705D02*
X130119047Y50259467D01*
X130119047Y50259467D02*
X130166666Y50116610D01*
X130166666Y50116610D02*
X130738094Y49545181D01*
X130738094Y49545181D02*
X130119047Y49545181D01*
X40442857Y64595181D02*
X40776190Y65071372D01*
X41014285Y64595181D02*
X41014285Y65595181D01*
X41014285Y65595181D02*
X40633333Y65595181D01*
X40633333Y65595181D02*
X40538095Y65547562D01*
X40538095Y65547562D02*
X40490476Y65499943D01*
X40490476Y65499943D02*
X40442857Y65404705D01*
X40442857Y65404705D02*
X40442857Y65261848D01*
X40442857Y65261848D02*
X40490476Y65166610D01*
X40490476Y65166610D02*
X40538095Y65118991D01*
X40538095Y65118991D02*
X40633333Y65071372D01*
X40633333Y65071372D02*
X41014285Y65071372D01*
X39585714Y65261848D02*
X39585714Y64595181D01*
X39823809Y65642800D02*
X40061904Y64928515D01*
X40061904Y64928515D02*
X39442857Y64928515D01*
X38871428Y65595181D02*
X38776190Y65595181D01*
X38776190Y65595181D02*
X38680952Y65547562D01*
X38680952Y65547562D02*
X38633333Y65499943D01*
X38633333Y65499943D02*
X38585714Y65404705D01*
X38585714Y65404705D02*
X38538095Y65214229D01*
X38538095Y65214229D02*
X38538095Y64976134D01*
X38538095Y64976134D02*
X38585714Y64785658D01*
X38585714Y64785658D02*
X38633333Y64690420D01*
X38633333Y64690420D02*
X38680952Y64642800D01*
X38680952Y64642800D02*
X38776190Y64595181D01*
X38776190Y64595181D02*
X38871428Y64595181D01*
X38871428Y64595181D02*
X38966666Y64642800D01*
X38966666Y64642800D02*
X39014285Y64690420D01*
X39014285Y64690420D02*
X39061904Y64785658D01*
X39061904Y64785658D02*
X39109523Y64976134D01*
X39109523Y64976134D02*
X39109523Y65214229D01*
X39109523Y65214229D02*
X39061904Y65404705D01*
X39061904Y65404705D02*
X39014285Y65499943D01*
X39014285Y65499943D02*
X38966666Y65547562D01*
X38966666Y65547562D02*
X38871428Y65595181D01*
X117285714Y36545181D02*
X117761904Y36545181D01*
X117761904Y36545181D02*
X117761904Y37545181D01*
X116952380Y36926134D02*
X116190476Y36926134D01*
X115809523Y37545181D02*
X115190476Y37545181D01*
X115190476Y37545181D02*
X115523809Y37164229D01*
X115523809Y37164229D02*
X115380952Y37164229D01*
X115380952Y37164229D02*
X115285714Y37116610D01*
X115285714Y37116610D02*
X115238095Y37068991D01*
X115238095Y37068991D02*
X115190476Y36973753D01*
X115190476Y36973753D02*
X115190476Y36735658D01*
X115190476Y36735658D02*
X115238095Y36640420D01*
X115238095Y36640420D02*
X115285714Y36592800D01*
X115285714Y36592800D02*
X115380952Y36545181D01*
X115380952Y36545181D02*
X115666666Y36545181D01*
X115666666Y36545181D02*
X115761904Y36592800D01*
X115761904Y36592800D02*
X115809523Y36640420D01*
X30592857Y64645181D02*
X30926190Y65121372D01*
X31164285Y64645181D02*
X31164285Y65645181D01*
X31164285Y65645181D02*
X30783333Y65645181D01*
X30783333Y65645181D02*
X30688095Y65597562D01*
X30688095Y65597562D02*
X30640476Y65549943D01*
X30640476Y65549943D02*
X30592857Y65454705D01*
X30592857Y65454705D02*
X30592857Y65311848D01*
X30592857Y65311848D02*
X30640476Y65216610D01*
X30640476Y65216610D02*
X30688095Y65168991D01*
X30688095Y65168991D02*
X30783333Y65121372D01*
X30783333Y65121372D02*
X31164285Y65121372D01*
X30259523Y65645181D02*
X29640476Y65645181D01*
X29640476Y65645181D02*
X29973809Y65264229D01*
X29973809Y65264229D02*
X29830952Y65264229D01*
X29830952Y65264229D02*
X29735714Y65216610D01*
X29735714Y65216610D02*
X29688095Y65168991D01*
X29688095Y65168991D02*
X29640476Y65073753D01*
X29640476Y65073753D02*
X29640476Y64835658D01*
X29640476Y64835658D02*
X29688095Y64740420D01*
X29688095Y64740420D02*
X29735714Y64692800D01*
X29735714Y64692800D02*
X29830952Y64645181D01*
X29830952Y64645181D02*
X30116666Y64645181D01*
X30116666Y64645181D02*
X30211904Y64692800D01*
X30211904Y64692800D02*
X30259523Y64740420D01*
X28783333Y65645181D02*
X28973809Y65645181D01*
X28973809Y65645181D02*
X29069047Y65597562D01*
X29069047Y65597562D02*
X29116666Y65549943D01*
X29116666Y65549943D02*
X29211904Y65407086D01*
X29211904Y65407086D02*
X29259523Y65216610D01*
X29259523Y65216610D02*
X29259523Y64835658D01*
X29259523Y64835658D02*
X29211904Y64740420D01*
X29211904Y64740420D02*
X29164285Y64692800D01*
X29164285Y64692800D02*
X29069047Y64645181D01*
X29069047Y64645181D02*
X28878571Y64645181D01*
X28878571Y64645181D02*
X28783333Y64692800D01*
X28783333Y64692800D02*
X28735714Y64740420D01*
X28735714Y64740420D02*
X28688095Y64835658D01*
X28688095Y64835658D02*
X28688095Y65073753D01*
X28688095Y65073753D02*
X28735714Y65168991D01*
X28735714Y65168991D02*
X28783333Y65216610D01*
X28783333Y65216610D02*
X28878571Y65264229D01*
X28878571Y65264229D02*
X29069047Y65264229D01*
X29069047Y65264229D02*
X29164285Y65216610D01*
X29164285Y65216610D02*
X29211904Y65168991D01*
X29211904Y65168991D02*
X29259523Y65073753D01*
X50545238Y47737443D02*
X50640476Y47785062D01*
X50640476Y47785062D02*
X50735714Y47880300D01*
X50735714Y47880300D02*
X50878571Y48023158D01*
X50878571Y48023158D02*
X50973809Y48070777D01*
X50973809Y48070777D02*
X51069047Y48070777D01*
X51021428Y47832681D02*
X51116666Y47880300D01*
X51116666Y47880300D02*
X51211904Y47975539D01*
X51211904Y47975539D02*
X51259523Y48166015D01*
X51259523Y48166015D02*
X51259523Y48499348D01*
X51259523Y48499348D02*
X51211904Y48689824D01*
X51211904Y48689824D02*
X51116666Y48785062D01*
X51116666Y48785062D02*
X51021428Y48832681D01*
X51021428Y48832681D02*
X50830952Y48832681D01*
X50830952Y48832681D02*
X50735714Y48785062D01*
X50735714Y48785062D02*
X50640476Y48689824D01*
X50640476Y48689824D02*
X50592857Y48499348D01*
X50592857Y48499348D02*
X50592857Y48166015D01*
X50592857Y48166015D02*
X50640476Y47975539D01*
X50640476Y47975539D02*
X50735714Y47880300D01*
X50735714Y47880300D02*
X50830952Y47832681D01*
X50830952Y47832681D02*
X51021428Y47832681D01*
X50021428Y48404110D02*
X50116666Y48451729D01*
X50116666Y48451729D02*
X50164285Y48499348D01*
X50164285Y48499348D02*
X50211904Y48594586D01*
X50211904Y48594586D02*
X50211904Y48642205D01*
X50211904Y48642205D02*
X50164285Y48737443D01*
X50164285Y48737443D02*
X50116666Y48785062D01*
X50116666Y48785062D02*
X50021428Y48832681D01*
X50021428Y48832681D02*
X49830952Y48832681D01*
X49830952Y48832681D02*
X49735714Y48785062D01*
X49735714Y48785062D02*
X49688095Y48737443D01*
X49688095Y48737443D02*
X49640476Y48642205D01*
X49640476Y48642205D02*
X49640476Y48594586D01*
X49640476Y48594586D02*
X49688095Y48499348D01*
X49688095Y48499348D02*
X49735714Y48451729D01*
X49735714Y48451729D02*
X49830952Y48404110D01*
X49830952Y48404110D02*
X50021428Y48404110D01*
X50021428Y48404110D02*
X50116666Y48356491D01*
X50116666Y48356491D02*
X50164285Y48308872D01*
X50164285Y48308872D02*
X50211904Y48213634D01*
X50211904Y48213634D02*
X50211904Y48023158D01*
X50211904Y48023158D02*
X50164285Y47927920D01*
X50164285Y47927920D02*
X50116666Y47880300D01*
X50116666Y47880300D02*
X50021428Y47832681D01*
X50021428Y47832681D02*
X49830952Y47832681D01*
X49830952Y47832681D02*
X49735714Y47880300D01*
X49735714Y47880300D02*
X49688095Y47927920D01*
X49688095Y47927920D02*
X49640476Y48023158D01*
X49640476Y48023158D02*
X49640476Y48213634D01*
X49640476Y48213634D02*
X49688095Y48308872D01*
X49688095Y48308872D02*
X49735714Y48356491D01*
X49735714Y48356491D02*
X49830952Y48404110D01*
X42742857Y59395181D02*
X43076190Y59871372D01*
X43314285Y59395181D02*
X43314285Y60395181D01*
X43314285Y60395181D02*
X42933333Y60395181D01*
X42933333Y60395181D02*
X42838095Y60347562D01*
X42838095Y60347562D02*
X42790476Y60299943D01*
X42790476Y60299943D02*
X42742857Y60204705D01*
X42742857Y60204705D02*
X42742857Y60061848D01*
X42742857Y60061848D02*
X42790476Y59966610D01*
X42790476Y59966610D02*
X42838095Y59918991D01*
X42838095Y59918991D02*
X42933333Y59871372D01*
X42933333Y59871372D02*
X43314285Y59871372D01*
X41885714Y60061848D02*
X41885714Y59395181D01*
X42123809Y60442800D02*
X42361904Y59728515D01*
X42361904Y59728515D02*
X41742857Y59728515D01*
X40885714Y60395181D02*
X41361904Y60395181D01*
X41361904Y60395181D02*
X41409523Y59918991D01*
X41409523Y59918991D02*
X41361904Y59966610D01*
X41361904Y59966610D02*
X41266666Y60014229D01*
X41266666Y60014229D02*
X41028571Y60014229D01*
X41028571Y60014229D02*
X40933333Y59966610D01*
X40933333Y59966610D02*
X40885714Y59918991D01*
X40885714Y59918991D02*
X40838095Y59823753D01*
X40838095Y59823753D02*
X40838095Y59585658D01*
X40838095Y59585658D02*
X40885714Y59490420D01*
X40885714Y59490420D02*
X40933333Y59442800D01*
X40933333Y59442800D02*
X41028571Y59395181D01*
X41028571Y59395181D02*
X41266666Y59395181D01*
X41266666Y59395181D02*
X41361904Y59442800D01*
X41361904Y59442800D02*
X41409523Y59490420D01*
X69942857Y45560420D02*
X69990476Y45512800D01*
X69990476Y45512800D02*
X70133333Y45465181D01*
X70133333Y45465181D02*
X70228571Y45465181D01*
X70228571Y45465181D02*
X70371428Y45512800D01*
X70371428Y45512800D02*
X70466666Y45608039D01*
X70466666Y45608039D02*
X70514285Y45703277D01*
X70514285Y45703277D02*
X70561904Y45893753D01*
X70561904Y45893753D02*
X70561904Y46036610D01*
X70561904Y46036610D02*
X70514285Y46227086D01*
X70514285Y46227086D02*
X70466666Y46322324D01*
X70466666Y46322324D02*
X70371428Y46417562D01*
X70371428Y46417562D02*
X70228571Y46465181D01*
X70228571Y46465181D02*
X70133333Y46465181D01*
X70133333Y46465181D02*
X69990476Y46417562D01*
X69990476Y46417562D02*
X69942857Y46369943D01*
X68990476Y45465181D02*
X69561904Y45465181D01*
X69276190Y45465181D02*
X69276190Y46465181D01*
X69276190Y46465181D02*
X69371428Y46322324D01*
X69371428Y46322324D02*
X69466666Y46227086D01*
X69466666Y46227086D02*
X69561904Y46179467D01*
X68514285Y45465181D02*
X68323809Y45465181D01*
X68323809Y45465181D02*
X68228571Y45512800D01*
X68228571Y45512800D02*
X68180952Y45560420D01*
X68180952Y45560420D02*
X68085714Y45703277D01*
X68085714Y45703277D02*
X68038095Y45893753D01*
X68038095Y45893753D02*
X68038095Y46274705D01*
X68038095Y46274705D02*
X68085714Y46369943D01*
X68085714Y46369943D02*
X68133333Y46417562D01*
X68133333Y46417562D02*
X68228571Y46465181D01*
X68228571Y46465181D02*
X68419047Y46465181D01*
X68419047Y46465181D02*
X68514285Y46417562D01*
X68514285Y46417562D02*
X68561904Y46369943D01*
X68561904Y46369943D02*
X68609523Y46274705D01*
X68609523Y46274705D02*
X68609523Y46036610D01*
X68609523Y46036610D02*
X68561904Y45941372D01*
X68561904Y45941372D02*
X68514285Y45893753D01*
X68514285Y45893753D02*
X68419047Y45846134D01*
X68419047Y45846134D02*
X68228571Y45846134D01*
X68228571Y45846134D02*
X68133333Y45893753D01*
X68133333Y45893753D02*
X68085714Y45941372D01*
X68085714Y45941372D02*
X68038095Y46036610D01*
X124485714Y43445181D02*
X124961904Y43445181D01*
X124961904Y43445181D02*
X124961904Y44445181D01*
X124152380Y43826134D02*
X123390476Y43826134D01*
X122390476Y43445181D02*
X122961904Y43445181D01*
X122676190Y43445181D02*
X122676190Y44445181D01*
X122676190Y44445181D02*
X122771428Y44302324D01*
X122771428Y44302324D02*
X122866666Y44207086D01*
X122866666Y44207086D02*
X122961904Y44159467D01*
X117733333Y16145181D02*
X117733333Y15430896D01*
X117733333Y15430896D02*
X117780952Y15288039D01*
X117780952Y15288039D02*
X117876190Y15192800D01*
X117876190Y15192800D02*
X118019047Y15145181D01*
X118019047Y15145181D02*
X118114285Y15145181D01*
X117257142Y15145181D02*
X117257142Y16145181D01*
X117257142Y16145181D02*
X116876190Y16145181D01*
X116876190Y16145181D02*
X116780952Y16097562D01*
X116780952Y16097562D02*
X116733333Y16049943D01*
X116733333Y16049943D02*
X116685714Y15954705D01*
X116685714Y15954705D02*
X116685714Y15811848D01*
X116685714Y15811848D02*
X116733333Y15716610D01*
X116733333Y15716610D02*
X116780952Y15668991D01*
X116780952Y15668991D02*
X116876190Y15621372D01*
X116876190Y15621372D02*
X117257142Y15621372D01*
X115733333Y15145181D02*
X116304761Y15145181D01*
X116019047Y15145181D02*
X116019047Y16145181D01*
X116019047Y16145181D02*
X116114285Y16002324D01*
X116114285Y16002324D02*
X116209523Y15907086D01*
X116209523Y15907086D02*
X116304761Y15859467D01*
X132642856Y45445181D02*
X132547618Y45445181D01*
X132547618Y45445181D02*
X132452380Y45397562D01*
X132452380Y45397562D02*
X132404761Y45349943D01*
X132404761Y45349943D02*
X132357142Y45254705D01*
X132357142Y45254705D02*
X132309523Y45064229D01*
X132309523Y45064229D02*
X132309523Y44826134D01*
X132309523Y44826134D02*
X132357142Y44635658D01*
X132357142Y44635658D02*
X132404761Y44540420D01*
X132404761Y44540420D02*
X132452380Y44492800D01*
X132452380Y44492800D02*
X132547618Y44445181D01*
X132547618Y44445181D02*
X132642856Y44445181D01*
X132642856Y44445181D02*
X132738094Y44492800D01*
X132738094Y44492800D02*
X132785713Y44540420D01*
X132785713Y44540420D02*
X132833332Y44635658D01*
X132833332Y44635658D02*
X132880951Y44826134D01*
X132880951Y44826134D02*
X132880951Y45064229D01*
X132880951Y45064229D02*
X132833332Y45254705D01*
X132833332Y45254705D02*
X132785713Y45349943D01*
X132785713Y45349943D02*
X132738094Y45397562D01*
X132738094Y45397562D02*
X132642856Y45445181D01*
X131880951Y44826134D02*
X131119047Y44826134D01*
X130119047Y44445181D02*
X130690475Y44445181D01*
X130404761Y44445181D02*
X130404761Y45445181D01*
X130404761Y45445181D02*
X130499999Y45302324D01*
X130499999Y45302324D02*
X130595237Y45207086D01*
X130595237Y45207086D02*
X130690475Y45159467D01*
X107485714Y43445181D02*
X107961904Y43445181D01*
X107961904Y43445181D02*
X107961904Y44445181D01*
X107152380Y43826134D02*
X106390476Y43826134D01*
X106009523Y44445181D02*
X105390476Y44445181D01*
X105390476Y44445181D02*
X105723809Y44064229D01*
X105723809Y44064229D02*
X105580952Y44064229D01*
X105580952Y44064229D02*
X105485714Y44016610D01*
X105485714Y44016610D02*
X105438095Y43968991D01*
X105438095Y43968991D02*
X105390476Y43873753D01*
X105390476Y43873753D02*
X105390476Y43635658D01*
X105390476Y43635658D02*
X105438095Y43540420D01*
X105438095Y43540420D02*
X105485714Y43492800D01*
X105485714Y43492800D02*
X105580952Y43445181D01*
X105580952Y43445181D02*
X105866666Y43445181D01*
X105866666Y43445181D02*
X105961904Y43492800D01*
X105961904Y43492800D02*
X106009523Y43540420D01*
X56042857Y52982681D02*
X56376190Y53458872D01*
X56614285Y52982681D02*
X56614285Y53982681D01*
X56614285Y53982681D02*
X56233333Y53982681D01*
X56233333Y53982681D02*
X56138095Y53935062D01*
X56138095Y53935062D02*
X56090476Y53887443D01*
X56090476Y53887443D02*
X56042857Y53792205D01*
X56042857Y53792205D02*
X56042857Y53649348D01*
X56042857Y53649348D02*
X56090476Y53554110D01*
X56090476Y53554110D02*
X56138095Y53506491D01*
X56138095Y53506491D02*
X56233333Y53458872D01*
X56233333Y53458872D02*
X56614285Y53458872D01*
X55709523Y53982681D02*
X55090476Y53982681D01*
X55090476Y53982681D02*
X55423809Y53601729D01*
X55423809Y53601729D02*
X55280952Y53601729D01*
X55280952Y53601729D02*
X55185714Y53554110D01*
X55185714Y53554110D02*
X55138095Y53506491D01*
X55138095Y53506491D02*
X55090476Y53411253D01*
X55090476Y53411253D02*
X55090476Y53173158D01*
X55090476Y53173158D02*
X55138095Y53077920D01*
X55138095Y53077920D02*
X55185714Y53030300D01*
X55185714Y53030300D02*
X55280952Y52982681D01*
X55280952Y52982681D02*
X55566666Y52982681D01*
X55566666Y52982681D02*
X55661904Y53030300D01*
X55661904Y53030300D02*
X55709523Y53077920D01*
X54614285Y52982681D02*
X54423809Y52982681D01*
X54423809Y52982681D02*
X54328571Y53030300D01*
X54328571Y53030300D02*
X54280952Y53077920D01*
X54280952Y53077920D02*
X54185714Y53220777D01*
X54185714Y53220777D02*
X54138095Y53411253D01*
X54138095Y53411253D02*
X54138095Y53792205D01*
X54138095Y53792205D02*
X54185714Y53887443D01*
X54185714Y53887443D02*
X54233333Y53935062D01*
X54233333Y53935062D02*
X54328571Y53982681D01*
X54328571Y53982681D02*
X54519047Y53982681D01*
X54519047Y53982681D02*
X54614285Y53935062D01*
X54614285Y53935062D02*
X54661904Y53887443D01*
X54661904Y53887443D02*
X54709523Y53792205D01*
X54709523Y53792205D02*
X54709523Y53554110D01*
X54709523Y53554110D02*
X54661904Y53458872D01*
X54661904Y53458872D02*
X54614285Y53411253D01*
X54614285Y53411253D02*
X54519047Y53363634D01*
X54519047Y53363634D02*
X54328571Y53363634D01*
X54328571Y53363634D02*
X54233333Y53411253D01*
X54233333Y53411253D02*
X54185714Y53458872D01*
X54185714Y53458872D02*
X54138095Y53554110D01*
X17792857Y53895181D02*
X18126190Y54371372D01*
X18364285Y53895181D02*
X18364285Y54895181D01*
X18364285Y54895181D02*
X17983333Y54895181D01*
X17983333Y54895181D02*
X17888095Y54847562D01*
X17888095Y54847562D02*
X17840476Y54799943D01*
X17840476Y54799943D02*
X17792857Y54704705D01*
X17792857Y54704705D02*
X17792857Y54561848D01*
X17792857Y54561848D02*
X17840476Y54466610D01*
X17840476Y54466610D02*
X17888095Y54418991D01*
X17888095Y54418991D02*
X17983333Y54371372D01*
X17983333Y54371372D02*
X18364285Y54371372D01*
X16888095Y54895181D02*
X17364285Y54895181D01*
X17364285Y54895181D02*
X17411904Y54418991D01*
X17411904Y54418991D02*
X17364285Y54466610D01*
X17364285Y54466610D02*
X17269047Y54514229D01*
X17269047Y54514229D02*
X17030952Y54514229D01*
X17030952Y54514229D02*
X16935714Y54466610D01*
X16935714Y54466610D02*
X16888095Y54418991D01*
X16888095Y54418991D02*
X16840476Y54323753D01*
X16840476Y54323753D02*
X16840476Y54085658D01*
X16840476Y54085658D02*
X16888095Y53990420D01*
X16888095Y53990420D02*
X16935714Y53942800D01*
X16935714Y53942800D02*
X17030952Y53895181D01*
X17030952Y53895181D02*
X17269047Y53895181D01*
X17269047Y53895181D02*
X17364285Y53942800D01*
X17364285Y53942800D02*
X17411904Y53990420D01*
X15935714Y54895181D02*
X16411904Y54895181D01*
X16411904Y54895181D02*
X16459523Y54418991D01*
X16459523Y54418991D02*
X16411904Y54466610D01*
X16411904Y54466610D02*
X16316666Y54514229D01*
X16316666Y54514229D02*
X16078571Y54514229D01*
X16078571Y54514229D02*
X15983333Y54466610D01*
X15983333Y54466610D02*
X15935714Y54418991D01*
X15935714Y54418991D02*
X15888095Y54323753D01*
X15888095Y54323753D02*
X15888095Y54085658D01*
X15888095Y54085658D02*
X15935714Y53990420D01*
X15935714Y53990420D02*
X15983333Y53942800D01*
X15983333Y53942800D02*
X16078571Y53895181D01*
X16078571Y53895181D02*
X16316666Y53895181D01*
X16316666Y53895181D02*
X16411904Y53942800D01*
X16411904Y53942800D02*
X16459523Y53990420D01*
X32792857Y59395181D02*
X33126190Y59871372D01*
X33364285Y59395181D02*
X33364285Y60395181D01*
X33364285Y60395181D02*
X32983333Y60395181D01*
X32983333Y60395181D02*
X32888095Y60347562D01*
X32888095Y60347562D02*
X32840476Y60299943D01*
X32840476Y60299943D02*
X32792857Y60204705D01*
X32792857Y60204705D02*
X32792857Y60061848D01*
X32792857Y60061848D02*
X32840476Y59966610D01*
X32840476Y59966610D02*
X32888095Y59918991D01*
X32888095Y59918991D02*
X32983333Y59871372D01*
X32983333Y59871372D02*
X33364285Y59871372D01*
X32459523Y60395181D02*
X31840476Y60395181D01*
X31840476Y60395181D02*
X32173809Y60014229D01*
X32173809Y60014229D02*
X32030952Y60014229D01*
X32030952Y60014229D02*
X31935714Y59966610D01*
X31935714Y59966610D02*
X31888095Y59918991D01*
X31888095Y59918991D02*
X31840476Y59823753D01*
X31840476Y59823753D02*
X31840476Y59585658D01*
X31840476Y59585658D02*
X31888095Y59490420D01*
X31888095Y59490420D02*
X31935714Y59442800D01*
X31935714Y59442800D02*
X32030952Y59395181D01*
X32030952Y59395181D02*
X32316666Y59395181D01*
X32316666Y59395181D02*
X32411904Y59442800D01*
X32411904Y59442800D02*
X32459523Y59490420D01*
X31459523Y60299943D02*
X31411904Y60347562D01*
X31411904Y60347562D02*
X31316666Y60395181D01*
X31316666Y60395181D02*
X31078571Y60395181D01*
X31078571Y60395181D02*
X30983333Y60347562D01*
X30983333Y60347562D02*
X30935714Y60299943D01*
X30935714Y60299943D02*
X30888095Y60204705D01*
X30888095Y60204705D02*
X30888095Y60109467D01*
X30888095Y60109467D02*
X30935714Y59966610D01*
X30935714Y59966610D02*
X31507142Y59395181D01*
X31507142Y59395181D02*
X30888095Y59395181D01*
X99490475Y51445181D02*
X99299999Y51445181D01*
X99299999Y51445181D02*
X99204761Y51397562D01*
X99204761Y51397562D02*
X99109523Y51302324D01*
X99109523Y51302324D02*
X99061904Y51111848D01*
X99061904Y51111848D02*
X99061904Y50778515D01*
X99061904Y50778515D02*
X99109523Y50588039D01*
X99109523Y50588039D02*
X99204761Y50492800D01*
X99204761Y50492800D02*
X99299999Y50445181D01*
X99299999Y50445181D02*
X99490475Y50445181D01*
X99490475Y50445181D02*
X99585713Y50492800D01*
X99585713Y50492800D02*
X99680951Y50588039D01*
X99680951Y50588039D02*
X99728570Y50778515D01*
X99728570Y50778515D02*
X99728570Y51111848D01*
X99728570Y51111848D02*
X99680951Y51302324D01*
X99680951Y51302324D02*
X99585713Y51397562D01*
X99585713Y51397562D02*
X99490475Y51445181D01*
X98633332Y50826134D02*
X97871428Y50826134D01*
X96966666Y51111848D02*
X96966666Y50445181D01*
X97204761Y51492800D02*
X97442856Y50778515D01*
X97442856Y50778515D02*
X96823809Y50778515D01*
X54142857Y47832681D02*
X54476190Y48308872D01*
X54714285Y47832681D02*
X54714285Y48832681D01*
X54714285Y48832681D02*
X54333333Y48832681D01*
X54333333Y48832681D02*
X54238095Y48785062D01*
X54238095Y48785062D02*
X54190476Y48737443D01*
X54190476Y48737443D02*
X54142857Y48642205D01*
X54142857Y48642205D02*
X54142857Y48499348D01*
X54142857Y48499348D02*
X54190476Y48404110D01*
X54190476Y48404110D02*
X54238095Y48356491D01*
X54238095Y48356491D02*
X54333333Y48308872D01*
X54333333Y48308872D02*
X54714285Y48308872D01*
X53809523Y48832681D02*
X53190476Y48832681D01*
X53190476Y48832681D02*
X53523809Y48451729D01*
X53523809Y48451729D02*
X53380952Y48451729D01*
X53380952Y48451729D02*
X53285714Y48404110D01*
X53285714Y48404110D02*
X53238095Y48356491D01*
X53238095Y48356491D02*
X53190476Y48261253D01*
X53190476Y48261253D02*
X53190476Y48023158D01*
X53190476Y48023158D02*
X53238095Y47927920D01*
X53238095Y47927920D02*
X53285714Y47880300D01*
X53285714Y47880300D02*
X53380952Y47832681D01*
X53380952Y47832681D02*
X53666666Y47832681D01*
X53666666Y47832681D02*
X53761904Y47880300D01*
X53761904Y47880300D02*
X53809523Y47927920D01*
X52285714Y48832681D02*
X52761904Y48832681D01*
X52761904Y48832681D02*
X52809523Y48356491D01*
X52809523Y48356491D02*
X52761904Y48404110D01*
X52761904Y48404110D02*
X52666666Y48451729D01*
X52666666Y48451729D02*
X52428571Y48451729D01*
X52428571Y48451729D02*
X52333333Y48404110D01*
X52333333Y48404110D02*
X52285714Y48356491D01*
X52285714Y48356491D02*
X52238095Y48261253D01*
X52238095Y48261253D02*
X52238095Y48023158D01*
X52238095Y48023158D02*
X52285714Y47927920D01*
X52285714Y47927920D02*
X52333333Y47880300D01*
X52333333Y47880300D02*
X52428571Y47832681D01*
X52428571Y47832681D02*
X52666666Y47832681D01*
X52666666Y47832681D02*
X52761904Y47880300D01*
X52761904Y47880300D02*
X52809523Y47927920D01*
X20311904Y48645181D02*
X20311904Y47835658D01*
X20311904Y47835658D02*
X20264285Y47740420D01*
X20264285Y47740420D02*
X20216666Y47692800D01*
X20216666Y47692800D02*
X20121428Y47645181D01*
X20121428Y47645181D02*
X19930952Y47645181D01*
X19930952Y47645181D02*
X19835714Y47692800D01*
X19835714Y47692800D02*
X19788095Y47740420D01*
X19788095Y47740420D02*
X19740476Y47835658D01*
X19740476Y47835658D02*
X19740476Y48645181D01*
X19311904Y48549943D02*
X19264285Y48597562D01*
X19264285Y48597562D02*
X19169047Y48645181D01*
X19169047Y48645181D02*
X18930952Y48645181D01*
X18930952Y48645181D02*
X18835714Y48597562D01*
X18835714Y48597562D02*
X18788095Y48549943D01*
X18788095Y48549943D02*
X18740476Y48454705D01*
X18740476Y48454705D02*
X18740476Y48359467D01*
X18740476Y48359467D02*
X18788095Y48216610D01*
X18788095Y48216610D02*
X19359523Y47645181D01*
X19359523Y47645181D02*
X18740476Y47645181D01*
X2714285Y43245181D02*
X2714285Y44245181D01*
X2714285Y44245181D02*
X2476190Y44245181D01*
X2476190Y44245181D02*
X2333333Y44197562D01*
X2333333Y44197562D02*
X2238095Y44102324D01*
X2238095Y44102324D02*
X2190476Y44007086D01*
X2190476Y44007086D02*
X2142857Y43816610D01*
X2142857Y43816610D02*
X2142857Y43673753D01*
X2142857Y43673753D02*
X2190476Y43483277D01*
X2190476Y43483277D02*
X2238095Y43388039D01*
X2238095Y43388039D02*
X2333333Y43292800D01*
X2333333Y43292800D02*
X2476190Y43245181D01*
X2476190Y43245181D02*
X2714285Y43245181D01*
X1190476Y43245181D02*
X1761904Y43245181D01*
X1476190Y43245181D02*
X1476190Y44245181D01*
X1476190Y44245181D02*
X1571428Y44102324D01*
X1571428Y44102324D02*
X1666666Y44007086D01*
X1666666Y44007086D02*
X1761904Y43959467D01*
X285714Y44245181D02*
X761904Y44245181D01*
X761904Y44245181D02*
X809523Y43768991D01*
X809523Y43768991D02*
X761904Y43816610D01*
X761904Y43816610D02*
X666666Y43864229D01*
X666666Y43864229D02*
X428571Y43864229D01*
X428571Y43864229D02*
X333333Y43816610D01*
X333333Y43816610D02*
X285714Y43768991D01*
X285714Y43768991D02*
X238095Y43673753D01*
X238095Y43673753D02*
X238095Y43435658D01*
X238095Y43435658D02*
X285714Y43340420D01*
X285714Y43340420D02*
X333333Y43292800D01*
X333333Y43292800D02*
X428571Y43245181D01*
X428571Y43245181D02*
X666666Y43245181D01*
X666666Y43245181D02*
X761904Y43292800D01*
X761904Y43292800D02*
X809523Y43340420D01*
X35495238Y64649943D02*
X35590476Y64697562D01*
X35590476Y64697562D02*
X35685714Y64792800D01*
X35685714Y64792800D02*
X35828571Y64935658D01*
X35828571Y64935658D02*
X35923809Y64983277D01*
X35923809Y64983277D02*
X36019047Y64983277D01*
X35971428Y64745181D02*
X36066666Y64792800D01*
X36066666Y64792800D02*
X36161904Y64888039D01*
X36161904Y64888039D02*
X36209523Y65078515D01*
X36209523Y65078515D02*
X36209523Y65411848D01*
X36209523Y65411848D02*
X36161904Y65602324D01*
X36161904Y65602324D02*
X36066666Y65697562D01*
X36066666Y65697562D02*
X35971428Y65745181D01*
X35971428Y65745181D02*
X35780952Y65745181D01*
X35780952Y65745181D02*
X35685714Y65697562D01*
X35685714Y65697562D02*
X35590476Y65602324D01*
X35590476Y65602324D02*
X35542857Y65411848D01*
X35542857Y65411848D02*
X35542857Y65078515D01*
X35542857Y65078515D02*
X35590476Y64888039D01*
X35590476Y64888039D02*
X35685714Y64792800D01*
X35685714Y64792800D02*
X35780952Y64745181D01*
X35780952Y64745181D02*
X35971428Y64745181D01*
X34638095Y65745181D02*
X35114285Y65745181D01*
X35114285Y65745181D02*
X35161904Y65268991D01*
X35161904Y65268991D02*
X35114285Y65316610D01*
X35114285Y65316610D02*
X35019047Y65364229D01*
X35019047Y65364229D02*
X34780952Y65364229D01*
X34780952Y65364229D02*
X34685714Y65316610D01*
X34685714Y65316610D02*
X34638095Y65268991D01*
X34638095Y65268991D02*
X34590476Y65173753D01*
X34590476Y65173753D02*
X34590476Y64935658D01*
X34590476Y64935658D02*
X34638095Y64840420D01*
X34638095Y64840420D02*
X34685714Y64792800D01*
X34685714Y64792800D02*
X34780952Y64745181D01*
X34780952Y64745181D02*
X35019047Y64745181D01*
X35019047Y64745181D02*
X35114285Y64792800D01*
X35114285Y64792800D02*
X35161904Y64840420D01*
X13116666Y53895181D02*
X13449999Y54371372D01*
X13688094Y53895181D02*
X13688094Y54895181D01*
X13688094Y54895181D02*
X13307142Y54895181D01*
X13307142Y54895181D02*
X13211904Y54847562D01*
X13211904Y54847562D02*
X13164285Y54799943D01*
X13164285Y54799943D02*
X13116666Y54704705D01*
X13116666Y54704705D02*
X13116666Y54561848D01*
X13116666Y54561848D02*
X13164285Y54466610D01*
X13164285Y54466610D02*
X13211904Y54418991D01*
X13211904Y54418991D02*
X13307142Y54371372D01*
X13307142Y54371372D02*
X13688094Y54371372D01*
X12783332Y54895181D02*
X12164285Y54895181D01*
X12164285Y54895181D02*
X12497618Y54514229D01*
X12497618Y54514229D02*
X12354761Y54514229D01*
X12354761Y54514229D02*
X12259523Y54466610D01*
X12259523Y54466610D02*
X12211904Y54418991D01*
X12211904Y54418991D02*
X12164285Y54323753D01*
X12164285Y54323753D02*
X12164285Y54085658D01*
X12164285Y54085658D02*
X12211904Y53990420D01*
X12211904Y53990420D02*
X12259523Y53942800D01*
X12259523Y53942800D02*
X12354761Y53895181D01*
X12354761Y53895181D02*
X12640475Y53895181D01*
X12640475Y53895181D02*
X12735713Y53942800D01*
X12735713Y53942800D02*
X12783332Y53990420D01*
X113585714Y36545181D02*
X114061904Y36545181D01*
X114061904Y36545181D02*
X114061904Y37545181D01*
X113252380Y36926134D02*
X112490476Y36926134D01*
X111585714Y37211848D02*
X111585714Y36545181D01*
X111823809Y37592800D02*
X112061904Y36878515D01*
X112061904Y36878515D02*
X111442857Y36878515D01*
X98985714Y43445181D02*
X99461904Y43445181D01*
X99461904Y43445181D02*
X99461904Y44445181D01*
X98652380Y43826134D02*
X97890476Y43826134D01*
X96985714Y44111848D02*
X96985714Y43445181D01*
X97223809Y44492800D02*
X97461904Y43778515D01*
X97461904Y43778515D02*
X96842857Y43778515D01*
X115985714Y43445181D02*
X116461904Y43445181D01*
X116461904Y43445181D02*
X116461904Y44445181D01*
X115652380Y43826134D02*
X114890476Y43826134D01*
X114461904Y44349943D02*
X114414285Y44397562D01*
X114414285Y44397562D02*
X114319047Y44445181D01*
X114319047Y44445181D02*
X114080952Y44445181D01*
X114080952Y44445181D02*
X113985714Y44397562D01*
X113985714Y44397562D02*
X113938095Y44349943D01*
X113938095Y44349943D02*
X113890476Y44254705D01*
X113890476Y44254705D02*
X113890476Y44159467D01*
X113890476Y44159467D02*
X113938095Y44016610D01*
X113938095Y44016610D02*
X114509523Y43445181D01*
X114509523Y43445181D02*
X113890476Y43445181D01*
X113333333Y14618991D02*
X113666666Y14618991D01*
X113666666Y14095181D02*
X113666666Y15095181D01*
X113666666Y15095181D02*
X113190476Y15095181D01*
X112285714Y14095181D02*
X112857142Y14095181D01*
X112571428Y14095181D02*
X112571428Y15095181D01*
X112571428Y15095181D02*
X112666666Y14952324D01*
X112666666Y14952324D02*
X112761904Y14857086D01*
X112761904Y14857086D02*
X112857142Y14809467D01*
X116490475Y51445181D02*
X116299999Y51445181D01*
X116299999Y51445181D02*
X116204761Y51397562D01*
X116204761Y51397562D02*
X116109523Y51302324D01*
X116109523Y51302324D02*
X116061904Y51111848D01*
X116061904Y51111848D02*
X116061904Y50778515D01*
X116061904Y50778515D02*
X116109523Y50588039D01*
X116109523Y50588039D02*
X116204761Y50492800D01*
X116204761Y50492800D02*
X116299999Y50445181D01*
X116299999Y50445181D02*
X116490475Y50445181D01*
X116490475Y50445181D02*
X116585713Y50492800D01*
X116585713Y50492800D02*
X116680951Y50588039D01*
X116680951Y50588039D02*
X116728570Y50778515D01*
X116728570Y50778515D02*
X116728570Y51111848D01*
X116728570Y51111848D02*
X116680951Y51302324D01*
X116680951Y51302324D02*
X116585713Y51397562D01*
X116585713Y51397562D02*
X116490475Y51445181D01*
X115633332Y50826134D02*
X114871428Y50826134D01*
X114442856Y51349943D02*
X114395237Y51397562D01*
X114395237Y51397562D02*
X114299999Y51445181D01*
X114299999Y51445181D02*
X114061904Y51445181D01*
X114061904Y51445181D02*
X113966666Y51397562D01*
X113966666Y51397562D02*
X113919047Y51349943D01*
X113919047Y51349943D02*
X113871428Y51254705D01*
X113871428Y51254705D02*
X113871428Y51159467D01*
X113871428Y51159467D02*
X113919047Y51016610D01*
X113919047Y51016610D02*
X114490475Y50445181D01*
X114490475Y50445181D02*
X113871428Y50445181D01*
X36542857Y53132681D02*
X36876190Y53608872D01*
X37114285Y53132681D02*
X37114285Y54132681D01*
X37114285Y54132681D02*
X36733333Y54132681D01*
X36733333Y54132681D02*
X36638095Y54085062D01*
X36638095Y54085062D02*
X36590476Y54037443D01*
X36590476Y54037443D02*
X36542857Y53942205D01*
X36542857Y53942205D02*
X36542857Y53799348D01*
X36542857Y53799348D02*
X36590476Y53704110D01*
X36590476Y53704110D02*
X36638095Y53656491D01*
X36638095Y53656491D02*
X36733333Y53608872D01*
X36733333Y53608872D02*
X37114285Y53608872D01*
X35685714Y53799348D02*
X35685714Y53132681D01*
X35923809Y54180300D02*
X36161904Y53466015D01*
X36161904Y53466015D02*
X35542857Y53466015D01*
X34733333Y53799348D02*
X34733333Y53132681D01*
X34971428Y54180300D02*
X35209523Y53466015D01*
X35209523Y53466015D02*
X34590476Y53466015D01*
X113938094Y66945181D02*
X113938094Y67945181D01*
X113938094Y67945181D02*
X113699999Y67945181D01*
X113699999Y67945181D02*
X113557142Y67897562D01*
X113557142Y67897562D02*
X113461904Y67802324D01*
X113461904Y67802324D02*
X113414285Y67707086D01*
X113414285Y67707086D02*
X113366666Y67516610D01*
X113366666Y67516610D02*
X113366666Y67373753D01*
X113366666Y67373753D02*
X113414285Y67183277D01*
X113414285Y67183277D02*
X113461904Y67088039D01*
X113461904Y67088039D02*
X113557142Y66992800D01*
X113557142Y66992800D02*
X113699999Y66945181D01*
X113699999Y66945181D02*
X113938094Y66945181D01*
X112414285Y66945181D02*
X112985713Y66945181D01*
X112699999Y66945181D02*
X112699999Y67945181D01*
X112699999Y67945181D02*
X112795237Y67802324D01*
X112795237Y67802324D02*
X112890475Y67707086D01*
X112890475Y67707086D02*
X112985713Y67659467D01*
X61295238Y64549943D02*
X61390476Y64597562D01*
X61390476Y64597562D02*
X61485714Y64692800D01*
X61485714Y64692800D02*
X61628571Y64835658D01*
X61628571Y64835658D02*
X61723809Y64883277D01*
X61723809Y64883277D02*
X61819047Y64883277D01*
X61771428Y64645181D02*
X61866666Y64692800D01*
X61866666Y64692800D02*
X61961904Y64788039D01*
X61961904Y64788039D02*
X62009523Y64978515D01*
X62009523Y64978515D02*
X62009523Y65311848D01*
X62009523Y65311848D02*
X61961904Y65502324D01*
X61961904Y65502324D02*
X61866666Y65597562D01*
X61866666Y65597562D02*
X61771428Y65645181D01*
X61771428Y65645181D02*
X61580952Y65645181D01*
X61580952Y65645181D02*
X61485714Y65597562D01*
X61485714Y65597562D02*
X61390476Y65502324D01*
X61390476Y65502324D02*
X61342857Y65311848D01*
X61342857Y65311848D02*
X61342857Y64978515D01*
X61342857Y64978515D02*
X61390476Y64788039D01*
X61390476Y64788039D02*
X61485714Y64692800D01*
X61485714Y64692800D02*
X61580952Y64645181D01*
X61580952Y64645181D02*
X61771428Y64645181D01*
X61009523Y65645181D02*
X60342857Y65645181D01*
X60342857Y65645181D02*
X60771428Y64645181D01*
X65292857Y64595181D02*
X65626190Y65071372D01*
X65864285Y64595181D02*
X65864285Y65595181D01*
X65864285Y65595181D02*
X65483333Y65595181D01*
X65483333Y65595181D02*
X65388095Y65547562D01*
X65388095Y65547562D02*
X65340476Y65499943D01*
X65340476Y65499943D02*
X65292857Y65404705D01*
X65292857Y65404705D02*
X65292857Y65261848D01*
X65292857Y65261848D02*
X65340476Y65166610D01*
X65340476Y65166610D02*
X65388095Y65118991D01*
X65388095Y65118991D02*
X65483333Y65071372D01*
X65483333Y65071372D02*
X65864285Y65071372D01*
X64435714Y65261848D02*
X64435714Y64595181D01*
X64673809Y65642800D02*
X64911904Y64928515D01*
X64911904Y64928515D02*
X64292857Y64928515D01*
X63388095Y64595181D02*
X63959523Y64595181D01*
X63673809Y64595181D02*
X63673809Y65595181D01*
X63673809Y65595181D02*
X63769047Y65452324D01*
X63769047Y65452324D02*
X63864285Y65357086D01*
X63864285Y65357086D02*
X63959523Y65309467D01*
X132542856Y60745181D02*
X132447618Y60745181D01*
X132447618Y60745181D02*
X132352380Y60697562D01*
X132352380Y60697562D02*
X132304761Y60649943D01*
X132304761Y60649943D02*
X132257142Y60554705D01*
X132257142Y60554705D02*
X132209523Y60364229D01*
X132209523Y60364229D02*
X132209523Y60126134D01*
X132209523Y60126134D02*
X132257142Y59935658D01*
X132257142Y59935658D02*
X132304761Y59840420D01*
X132304761Y59840420D02*
X132352380Y59792800D01*
X132352380Y59792800D02*
X132447618Y59745181D01*
X132447618Y59745181D02*
X132542856Y59745181D01*
X132542856Y59745181D02*
X132638094Y59792800D01*
X132638094Y59792800D02*
X132685713Y59840420D01*
X132685713Y59840420D02*
X132733332Y59935658D01*
X132733332Y59935658D02*
X132780951Y60126134D01*
X132780951Y60126134D02*
X132780951Y60364229D01*
X132780951Y60364229D02*
X132733332Y60554705D01*
X132733332Y60554705D02*
X132685713Y60649943D01*
X132685713Y60649943D02*
X132638094Y60697562D01*
X132638094Y60697562D02*
X132542856Y60745181D01*
X131780951Y60126134D02*
X131019047Y60126134D01*
X130114285Y60411848D02*
X130114285Y59745181D01*
X130352380Y60792800D02*
X130590475Y60078515D01*
X130590475Y60078515D02*
X129971428Y60078515D01*
X104038094Y66945181D02*
X104038094Y67945181D01*
X104038094Y67945181D02*
X103799999Y67945181D01*
X103799999Y67945181D02*
X103657142Y67897562D01*
X103657142Y67897562D02*
X103561904Y67802324D01*
X103561904Y67802324D02*
X103514285Y67707086D01*
X103514285Y67707086D02*
X103466666Y67516610D01*
X103466666Y67516610D02*
X103466666Y67373753D01*
X103466666Y67373753D02*
X103514285Y67183277D01*
X103514285Y67183277D02*
X103561904Y67088039D01*
X103561904Y67088039D02*
X103657142Y66992800D01*
X103657142Y66992800D02*
X103799999Y66945181D01*
X103799999Y66945181D02*
X104038094Y66945181D01*
X103085713Y67849943D02*
X103038094Y67897562D01*
X103038094Y67897562D02*
X102942856Y67945181D01*
X102942856Y67945181D02*
X102704761Y67945181D01*
X102704761Y67945181D02*
X102609523Y67897562D01*
X102609523Y67897562D02*
X102561904Y67849943D01*
X102561904Y67849943D02*
X102514285Y67754705D01*
X102514285Y67754705D02*
X102514285Y67659467D01*
X102514285Y67659467D02*
X102561904Y67516610D01*
X102561904Y67516610D02*
X103133332Y66945181D01*
X103133332Y66945181D02*
X102514285Y66945181D01*
X51295238Y64599943D02*
X51390476Y64647562D01*
X51390476Y64647562D02*
X51485714Y64742800D01*
X51485714Y64742800D02*
X51628571Y64885658D01*
X51628571Y64885658D02*
X51723809Y64933277D01*
X51723809Y64933277D02*
X51819047Y64933277D01*
X51771428Y64695181D02*
X51866666Y64742800D01*
X51866666Y64742800D02*
X51961904Y64838039D01*
X51961904Y64838039D02*
X52009523Y65028515D01*
X52009523Y65028515D02*
X52009523Y65361848D01*
X52009523Y65361848D02*
X51961904Y65552324D01*
X51961904Y65552324D02*
X51866666Y65647562D01*
X51866666Y65647562D02*
X51771428Y65695181D01*
X51771428Y65695181D02*
X51580952Y65695181D01*
X51580952Y65695181D02*
X51485714Y65647562D01*
X51485714Y65647562D02*
X51390476Y65552324D01*
X51390476Y65552324D02*
X51342857Y65361848D01*
X51342857Y65361848D02*
X51342857Y65028515D01*
X51342857Y65028515D02*
X51390476Y64838039D01*
X51390476Y64838039D02*
X51485714Y64742800D01*
X51485714Y64742800D02*
X51580952Y64695181D01*
X51580952Y64695181D02*
X51771428Y64695181D01*
X50485714Y65695181D02*
X50676190Y65695181D01*
X50676190Y65695181D02*
X50771428Y65647562D01*
X50771428Y65647562D02*
X50819047Y65599943D01*
X50819047Y65599943D02*
X50914285Y65457086D01*
X50914285Y65457086D02*
X50961904Y65266610D01*
X50961904Y65266610D02*
X50961904Y64885658D01*
X50961904Y64885658D02*
X50914285Y64790420D01*
X50914285Y64790420D02*
X50866666Y64742800D01*
X50866666Y64742800D02*
X50771428Y64695181D01*
X50771428Y64695181D02*
X50580952Y64695181D01*
X50580952Y64695181D02*
X50485714Y64742800D01*
X50485714Y64742800D02*
X50438095Y64790420D01*
X50438095Y64790420D02*
X50390476Y64885658D01*
X50390476Y64885658D02*
X50390476Y65123753D01*
X50390476Y65123753D02*
X50438095Y65218991D01*
X50438095Y65218991D02*
X50485714Y65266610D01*
X50485714Y65266610D02*
X50580952Y65314229D01*
X50580952Y65314229D02*
X50771428Y65314229D01*
X50771428Y65314229D02*
X50866666Y65266610D01*
X50866666Y65266610D02*
X50914285Y65218991D01*
X50914285Y65218991D02*
X50961904Y65123753D01*
X58792857Y59445181D02*
X59126190Y59921372D01*
X59364285Y59445181D02*
X59364285Y60445181D01*
X59364285Y60445181D02*
X58983333Y60445181D01*
X58983333Y60445181D02*
X58888095Y60397562D01*
X58888095Y60397562D02*
X58840476Y60349943D01*
X58840476Y60349943D02*
X58792857Y60254705D01*
X58792857Y60254705D02*
X58792857Y60111848D01*
X58792857Y60111848D02*
X58840476Y60016610D01*
X58840476Y60016610D02*
X58888095Y59968991D01*
X58888095Y59968991D02*
X58983333Y59921372D01*
X58983333Y59921372D02*
X59364285Y59921372D01*
X58459523Y60445181D02*
X57840476Y60445181D01*
X57840476Y60445181D02*
X58173809Y60064229D01*
X58173809Y60064229D02*
X58030952Y60064229D01*
X58030952Y60064229D02*
X57935714Y60016610D01*
X57935714Y60016610D02*
X57888095Y59968991D01*
X57888095Y59968991D02*
X57840476Y59873753D01*
X57840476Y59873753D02*
X57840476Y59635658D01*
X57840476Y59635658D02*
X57888095Y59540420D01*
X57888095Y59540420D02*
X57935714Y59492800D01*
X57935714Y59492800D02*
X58030952Y59445181D01*
X58030952Y59445181D02*
X58316666Y59445181D01*
X58316666Y59445181D02*
X58411904Y59492800D01*
X58411904Y59492800D02*
X58459523Y59540420D01*
X56983333Y60111848D02*
X56983333Y59445181D01*
X57221428Y60492800D02*
X57459523Y59778515D01*
X57459523Y59778515D02*
X56840476Y59778515D01*
X56492857Y64645181D02*
X56826190Y65121372D01*
X57064285Y64645181D02*
X57064285Y65645181D01*
X57064285Y65645181D02*
X56683333Y65645181D01*
X56683333Y65645181D02*
X56588095Y65597562D01*
X56588095Y65597562D02*
X56540476Y65549943D01*
X56540476Y65549943D02*
X56492857Y65454705D01*
X56492857Y65454705D02*
X56492857Y65311848D01*
X56492857Y65311848D02*
X56540476Y65216610D01*
X56540476Y65216610D02*
X56588095Y65168991D01*
X56588095Y65168991D02*
X56683333Y65121372D01*
X56683333Y65121372D02*
X57064285Y65121372D01*
X56159523Y65645181D02*
X55540476Y65645181D01*
X55540476Y65645181D02*
X55873809Y65264229D01*
X55873809Y65264229D02*
X55730952Y65264229D01*
X55730952Y65264229D02*
X55635714Y65216610D01*
X55635714Y65216610D02*
X55588095Y65168991D01*
X55588095Y65168991D02*
X55540476Y65073753D01*
X55540476Y65073753D02*
X55540476Y64835658D01*
X55540476Y64835658D02*
X55588095Y64740420D01*
X55588095Y64740420D02*
X55635714Y64692800D01*
X55635714Y64692800D02*
X55730952Y64645181D01*
X55730952Y64645181D02*
X56016666Y64645181D01*
X56016666Y64645181D02*
X56111904Y64692800D01*
X56111904Y64692800D02*
X56159523Y64740420D01*
X54969047Y65216610D02*
X55064285Y65264229D01*
X55064285Y65264229D02*
X55111904Y65311848D01*
X55111904Y65311848D02*
X55159523Y65407086D01*
X55159523Y65407086D02*
X55159523Y65454705D01*
X55159523Y65454705D02*
X55111904Y65549943D01*
X55111904Y65549943D02*
X55064285Y65597562D01*
X55064285Y65597562D02*
X54969047Y65645181D01*
X54969047Y65645181D02*
X54778571Y65645181D01*
X54778571Y65645181D02*
X54683333Y65597562D01*
X54683333Y65597562D02*
X54635714Y65549943D01*
X54635714Y65549943D02*
X54588095Y65454705D01*
X54588095Y65454705D02*
X54588095Y65407086D01*
X54588095Y65407086D02*
X54635714Y65311848D01*
X54635714Y65311848D02*
X54683333Y65264229D01*
X54683333Y65264229D02*
X54778571Y65216610D01*
X54778571Y65216610D02*
X54969047Y65216610D01*
X54969047Y65216610D02*
X55064285Y65168991D01*
X55064285Y65168991D02*
X55111904Y65121372D01*
X55111904Y65121372D02*
X55159523Y65026134D01*
X55159523Y65026134D02*
X55159523Y64835658D01*
X55159523Y64835658D02*
X55111904Y64740420D01*
X55111904Y64740420D02*
X55064285Y64692800D01*
X55064285Y64692800D02*
X54969047Y64645181D01*
X54969047Y64645181D02*
X54778571Y64645181D01*
X54778571Y64645181D02*
X54683333Y64692800D01*
X54683333Y64692800D02*
X54635714Y64740420D01*
X54635714Y64740420D02*
X54588095Y64835658D01*
X54588095Y64835658D02*
X54588095Y65026134D01*
X54588095Y65026134D02*
X54635714Y65121372D01*
X54635714Y65121372D02*
X54683333Y65168991D01*
X54683333Y65168991D02*
X54778571Y65216610D01*
X101042857Y10690420D02*
X101090476Y10642800D01*
X101090476Y10642800D02*
X101233333Y10595181D01*
X101233333Y10595181D02*
X101328571Y10595181D01*
X101328571Y10595181D02*
X101471428Y10642800D01*
X101471428Y10642800D02*
X101566666Y10738039D01*
X101566666Y10738039D02*
X101614285Y10833277D01*
X101614285Y10833277D02*
X101661904Y11023753D01*
X101661904Y11023753D02*
X101661904Y11166610D01*
X101661904Y11166610D02*
X101614285Y11357086D01*
X101614285Y11357086D02*
X101566666Y11452324D01*
X101566666Y11452324D02*
X101471428Y11547562D01*
X101471428Y11547562D02*
X101328571Y11595181D01*
X101328571Y11595181D02*
X101233333Y11595181D01*
X101233333Y11595181D02*
X101090476Y11547562D01*
X101090476Y11547562D02*
X101042857Y11499943D01*
X100661904Y11499943D02*
X100614285Y11547562D01*
X100614285Y11547562D02*
X100519047Y11595181D01*
X100519047Y11595181D02*
X100280952Y11595181D01*
X100280952Y11595181D02*
X100185714Y11547562D01*
X100185714Y11547562D02*
X100138095Y11499943D01*
X100138095Y11499943D02*
X100090476Y11404705D01*
X100090476Y11404705D02*
X100090476Y11309467D01*
X100090476Y11309467D02*
X100138095Y11166610D01*
X100138095Y11166610D02*
X100709523Y10595181D01*
X100709523Y10595181D02*
X100090476Y10595181D01*
X99138095Y10595181D02*
X99709523Y10595181D01*
X99423809Y10595181D02*
X99423809Y11595181D01*
X99423809Y11595181D02*
X99519047Y11452324D01*
X99519047Y11452324D02*
X99614285Y11357086D01*
X99614285Y11357086D02*
X99709523Y11309467D01*
X120885714Y36545181D02*
X121361904Y36545181D01*
X121361904Y36545181D02*
X121361904Y37545181D01*
X120552380Y36926134D02*
X119790476Y36926134D01*
X119361904Y37449943D02*
X119314285Y37497562D01*
X119314285Y37497562D02*
X119219047Y37545181D01*
X119219047Y37545181D02*
X118980952Y37545181D01*
X118980952Y37545181D02*
X118885714Y37497562D01*
X118885714Y37497562D02*
X118838095Y37449943D01*
X118838095Y37449943D02*
X118790476Y37354705D01*
X118790476Y37354705D02*
X118790476Y37259467D01*
X118790476Y37259467D02*
X118838095Y37116610D01*
X118838095Y37116610D02*
X119409523Y36545181D01*
X119409523Y36545181D02*
X118790476Y36545181D01*
X41042857Y53132681D02*
X41376190Y53608872D01*
X41614285Y53132681D02*
X41614285Y54132681D01*
X41614285Y54132681D02*
X41233333Y54132681D01*
X41233333Y54132681D02*
X41138095Y54085062D01*
X41138095Y54085062D02*
X41090476Y54037443D01*
X41090476Y54037443D02*
X41042857Y53942205D01*
X41042857Y53942205D02*
X41042857Y53799348D01*
X41042857Y53799348D02*
X41090476Y53704110D01*
X41090476Y53704110D02*
X41138095Y53656491D01*
X41138095Y53656491D02*
X41233333Y53608872D01*
X41233333Y53608872D02*
X41614285Y53608872D01*
X40185714Y53799348D02*
X40185714Y53132681D01*
X40423809Y54180300D02*
X40661904Y53466015D01*
X40661904Y53466015D02*
X40042857Y53466015D01*
X39757142Y54132681D02*
X39090476Y54132681D01*
X39090476Y54132681D02*
X39519047Y53132681D01*
X94138094Y66945181D02*
X94138094Y67945181D01*
X94138094Y67945181D02*
X93899999Y67945181D01*
X93899999Y67945181D02*
X93757142Y67897562D01*
X93757142Y67897562D02*
X93661904Y67802324D01*
X93661904Y67802324D02*
X93614285Y67707086D01*
X93614285Y67707086D02*
X93566666Y67516610D01*
X93566666Y67516610D02*
X93566666Y67373753D01*
X93566666Y67373753D02*
X93614285Y67183277D01*
X93614285Y67183277D02*
X93661904Y67088039D01*
X93661904Y67088039D02*
X93757142Y66992800D01*
X93757142Y66992800D02*
X93899999Y66945181D01*
X93899999Y66945181D02*
X94138094Y66945181D01*
X93233332Y67945181D02*
X92614285Y67945181D01*
X92614285Y67945181D02*
X92947618Y67564229D01*
X92947618Y67564229D02*
X92804761Y67564229D01*
X92804761Y67564229D02*
X92709523Y67516610D01*
X92709523Y67516610D02*
X92661904Y67468991D01*
X92661904Y67468991D02*
X92614285Y67373753D01*
X92614285Y67373753D02*
X92614285Y67135658D01*
X92614285Y67135658D02*
X92661904Y67040420D01*
X92661904Y67040420D02*
X92709523Y66992800D01*
X92709523Y66992800D02*
X92804761Y66945181D01*
X92804761Y66945181D02*
X93090475Y66945181D01*
X93090475Y66945181D02*
X93185713Y66992800D01*
X93185713Y66992800D02*
X93233332Y67040420D01*
X124485714Y36545181D02*
X124961904Y36545181D01*
X124961904Y36545181D02*
X124961904Y37545181D01*
X124152380Y36926134D02*
X123390476Y36926134D01*
X122390476Y36545181D02*
X122961904Y36545181D01*
X122676190Y36545181D02*
X122676190Y37545181D01*
X122676190Y37545181D02*
X122771428Y37402324D01*
X122771428Y37402324D02*
X122866666Y37307086D01*
X122866666Y37307086D02*
X122961904Y37259467D01*
X104542857Y11740420D02*
X104590476Y11692800D01*
X104590476Y11692800D02*
X104733333Y11645181D01*
X104733333Y11645181D02*
X104828571Y11645181D01*
X104828571Y11645181D02*
X104971428Y11692800D01*
X104971428Y11692800D02*
X105066666Y11788039D01*
X105066666Y11788039D02*
X105114285Y11883277D01*
X105114285Y11883277D02*
X105161904Y12073753D01*
X105161904Y12073753D02*
X105161904Y12216610D01*
X105161904Y12216610D02*
X105114285Y12407086D01*
X105114285Y12407086D02*
X105066666Y12502324D01*
X105066666Y12502324D02*
X104971428Y12597562D01*
X104971428Y12597562D02*
X104828571Y12645181D01*
X104828571Y12645181D02*
X104733333Y12645181D01*
X104733333Y12645181D02*
X104590476Y12597562D01*
X104590476Y12597562D02*
X104542857Y12549943D01*
X104161904Y12549943D02*
X104114285Y12597562D01*
X104114285Y12597562D02*
X104019047Y12645181D01*
X104019047Y12645181D02*
X103780952Y12645181D01*
X103780952Y12645181D02*
X103685714Y12597562D01*
X103685714Y12597562D02*
X103638095Y12549943D01*
X103638095Y12549943D02*
X103590476Y12454705D01*
X103590476Y12454705D02*
X103590476Y12359467D01*
X103590476Y12359467D02*
X103638095Y12216610D01*
X103638095Y12216610D02*
X104209523Y11645181D01*
X104209523Y11645181D02*
X103590476Y11645181D01*
X103257142Y12645181D02*
X102638095Y12645181D01*
X102638095Y12645181D02*
X102971428Y12264229D01*
X102971428Y12264229D02*
X102828571Y12264229D01*
X102828571Y12264229D02*
X102733333Y12216610D01*
X102733333Y12216610D02*
X102685714Y12168991D01*
X102685714Y12168991D02*
X102638095Y12073753D01*
X102638095Y12073753D02*
X102638095Y11835658D01*
X102638095Y11835658D02*
X102685714Y11740420D01*
X102685714Y11740420D02*
X102733333Y11692800D01*
X102733333Y11692800D02*
X102828571Y11645181D01*
X102828571Y11645181D02*
X103114285Y11645181D01*
X103114285Y11645181D02*
X103209523Y11692800D01*
X103209523Y11692800D02*
X103257142Y11740420D01*
X46692857Y64645181D02*
X47026190Y65121372D01*
X47264285Y64645181D02*
X47264285Y65645181D01*
X47264285Y65645181D02*
X46883333Y65645181D01*
X46883333Y65645181D02*
X46788095Y65597562D01*
X46788095Y65597562D02*
X46740476Y65549943D01*
X46740476Y65549943D02*
X46692857Y65454705D01*
X46692857Y65454705D02*
X46692857Y65311848D01*
X46692857Y65311848D02*
X46740476Y65216610D01*
X46740476Y65216610D02*
X46788095Y65168991D01*
X46788095Y65168991D02*
X46883333Y65121372D01*
X46883333Y65121372D02*
X47264285Y65121372D01*
X46359523Y65645181D02*
X45740476Y65645181D01*
X45740476Y65645181D02*
X46073809Y65264229D01*
X46073809Y65264229D02*
X45930952Y65264229D01*
X45930952Y65264229D02*
X45835714Y65216610D01*
X45835714Y65216610D02*
X45788095Y65168991D01*
X45788095Y65168991D02*
X45740476Y65073753D01*
X45740476Y65073753D02*
X45740476Y64835658D01*
X45740476Y64835658D02*
X45788095Y64740420D01*
X45788095Y64740420D02*
X45835714Y64692800D01*
X45835714Y64692800D02*
X45930952Y64645181D01*
X45930952Y64645181D02*
X46216666Y64645181D01*
X46216666Y64645181D02*
X46311904Y64692800D01*
X46311904Y64692800D02*
X46359523Y64740420D01*
X45407142Y65645181D02*
X44740476Y65645181D01*
X44740476Y65645181D02*
X45169047Y64645181D01*
X91838094Y62545181D02*
X91838094Y63545181D01*
X91838094Y63545181D02*
X91599999Y63545181D01*
X91599999Y63545181D02*
X91457142Y63497562D01*
X91457142Y63497562D02*
X91361904Y63402324D01*
X91361904Y63402324D02*
X91314285Y63307086D01*
X91314285Y63307086D02*
X91266666Y63116610D01*
X91266666Y63116610D02*
X91266666Y62973753D01*
X91266666Y62973753D02*
X91314285Y62783277D01*
X91314285Y62783277D02*
X91361904Y62688039D01*
X91361904Y62688039D02*
X91457142Y62592800D01*
X91457142Y62592800D02*
X91599999Y62545181D01*
X91599999Y62545181D02*
X91838094Y62545181D01*
X90409523Y63211848D02*
X90409523Y62545181D01*
X90647618Y63592800D02*
X90885713Y62878515D01*
X90885713Y62878515D02*
X90266666Y62878515D01*
X47292857Y53082681D02*
X47626190Y53558872D01*
X47864285Y53082681D02*
X47864285Y54082681D01*
X47864285Y54082681D02*
X47483333Y54082681D01*
X47483333Y54082681D02*
X47388095Y54035062D01*
X47388095Y54035062D02*
X47340476Y53987443D01*
X47340476Y53987443D02*
X47292857Y53892205D01*
X47292857Y53892205D02*
X47292857Y53749348D01*
X47292857Y53749348D02*
X47340476Y53654110D01*
X47340476Y53654110D02*
X47388095Y53606491D01*
X47388095Y53606491D02*
X47483333Y53558872D01*
X47483333Y53558872D02*
X47864285Y53558872D01*
X46435714Y53749348D02*
X46435714Y53082681D01*
X46673809Y54130300D02*
X46911904Y53416015D01*
X46911904Y53416015D02*
X46292857Y53416015D01*
X45483333Y54082681D02*
X45673809Y54082681D01*
X45673809Y54082681D02*
X45769047Y54035062D01*
X45769047Y54035062D02*
X45816666Y53987443D01*
X45816666Y53987443D02*
X45911904Y53844586D01*
X45911904Y53844586D02*
X45959523Y53654110D01*
X45959523Y53654110D02*
X45959523Y53273158D01*
X45959523Y53273158D02*
X45911904Y53177920D01*
X45911904Y53177920D02*
X45864285Y53130300D01*
X45864285Y53130300D02*
X45769047Y53082681D01*
X45769047Y53082681D02*
X45578571Y53082681D01*
X45578571Y53082681D02*
X45483333Y53130300D01*
X45483333Y53130300D02*
X45435714Y53177920D01*
X45435714Y53177920D02*
X45388095Y53273158D01*
X45388095Y53273158D02*
X45388095Y53511253D01*
X45388095Y53511253D02*
X45435714Y53606491D01*
X45435714Y53606491D02*
X45483333Y53654110D01*
X45483333Y53654110D02*
X45578571Y53701729D01*
X45578571Y53701729D02*
X45769047Y53701729D01*
X45769047Y53701729D02*
X45864285Y53654110D01*
X45864285Y53654110D02*
X45911904Y53606491D01*
X45911904Y53606491D02*
X45959523Y53511253D01*
X38842857Y47932681D02*
X39176190Y48408872D01*
X39414285Y47932681D02*
X39414285Y48932681D01*
X39414285Y48932681D02*
X39033333Y48932681D01*
X39033333Y48932681D02*
X38938095Y48885062D01*
X38938095Y48885062D02*
X38890476Y48837443D01*
X38890476Y48837443D02*
X38842857Y48742205D01*
X38842857Y48742205D02*
X38842857Y48599348D01*
X38842857Y48599348D02*
X38890476Y48504110D01*
X38890476Y48504110D02*
X38938095Y48456491D01*
X38938095Y48456491D02*
X39033333Y48408872D01*
X39033333Y48408872D02*
X39414285Y48408872D01*
X37985714Y48599348D02*
X37985714Y47932681D01*
X38223809Y48980300D02*
X38461904Y48266015D01*
X38461904Y48266015D02*
X37842857Y48266015D01*
X37557142Y48932681D02*
X36938095Y48932681D01*
X36938095Y48932681D02*
X37271428Y48551729D01*
X37271428Y48551729D02*
X37128571Y48551729D01*
X37128571Y48551729D02*
X37033333Y48504110D01*
X37033333Y48504110D02*
X36985714Y48456491D01*
X36985714Y48456491D02*
X36938095Y48361253D01*
X36938095Y48361253D02*
X36938095Y48123158D01*
X36938095Y48123158D02*
X36985714Y48027920D01*
X36985714Y48027920D02*
X37033333Y47980300D01*
X37033333Y47980300D02*
X37128571Y47932681D01*
X37128571Y47932681D02*
X37414285Y47932681D01*
X37414285Y47932681D02*
X37509523Y47980300D01*
X37509523Y47980300D02*
X37557142Y48027920D01*
X15426190Y32121372D02*
X15426190Y31645181D01*
X15759523Y32645181D02*
X15426190Y32121372D01*
X15426190Y32121372D02*
X15092857Y32645181D01*
X14807142Y32549943D02*
X14759523Y32597562D01*
X14759523Y32597562D02*
X14664285Y32645181D01*
X14664285Y32645181D02*
X14426190Y32645181D01*
X14426190Y32645181D02*
X14330952Y32597562D01*
X14330952Y32597562D02*
X14283333Y32549943D01*
X14283333Y32549943D02*
X14235714Y32454705D01*
X14235714Y32454705D02*
X14235714Y32359467D01*
X14235714Y32359467D02*
X14283333Y32216610D01*
X14283333Y32216610D02*
X14854761Y31645181D01*
X14854761Y31645181D02*
X14235714Y31645181D01*
X107990475Y51445181D02*
X107799999Y51445181D01*
X107799999Y51445181D02*
X107704761Y51397562D01*
X107704761Y51397562D02*
X107609523Y51302324D01*
X107609523Y51302324D02*
X107561904Y51111848D01*
X107561904Y51111848D02*
X107561904Y50778515D01*
X107561904Y50778515D02*
X107609523Y50588039D01*
X107609523Y50588039D02*
X107704761Y50492800D01*
X107704761Y50492800D02*
X107799999Y50445181D01*
X107799999Y50445181D02*
X107990475Y50445181D01*
X107990475Y50445181D02*
X108085713Y50492800D01*
X108085713Y50492800D02*
X108180951Y50588039D01*
X108180951Y50588039D02*
X108228570Y50778515D01*
X108228570Y50778515D02*
X108228570Y51111848D01*
X108228570Y51111848D02*
X108180951Y51302324D01*
X108180951Y51302324D02*
X108085713Y51397562D01*
X108085713Y51397562D02*
X107990475Y51445181D01*
X107133332Y50826134D02*
X106371428Y50826134D01*
X105990475Y51445181D02*
X105371428Y51445181D01*
X105371428Y51445181D02*
X105704761Y51064229D01*
X105704761Y51064229D02*
X105561904Y51064229D01*
X105561904Y51064229D02*
X105466666Y51016610D01*
X105466666Y51016610D02*
X105419047Y50968991D01*
X105419047Y50968991D02*
X105371428Y50873753D01*
X105371428Y50873753D02*
X105371428Y50635658D01*
X105371428Y50635658D02*
X105419047Y50540420D01*
X105419047Y50540420D02*
X105466666Y50492800D01*
X105466666Y50492800D02*
X105561904Y50445181D01*
X105561904Y50445181D02*
X105847618Y50445181D01*
X105847618Y50445181D02*
X105942856Y50492800D01*
X105942856Y50492800D02*
X105990475Y50540420D01*
X124890475Y51445181D02*
X124699999Y51445181D01*
X124699999Y51445181D02*
X124604761Y51397562D01*
X124604761Y51397562D02*
X124509523Y51302324D01*
X124509523Y51302324D02*
X124461904Y51111848D01*
X124461904Y51111848D02*
X124461904Y50778515D01*
X124461904Y50778515D02*
X124509523Y50588039D01*
X124509523Y50588039D02*
X124604761Y50492800D01*
X124604761Y50492800D02*
X124699999Y50445181D01*
X124699999Y50445181D02*
X124890475Y50445181D01*
X124890475Y50445181D02*
X124985713Y50492800D01*
X124985713Y50492800D02*
X125080951Y50588039D01*
X125080951Y50588039D02*
X125128570Y50778515D01*
X125128570Y50778515D02*
X125128570Y51111848D01*
X125128570Y51111848D02*
X125080951Y51302324D01*
X125080951Y51302324D02*
X124985713Y51397562D01*
X124985713Y51397562D02*
X124890475Y51445181D01*
X124033332Y50826134D02*
X123271428Y50826134D01*
X122271428Y50445181D02*
X122842856Y50445181D01*
X122557142Y50445181D02*
X122557142Y51445181D01*
X122557142Y51445181D02*
X122652380Y51302324D01*
X122652380Y51302324D02*
X122747618Y51207086D01*
X122747618Y51207086D02*
X122842856Y51159467D01*
X132542856Y55545181D02*
X132447618Y55545181D01*
X132447618Y55545181D02*
X132352380Y55497562D01*
X132352380Y55497562D02*
X132304761Y55449943D01*
X132304761Y55449943D02*
X132257142Y55354705D01*
X132257142Y55354705D02*
X132209523Y55164229D01*
X132209523Y55164229D02*
X132209523Y54926134D01*
X132209523Y54926134D02*
X132257142Y54735658D01*
X132257142Y54735658D02*
X132304761Y54640420D01*
X132304761Y54640420D02*
X132352380Y54592800D01*
X132352380Y54592800D02*
X132447618Y54545181D01*
X132447618Y54545181D02*
X132542856Y54545181D01*
X132542856Y54545181D02*
X132638094Y54592800D01*
X132638094Y54592800D02*
X132685713Y54640420D01*
X132685713Y54640420D02*
X132733332Y54735658D01*
X132733332Y54735658D02*
X132780951Y54926134D01*
X132780951Y54926134D02*
X132780951Y55164229D01*
X132780951Y55164229D02*
X132733332Y55354705D01*
X132733332Y55354705D02*
X132685713Y55449943D01*
X132685713Y55449943D02*
X132638094Y55497562D01*
X132638094Y55497562D02*
X132542856Y55545181D01*
X131780951Y54926134D02*
X131019047Y54926134D01*
X130638094Y55545181D02*
X130019047Y55545181D01*
X130019047Y55545181D02*
X130352380Y55164229D01*
X130352380Y55164229D02*
X130209523Y55164229D01*
X130209523Y55164229D02*
X130114285Y55116610D01*
X130114285Y55116610D02*
X130066666Y55068991D01*
X130066666Y55068991D02*
X130019047Y54973753D01*
X130019047Y54973753D02*
X130019047Y54735658D01*
X130019047Y54735658D02*
X130066666Y54640420D01*
X130066666Y54640420D02*
X130114285Y54592800D01*
X130114285Y54592800D02*
X130209523Y54545181D01*
X130209523Y54545181D02*
X130495237Y54545181D01*
X130495237Y54545181D02*
X130590475Y54592800D01*
X130590475Y54592800D02*
X130638094Y54640420D01*
X45242857Y47932681D02*
X45576190Y48408872D01*
X45814285Y47932681D02*
X45814285Y48932681D01*
X45814285Y48932681D02*
X45433333Y48932681D01*
X45433333Y48932681D02*
X45338095Y48885062D01*
X45338095Y48885062D02*
X45290476Y48837443D01*
X45290476Y48837443D02*
X45242857Y48742205D01*
X45242857Y48742205D02*
X45242857Y48599348D01*
X45242857Y48599348D02*
X45290476Y48504110D01*
X45290476Y48504110D02*
X45338095Y48456491D01*
X45338095Y48456491D02*
X45433333Y48408872D01*
X45433333Y48408872D02*
X45814285Y48408872D01*
X44385714Y48599348D02*
X44385714Y47932681D01*
X44623809Y48980300D02*
X44861904Y48266015D01*
X44861904Y48266015D02*
X44242857Y48266015D01*
X43909523Y48837443D02*
X43861904Y48885062D01*
X43861904Y48885062D02*
X43766666Y48932681D01*
X43766666Y48932681D02*
X43528571Y48932681D01*
X43528571Y48932681D02*
X43433333Y48885062D01*
X43433333Y48885062D02*
X43385714Y48837443D01*
X43385714Y48837443D02*
X43338095Y48742205D01*
X43338095Y48742205D02*
X43338095Y48646967D01*
X43338095Y48646967D02*
X43385714Y48504110D01*
X43385714Y48504110D02*
X43957142Y47932681D01*
X43957142Y47932681D02*
X43338095Y47932681D01*
X112514285Y4545181D02*
X112514285Y5545181D01*
X112514285Y5545181D02*
X112276190Y5545181D01*
X112276190Y5545181D02*
X112133333Y5497562D01*
X112133333Y5497562D02*
X112038095Y5402324D01*
X112038095Y5402324D02*
X111990476Y5307086D01*
X111990476Y5307086D02*
X111942857Y5116610D01*
X111942857Y5116610D02*
X111942857Y4973753D01*
X111942857Y4973753D02*
X111990476Y4783277D01*
X111990476Y4783277D02*
X112038095Y4688039D01*
X112038095Y4688039D02*
X112133333Y4592800D01*
X112133333Y4592800D02*
X112276190Y4545181D01*
X112276190Y4545181D02*
X112514285Y4545181D01*
X110990476Y4545181D02*
X111561904Y4545181D01*
X111276190Y4545181D02*
X111276190Y5545181D01*
X111276190Y5545181D02*
X111371428Y5402324D01*
X111371428Y5402324D02*
X111466666Y5307086D01*
X111466666Y5307086D02*
X111561904Y5259467D01*
X110133333Y5545181D02*
X110323809Y5545181D01*
X110323809Y5545181D02*
X110419047Y5497562D01*
X110419047Y5497562D02*
X110466666Y5449943D01*
X110466666Y5449943D02*
X110561904Y5307086D01*
X110561904Y5307086D02*
X110609523Y5116610D01*
X110609523Y5116610D02*
X110609523Y4735658D01*
X110609523Y4735658D02*
X110561904Y4640420D01*
X110561904Y4640420D02*
X110514285Y4592800D01*
X110514285Y4592800D02*
X110419047Y4545181D01*
X110419047Y4545181D02*
X110228571Y4545181D01*
X110228571Y4545181D02*
X110133333Y4592800D01*
X110133333Y4592800D02*
X110085714Y4640420D01*
X110085714Y4640420D02*
X110038095Y4735658D01*
X110038095Y4735658D02*
X110038095Y4973753D01*
X110038095Y4973753D02*
X110085714Y5068991D01*
X110085714Y5068991D02*
X110133333Y5116610D01*
X110133333Y5116610D02*
X110228571Y5164229D01*
X110228571Y5164229D02*
X110419047Y5164229D01*
X110419047Y5164229D02*
X110514285Y5116610D01*
X110514285Y5116610D02*
X110561904Y5068991D01*
X110561904Y5068991D02*
X110609523Y4973753D01*
X19516666Y59190420D02*
X19564285Y59142800D01*
X19564285Y59142800D02*
X19707142Y59095181D01*
X19707142Y59095181D02*
X19802380Y59095181D01*
X19802380Y59095181D02*
X19945237Y59142800D01*
X19945237Y59142800D02*
X20040475Y59238039D01*
X20040475Y59238039D02*
X20088094Y59333277D01*
X20088094Y59333277D02*
X20135713Y59523753D01*
X20135713Y59523753D02*
X20135713Y59666610D01*
X20135713Y59666610D02*
X20088094Y59857086D01*
X20088094Y59857086D02*
X20040475Y59952324D01*
X20040475Y59952324D02*
X19945237Y60047562D01*
X19945237Y60047562D02*
X19802380Y60095181D01*
X19802380Y60095181D02*
X19707142Y60095181D01*
X19707142Y60095181D02*
X19564285Y60047562D01*
X19564285Y60047562D02*
X19516666Y59999943D01*
X18659523Y59761848D02*
X18659523Y59095181D01*
X18897618Y60142800D02*
X19135713Y59428515D01*
X19135713Y59428515D02*
X18516666Y59428515D01*
X48842857Y59395181D02*
X49176190Y59871372D01*
X49414285Y59395181D02*
X49414285Y60395181D01*
X49414285Y60395181D02*
X49033333Y60395181D01*
X49033333Y60395181D02*
X48938095Y60347562D01*
X48938095Y60347562D02*
X48890476Y60299943D01*
X48890476Y60299943D02*
X48842857Y60204705D01*
X48842857Y60204705D02*
X48842857Y60061848D01*
X48842857Y60061848D02*
X48890476Y59966610D01*
X48890476Y59966610D02*
X48938095Y59918991D01*
X48938095Y59918991D02*
X49033333Y59871372D01*
X49033333Y59871372D02*
X49414285Y59871372D01*
X48509523Y60395181D02*
X47890476Y60395181D01*
X47890476Y60395181D02*
X48223809Y60014229D01*
X48223809Y60014229D02*
X48080952Y60014229D01*
X48080952Y60014229D02*
X47985714Y59966610D01*
X47985714Y59966610D02*
X47938095Y59918991D01*
X47938095Y59918991D02*
X47890476Y59823753D01*
X47890476Y59823753D02*
X47890476Y59585658D01*
X47890476Y59585658D02*
X47938095Y59490420D01*
X47938095Y59490420D02*
X47985714Y59442800D01*
X47985714Y59442800D02*
X48080952Y59395181D01*
X48080952Y59395181D02*
X48366666Y59395181D01*
X48366666Y59395181D02*
X48461904Y59442800D01*
X48461904Y59442800D02*
X48509523Y59490420D01*
X47557142Y60395181D02*
X46938095Y60395181D01*
X46938095Y60395181D02*
X47271428Y60014229D01*
X47271428Y60014229D02*
X47128571Y60014229D01*
X47128571Y60014229D02*
X47033333Y59966610D01*
X47033333Y59966610D02*
X46985714Y59918991D01*
X46985714Y59918991D02*
X46938095Y59823753D01*
X46938095Y59823753D02*
X46938095Y59585658D01*
X46938095Y59585658D02*
X46985714Y59490420D01*
X46985714Y59490420D02*
X47033333Y59442800D01*
X47033333Y59442800D02*
X47128571Y59395181D01*
X47128571Y59395181D02*
X47414285Y59395181D01*
X47414285Y59395181D02*
X47509523Y59442800D01*
X47509523Y59442800D02*
X47557142Y59490420D01*
X15542857Y59095181D02*
X15876190Y59571372D01*
X16114285Y59095181D02*
X16114285Y60095181D01*
X16114285Y60095181D02*
X15733333Y60095181D01*
X15733333Y60095181D02*
X15638095Y60047562D01*
X15638095Y60047562D02*
X15590476Y59999943D01*
X15590476Y59999943D02*
X15542857Y59904705D01*
X15542857Y59904705D02*
X15542857Y59761848D01*
X15542857Y59761848D02*
X15590476Y59666610D01*
X15590476Y59666610D02*
X15638095Y59618991D01*
X15638095Y59618991D02*
X15733333Y59571372D01*
X15733333Y59571372D02*
X16114285Y59571372D01*
X14638095Y60095181D02*
X15114285Y60095181D01*
X15114285Y60095181D02*
X15161904Y59618991D01*
X15161904Y59618991D02*
X15114285Y59666610D01*
X15114285Y59666610D02*
X15019047Y59714229D01*
X15019047Y59714229D02*
X14780952Y59714229D01*
X14780952Y59714229D02*
X14685714Y59666610D01*
X14685714Y59666610D02*
X14638095Y59618991D01*
X14638095Y59618991D02*
X14590476Y59523753D01*
X14590476Y59523753D02*
X14590476Y59285658D01*
X14590476Y59285658D02*
X14638095Y59190420D01*
X14638095Y59190420D02*
X14685714Y59142800D01*
X14685714Y59142800D02*
X14780952Y59095181D01*
X14780952Y59095181D02*
X15019047Y59095181D01*
X15019047Y59095181D02*
X15114285Y59142800D01*
X15114285Y59142800D02*
X15161904Y59190420D01*
X13733333Y59761848D02*
X13733333Y59095181D01*
X13971428Y60142800D02*
X14209523Y59428515D01*
X14209523Y59428515D02*
X13590476Y59428515D01*
X11016666Y59095181D02*
X11349999Y59571372D01*
X11588094Y59095181D02*
X11588094Y60095181D01*
X11588094Y60095181D02*
X11207142Y60095181D01*
X11207142Y60095181D02*
X11111904Y60047562D01*
X11111904Y60047562D02*
X11064285Y59999943D01*
X11064285Y59999943D02*
X11016666Y59904705D01*
X11016666Y59904705D02*
X11016666Y59761848D01*
X11016666Y59761848D02*
X11064285Y59666610D01*
X11064285Y59666610D02*
X11111904Y59618991D01*
X11111904Y59618991D02*
X11207142Y59571372D01*
X11207142Y59571372D02*
X11588094Y59571372D01*
X10159523Y59761848D02*
X10159523Y59095181D01*
X10397618Y60142800D02*
X10635713Y59428515D01*
X10635713Y59428515D02*
X10016666Y59428515D01*
X66961904Y60545181D02*
X66961904Y59735658D01*
X66961904Y59735658D02*
X66914285Y59640420D01*
X66914285Y59640420D02*
X66866666Y59592800D01*
X66866666Y59592800D02*
X66771428Y59545181D01*
X66771428Y59545181D02*
X66580952Y59545181D01*
X66580952Y59545181D02*
X66485714Y59592800D01*
X66485714Y59592800D02*
X66438095Y59640420D01*
X66438095Y59640420D02*
X66390476Y59735658D01*
X66390476Y59735658D02*
X66390476Y60545181D01*
X65771428Y60116610D02*
X65866666Y60164229D01*
X65866666Y60164229D02*
X65914285Y60211848D01*
X65914285Y60211848D02*
X65961904Y60307086D01*
X65961904Y60307086D02*
X65961904Y60354705D01*
X65961904Y60354705D02*
X65914285Y60449943D01*
X65914285Y60449943D02*
X65866666Y60497562D01*
X65866666Y60497562D02*
X65771428Y60545181D01*
X65771428Y60545181D02*
X65580952Y60545181D01*
X65580952Y60545181D02*
X65485714Y60497562D01*
X65485714Y60497562D02*
X65438095Y60449943D01*
X65438095Y60449943D02*
X65390476Y60354705D01*
X65390476Y60354705D02*
X65390476Y60307086D01*
X65390476Y60307086D02*
X65438095Y60211848D01*
X65438095Y60211848D02*
X65485714Y60164229D01*
X65485714Y60164229D02*
X65580952Y60116610D01*
X65580952Y60116610D02*
X65771428Y60116610D01*
X65771428Y60116610D02*
X65866666Y60068991D01*
X65866666Y60068991D02*
X65914285Y60021372D01*
X65914285Y60021372D02*
X65961904Y59926134D01*
X65961904Y59926134D02*
X65961904Y59735658D01*
X65961904Y59735658D02*
X65914285Y59640420D01*
X65914285Y59640420D02*
X65866666Y59592800D01*
X65866666Y59592800D02*
X65771428Y59545181D01*
X65771428Y59545181D02*
X65580952Y59545181D01*
X65580952Y59545181D02*
X65485714Y59592800D01*
X65485714Y59592800D02*
X65438095Y59640420D01*
X65438095Y59640420D02*
X65390476Y59735658D01*
X65390476Y59735658D02*
X65390476Y59926134D01*
X65390476Y59926134D02*
X65438095Y60021372D01*
X65438095Y60021372D02*
X65485714Y60068991D01*
X65485714Y60068991D02*
X65580952Y60116610D01*
X108542857Y11740420D02*
X108590476Y11692800D01*
X108590476Y11692800D02*
X108733333Y11645181D01*
X108733333Y11645181D02*
X108828571Y11645181D01*
X108828571Y11645181D02*
X108971428Y11692800D01*
X108971428Y11692800D02*
X109066666Y11788039D01*
X109066666Y11788039D02*
X109114285Y11883277D01*
X109114285Y11883277D02*
X109161904Y12073753D01*
X109161904Y12073753D02*
X109161904Y12216610D01*
X109161904Y12216610D02*
X109114285Y12407086D01*
X109114285Y12407086D02*
X109066666Y12502324D01*
X109066666Y12502324D02*
X108971428Y12597562D01*
X108971428Y12597562D02*
X108828571Y12645181D01*
X108828571Y12645181D02*
X108733333Y12645181D01*
X108733333Y12645181D02*
X108590476Y12597562D01*
X108590476Y12597562D02*
X108542857Y12549943D01*
X108161904Y12549943D02*
X108114285Y12597562D01*
X108114285Y12597562D02*
X108019047Y12645181D01*
X108019047Y12645181D02*
X107780952Y12645181D01*
X107780952Y12645181D02*
X107685714Y12597562D01*
X107685714Y12597562D02*
X107638095Y12549943D01*
X107638095Y12549943D02*
X107590476Y12454705D01*
X107590476Y12454705D02*
X107590476Y12359467D01*
X107590476Y12359467D02*
X107638095Y12216610D01*
X107638095Y12216610D02*
X108209523Y11645181D01*
X108209523Y11645181D02*
X107590476Y11645181D01*
X106971428Y12645181D02*
X106876190Y12645181D01*
X106876190Y12645181D02*
X106780952Y12597562D01*
X106780952Y12597562D02*
X106733333Y12549943D01*
X106733333Y12549943D02*
X106685714Y12454705D01*
X106685714Y12454705D02*
X106638095Y12264229D01*
X106638095Y12264229D02*
X106638095Y12026134D01*
X106638095Y12026134D02*
X106685714Y11835658D01*
X106685714Y11835658D02*
X106733333Y11740420D01*
X106733333Y11740420D02*
X106780952Y11692800D01*
X106780952Y11692800D02*
X106876190Y11645181D01*
X106876190Y11645181D02*
X106971428Y11645181D01*
X106971428Y11645181D02*
X107066666Y11692800D01*
X107066666Y11692800D02*
X107114285Y11740420D01*
X107114285Y11740420D02*
X107161904Y11835658D01*
X107161904Y11835658D02*
X107209523Y12026134D01*
X107209523Y12026134D02*
X107209523Y12264229D01*
X107209523Y12264229D02*
X107161904Y12454705D01*
X107161904Y12454705D02*
X107114285Y12549943D01*
X107114285Y12549943D02*
X107066666Y12597562D01*
X107066666Y12597562D02*
X106971428Y12645181D01*
%TO.C,R40*%
X39165000Y62761252D02*
X39165000Y62238748D01*
X40635000Y62761252D02*
X40635000Y62238748D01*
%TO.C,R36*%
X29265000Y62798752D02*
X29265000Y62276248D01*
X30735000Y62798752D02*
X30735000Y62276248D01*
%TO.C,Q8*%
X48840000Y51900000D02*
X48840000Y51100000D01*
X48840000Y50300000D02*
X48840000Y51100000D01*
X51960000Y51900000D02*
X51960000Y51100000D01*
X51960000Y50300000D02*
X51960000Y51100000D01*
D12*
X52332486Y49560000D02*
X52002486Y49800000D01*
X52332486Y50040000D01*
X52332486Y49560000D01*
G36*
X52332486Y49560000D02*
G01*
X52002486Y49800000D01*
X52332486Y50040000D01*
X52332486Y49560000D01*
G37*
D11*
%TO.C,R45*%
X41365000Y62761252D02*
X41365000Y62238748D01*
X42835000Y62761252D02*
X42835000Y62238748D01*
%TO.C,C19*%
X69561252Y48335000D02*
X69038748Y48335000D01*
X69561252Y46865000D02*
X69038748Y46865000D01*
D12*
%TO.C,JP1*%
X116000000Y11300000D02*
X116000000Y14100000D01*
X116700000Y14750000D02*
X117300000Y14750000D01*
X117300000Y10650000D02*
X116700000Y10650000D01*
X118000000Y14100000D02*
X118000000Y11300000D01*
X118500000Y14200000D02*
X118200000Y13900000D01*
X118500000Y13600000D02*
X118200000Y13900000D01*
X118500000Y13600000D02*
X118500000Y14200000D01*
X116000000Y14050000D02*
G75*
G02*
X116700000Y14750000I699999J1D01*
G01*
X116700000Y10650000D02*
G75*
G02*
X116000000Y11350000I0J700000D01*
G01*
X117300000Y14750000D02*
G75*
G02*
X118000000Y14050000I1J-699999D01*
G01*
X118000000Y11350000D02*
G75*
G02*
X117300000Y10650000I-700000J0D01*
G01*
D11*
%TO.C,R39*%
X54865000Y50676248D02*
X54865000Y51198752D01*
X56335000Y50676248D02*
X56335000Y51198752D01*
%TO.C,R55*%
X16465000Y57261252D02*
X16465000Y56738748D01*
X17935000Y57261252D02*
X17935000Y56738748D01*
%TO.C,R32*%
X31365000Y62798752D02*
X31365000Y62276248D01*
X32835000Y62798752D02*
X32835000Y62276248D01*
%TO.C,R35*%
X52765000Y50676248D02*
X52765000Y51198752D01*
X54235000Y50676248D02*
X54235000Y51198752D01*
%TO.C,U2*%
X13040000Y51150000D02*
X13040000Y49200000D01*
X13040000Y47250000D02*
X13040000Y49200000D01*
X18160000Y51150000D02*
X18160000Y49200000D01*
X18160000Y47250000D02*
X18160000Y49200000D01*
D12*
X18550000Y46260000D02*
X18220000Y46500000D01*
X18550000Y46740000D01*
X18550000Y46260000D01*
G36*
X18550000Y46260000D02*
G01*
X18220000Y46500000D01*
X18550000Y46740000D01*
X18550000Y46260000D01*
G37*
D11*
%TO.C,D15*%
X-250000Y47500000D02*
X-250000Y44590000D01*
X-250000Y44590000D02*
X3250000Y44590000D01*
X3250000Y47500000D02*
X3250000Y44590000D01*
%TO.C,Q5*%
X33790000Y63200000D02*
X33790000Y62400000D01*
X33790000Y61600000D02*
X33790000Y62400000D01*
X36910000Y63200000D02*
X36910000Y62400000D01*
X36910000Y61600000D02*
X36910000Y62400000D01*
D12*
X33747514Y63700000D02*
X33417514Y63460000D01*
X33417514Y63940000D01*
X33747514Y63700000D01*
G36*
X33747514Y63700000D02*
G01*
X33417514Y63460000D01*
X33417514Y63940000D01*
X33747514Y63700000D01*
G37*
D11*
%TO.C,R3*%
X12165000Y56738748D02*
X12165000Y57261252D01*
X13635000Y56738748D02*
X13635000Y57261252D01*
%TO.C,F1*%
X112288748Y13610000D02*
X113711252Y13610000D01*
X112288748Y11790000D02*
X113711252Y11790000D01*
%TO.C,R44*%
X35265000Y50776248D02*
X35265000Y51298752D01*
X36735000Y50776248D02*
X36735000Y51298752D01*
%TO.C,D1*%
X112290000Y66650000D02*
X112290000Y63150000D01*
X115200000Y66650000D02*
X112290000Y66650000D01*
X115200000Y63150000D02*
X112290000Y63150000D01*
%TO.C,Q7*%
X59740000Y63137500D02*
X59740000Y62337500D01*
X59740000Y61537500D02*
X59740000Y62337500D01*
X62860000Y63137500D02*
X62860000Y62337500D01*
X62860000Y61537500D02*
X62860000Y62337500D01*
D12*
X59697514Y63637500D02*
X59367514Y63397500D01*
X59367514Y63877500D01*
X59697514Y63637500D01*
G36*
X59697514Y63637500D02*
G01*
X59367514Y63397500D01*
X59367514Y63877500D01*
X59697514Y63637500D01*
G37*
D11*
%TO.C,R41*%
X63565000Y62698752D02*
X63565000Y62176248D01*
X65035000Y62698752D02*
X65035000Y62176248D01*
%TO.C,D2*%
X102490000Y66650000D02*
X102490000Y63150000D01*
X105400000Y66650000D02*
X102490000Y66650000D01*
X105400000Y63150000D02*
X102490000Y63150000D01*
%TO.C,Q6*%
X49740000Y63162500D02*
X49740000Y62362500D01*
X49740000Y61562500D02*
X49740000Y62362500D01*
X52860000Y63162500D02*
X52860000Y62362500D01*
X52860000Y61562500D02*
X52860000Y62362500D01*
D12*
X49697514Y63662500D02*
X49367514Y63422500D01*
X49367514Y63902500D01*
X49697514Y63662500D01*
G36*
X49697514Y63662500D02*
G01*
X49367514Y63422500D01*
X49367514Y63902500D01*
X49697514Y63662500D01*
G37*
D11*
%TO.C,R34*%
X57365000Y62798752D02*
X57365000Y62276248D01*
X58835000Y62798752D02*
X58835000Y62276248D01*
%TO.C,R38*%
X55265000Y62798752D02*
X55265000Y62276248D01*
X56735000Y62798752D02*
X56735000Y62276248D01*
%TO.C,C21*%
X99965000Y8138748D02*
X99965000Y8661252D01*
X101435000Y8138748D02*
X101435000Y8661252D01*
%TO.C,R47*%
X39665000Y50776248D02*
X39665000Y51298752D01*
X41135000Y50776248D02*
X41135000Y51298752D01*
%TO.C,D3*%
X92690000Y66650000D02*
X92690000Y63150000D01*
X95600000Y66650000D02*
X92690000Y66650000D01*
X95600000Y63150000D02*
X92690000Y63150000D01*
%TO.C,C23*%
X102190000Y11400000D02*
X102190000Y6550000D01*
X105610000Y11400000D02*
X102190000Y11400000D01*
X105610000Y6550000D02*
X105610000Y11400000D01*
%TO.C,R37*%
X45465000Y62761252D02*
X45465000Y62238748D01*
X46935000Y62761252D02*
X46935000Y62238748D01*
%TO.C,D4*%
X90350000Y59200000D02*
X90350000Y62110000D01*
X93850000Y62110000D02*
X90350000Y62110000D01*
X93850000Y59200000D02*
X93850000Y62110000D01*
%TO.C,R46*%
X45965000Y50738748D02*
X45965000Y51261252D01*
X47435000Y50738748D02*
X47435000Y51261252D01*
%TO.C,R43*%
X37465000Y50776248D02*
X37465000Y51298752D01*
X38935000Y50776248D02*
X38935000Y51298752D01*
%TO.C,Y2*%
X14850000Y40000000D02*
X14850000Y33600000D01*
X14850000Y33600000D02*
X17250000Y33600000D01*
X15100000Y40900000D02*
X15700000Y40000000D01*
X17000000Y40900000D02*
X16400000Y40000000D01*
X17250000Y40000000D02*
X14850000Y40000000D01*
X17250000Y33600000D02*
X17250000Y40000000D01*
%TO.C,R42*%
X43865000Y50738748D02*
X43865000Y51261252D01*
X45335000Y50738748D02*
X45335000Y51261252D01*
%TO.C,D16*%
X110050000Y10100000D02*
X110050000Y11250000D01*
X112550000Y11250000D02*
X110050000Y11250000D01*
X112550000Y10100000D02*
X112550000Y11250000D01*
%TO.C,C4*%
X18665000Y57261252D02*
X18665000Y56738748D01*
X20135000Y57261252D02*
X20135000Y56738748D01*
%TO.C,R33*%
X47565000Y62761252D02*
X47565000Y62238748D01*
X49035000Y62761252D02*
X49035000Y62238748D01*
%TO.C,R54*%
X14265000Y56738748D02*
X14265000Y57261252D01*
X15735000Y56738748D02*
X15735000Y57261252D01*
%TO.C,R4*%
X10065000Y56738748D02*
X10065000Y57261252D01*
X11535000Y56738748D02*
X11535000Y57261252D01*
%TO.C,U8*%
X63650000Y59160000D02*
X65600000Y59160000D01*
X63650000Y49040000D02*
X65600000Y49040000D01*
X67550000Y59160000D02*
X65600000Y59160000D01*
X67550000Y49040000D02*
X65600000Y49040000D01*
D12*
X63140000Y48650000D02*
X62660000Y48650000D01*
X62900000Y48980000D01*
X63140000Y48650000D01*
G36*
X63140000Y48650000D02*
G01*
X62660000Y48650000D01*
X62900000Y48980000D01*
X63140000Y48650000D01*
G37*
D11*
%TO.C,C20*%
X106190000Y11400000D02*
X106190000Y6550000D01*
X109610000Y11400000D02*
X106190000Y11400000D01*
X109610000Y6550000D02*
X109610000Y11400000D01*
%TD*%
%LPC*%
D13*
%TO.C,SW5*%
X64600000Y40400000D03*
X71100000Y40400000D03*
X64600000Y35900000D03*
X71100000Y35900000D03*
%TD*%
%TO.C,SW7*%
X21500000Y24200000D03*
X21500000Y30700000D03*
X26000000Y24200000D03*
X26000000Y30700000D03*
%TD*%
D14*
%TO.C,J2*%
X134500000Y29450000D03*
D15*
X134500000Y34530000D03*
%TD*%
D16*
%TO.C,K4*%
X100500000Y60300000D03*
X95800000Y60300000D03*
X95800000Y48800000D03*
X95800000Y41800000D03*
%TD*%
D17*
%TO.C,BT1*%
X14394371Y28122127D03*
X-1402505Y26471765D03*
X5048585Y40985497D03*
D13*
X-1905712Y42731279D03*
X9526712Y26995898D03*
%TD*%
D18*
%TO.C,J1*%
X93100000Y34130000D03*
D19*
X93100000Y31590000D03*
X93100000Y29050000D03*
X93100000Y26510000D03*
X93100000Y23970000D03*
%TD*%
D20*
%TO.C,Y1*%
X80600000Y24150000D03*
X75720000Y24150000D03*
%TD*%
D16*
%TO.C,K3*%
X109000000Y60300000D03*
X104300000Y60300000D03*
X104300000Y48800000D03*
X104300000Y41800000D03*
%TD*%
D13*
%TO.C,SW4*%
X45200000Y40400000D03*
X51700000Y40400000D03*
X45200000Y35900000D03*
X51700000Y35900000D03*
%TD*%
D16*
%TO.C,RV1*%
X127200000Y33100000D03*
X124850000Y23100000D03*
%TD*%
D21*
%TO.C,MH3*%
X4000000Y3500000D03*
%TD*%
D22*
%TO.C,BZ1*%
X5000000Y46500000D03*
X5000000Y51500000D03*
%TD*%
D13*
%TO.C,SW9*%
X21450000Y4800000D03*
X21450000Y11300000D03*
X25950000Y4800000D03*
X25950000Y11300000D03*
%TD*%
D16*
%TO.C,K2*%
X117500000Y60300000D03*
X112800000Y60300000D03*
X112800000Y48800000D03*
X112800000Y41800000D03*
%TD*%
D21*
%TO.C,MH2*%
X125900000Y67500000D03*
%TD*%
D16*
%TO.C,K1*%
X126000000Y60300000D03*
X121300000Y60300000D03*
X121300000Y48800000D03*
X121300000Y41800000D03*
%TD*%
D23*
%TO.C,U7*%
X40100000Y45956000D03*
X42640000Y45956000D03*
X45180000Y45956000D03*
X47720000Y45956000D03*
X50260000Y45956000D03*
X52800000Y45956000D03*
X52800000Y67800000D03*
X50260000Y67800000D03*
X47720000Y67800000D03*
X45180000Y67800000D03*
X42640000Y67800000D03*
X40100000Y67800000D03*
%TD*%
D14*
%TO.C,J3*%
X134500000Y42850000D03*
D15*
X134500000Y47930000D03*
X134500000Y53010000D03*
X134500000Y58090000D03*
%TD*%
D24*
%TO.C,J4*%
X134500000Y18700000D03*
X134500000Y22500000D03*
%TD*%
D13*
%TO.C,SW2*%
X74300000Y40400000D03*
X80800000Y40400000D03*
X74300000Y35900000D03*
X80800000Y35900000D03*
%TD*%
%TO.C,SW8*%
X21450000Y14500000D03*
X21450000Y21000000D03*
X25950000Y14500000D03*
X25950000Y21000000D03*
%TD*%
%TO.C,SW3*%
X54900000Y40400000D03*
X61400000Y40400000D03*
X54900000Y35900000D03*
X61400000Y35900000D03*
%TD*%
D21*
%TO.C,MH4*%
X125900000Y3500000D03*
%TD*%
D13*
%TO.C,SW1*%
X85050000Y45450000D03*
X85050000Y51950000D03*
X89550000Y45450000D03*
X89550000Y51950000D03*
%TD*%
D25*
%TO.C,PS1*%
X99300000Y34500000D03*
X99300000Y29400000D03*
X117000000Y9100000D03*
X117000000Y4000000D03*
X99300000Y4000000D03*
%TD*%
D13*
%TO.C,SW6*%
X21500000Y33900000D03*
X21500000Y40400000D03*
X26000000Y33900000D03*
X26000000Y40400000D03*
%TD*%
D21*
%TO.C,MH1*%
X4000000Y67500000D03*
%TD*%
D26*
%TO.C,TP17*%
X131400000Y47900000D03*
%TD*%
D27*
%TO.C,R40*%
X39900000Y61462500D03*
X39900000Y63537500D03*
%TD*%
D26*
%TO.C,TP3*%
X129300000Y36900000D03*
%TD*%
D27*
%TO.C,R36*%
X30000000Y61500000D03*
X30000000Y63575000D03*
%TD*%
D28*
%TO.C,Q8*%
X51350000Y49962500D03*
X50400000Y52237500D03*
X49450000Y49962500D03*
%TD*%
D27*
%TO.C,R45*%
X42100000Y61462500D03*
X42100000Y63537500D03*
%TD*%
D29*
%TO.C,C19*%
X68262500Y47600000D03*
X70337500Y47600000D03*
%TD*%
D26*
%TO.C,TP5*%
X123700000Y41800000D03*
%TD*%
D30*
%TO.C,JP1*%
X117000000Y14000000D03*
D31*
X117000000Y12700000D03*
D32*
X117000000Y11400000D03*
%TD*%
D26*
%TO.C,TP18*%
X131400000Y42800000D03*
%TD*%
%TO.C,TP7*%
X106700000Y41800000D03*
%TD*%
D33*
%TO.C,R39*%
X55600000Y51975000D03*
X55600000Y49900000D03*
%TD*%
D27*
%TO.C,R55*%
X17200000Y55962500D03*
X17200000Y58037500D03*
%TD*%
%TO.C,R32*%
X32100000Y61500000D03*
X32100000Y63575000D03*
%TD*%
D26*
%TO.C,TP14*%
X98200000Y48800000D03*
%TD*%
D33*
%TO.C,R35*%
X53500000Y51975000D03*
X53500000Y49900000D03*
%TD*%
D34*
%TO.C,U2*%
X17505000Y46625000D03*
X16235000Y46625000D03*
X14965000Y46625000D03*
X13695000Y46625000D03*
X13695000Y51775000D03*
X14965000Y51775000D03*
X16235000Y51775000D03*
X17505000Y51775000D03*
%TD*%
D35*
%TO.C,D15*%
X1500000Y46800000D03*
X1500000Y51400000D03*
%TD*%
D36*
%TO.C,Q5*%
X34400000Y63537500D03*
X35350000Y61262500D03*
X36300000Y63537500D03*
%TD*%
D33*
%TO.C,R3*%
X12900000Y58037500D03*
X12900000Y55962500D03*
%TD*%
D26*
%TO.C,TP4*%
X126700000Y36900000D03*
%TD*%
%TO.C,TP8*%
X98200000Y41800000D03*
%TD*%
%TO.C,TP6*%
X115200000Y41800000D03*
%TD*%
D37*
%TO.C,F1*%
X114562500Y12700000D03*
X111437500Y12700000D03*
%TD*%
D26*
%TO.C,TP12*%
X115200000Y48800000D03*
%TD*%
D33*
%TO.C,R44*%
X36000000Y52075000D03*
X36000000Y50000000D03*
%TD*%
D38*
%TO.C,D1*%
X114500000Y64900000D03*
X119100000Y64900000D03*
%TD*%
D36*
%TO.C,Q7*%
X60350000Y63475000D03*
X61300000Y61200000D03*
X62250000Y63475000D03*
%TD*%
D27*
%TO.C,R41*%
X64300000Y61400000D03*
X64300000Y63475000D03*
%TD*%
D26*
%TO.C,TP15*%
X131400000Y58100000D03*
%TD*%
D38*
%TO.C,D2*%
X104700000Y64900000D03*
X109300000Y64900000D03*
%TD*%
D36*
%TO.C,Q6*%
X50350000Y63500000D03*
X51300000Y61225000D03*
X52250000Y63500000D03*
%TD*%
D27*
%TO.C,R34*%
X58100000Y61500000D03*
X58100000Y63575000D03*
%TD*%
%TO.C,R38*%
X56000000Y61500000D03*
X56000000Y63575000D03*
%TD*%
D33*
%TO.C,C21*%
X100700000Y9437500D03*
X100700000Y7362500D03*
%TD*%
D26*
%TO.C,TP2*%
X131900000Y36900000D03*
%TD*%
D33*
%TO.C,R47*%
X40400000Y52075000D03*
X40400000Y50000000D03*
%TD*%
D38*
%TO.C,D3*%
X94900000Y64900000D03*
X99500000Y64900000D03*
%TD*%
D26*
%TO.C,TP1*%
X134500000Y36900000D03*
%TD*%
D39*
%TO.C,C23*%
X103900000Y9950000D03*
X103900000Y4850000D03*
%TD*%
D27*
%TO.C,R37*%
X46200000Y61462500D03*
X46200000Y63537500D03*
%TD*%
D40*
%TO.C,D4*%
X92100000Y59900000D03*
X92100000Y55300000D03*
%TD*%
D33*
%TO.C,R46*%
X46700000Y52037500D03*
X46700000Y49962500D03*
%TD*%
%TO.C,R43*%
X38200000Y52075000D03*
X38200000Y50000000D03*
%TD*%
D41*
%TO.C,Y2*%
X17000000Y41800000D03*
X15100000Y41800000D03*
%TD*%
D26*
%TO.C,TP13*%
X106700000Y48800000D03*
%TD*%
%TO.C,TP11*%
X123700000Y48800000D03*
%TD*%
%TO.C,TP16*%
X131400000Y52900000D03*
%TD*%
D33*
%TO.C,R42*%
X44600000Y52037500D03*
X44600000Y49962500D03*
%TD*%
D42*
%TO.C,D16*%
X111300000Y10350000D03*
X111300000Y6600000D03*
%TD*%
D27*
%TO.C,C4*%
X19400000Y55962500D03*
X19400000Y58037500D03*
%TD*%
%TO.C,R33*%
X48300000Y61462500D03*
X48300000Y63537500D03*
%TD*%
D33*
%TO.C,R54*%
X15000000Y58037500D03*
X15000000Y55962500D03*
%TD*%
%TO.C,R4*%
X10800000Y58037500D03*
X10800000Y55962500D03*
%TD*%
D43*
%TO.C,U8*%
X63025000Y49655000D03*
X63025000Y50925000D03*
X63025000Y52195000D03*
X63025000Y53465000D03*
X63025000Y54735000D03*
X63025000Y56005000D03*
X63025000Y57275000D03*
X63025000Y58545000D03*
X68175000Y58545000D03*
X68175000Y57275000D03*
X68175000Y56005000D03*
X68175000Y54735000D03*
X68175000Y53465000D03*
X68175000Y52195000D03*
X68175000Y50925000D03*
X68175000Y49655000D03*
%TD*%
D39*
%TO.C,C20*%
X107900000Y9950000D03*
X107900000Y4850000D03*
%TD*%
%LPD*%
M02*
